<svg version="1.1" viewBox="0.0 0.0 960.0 540.0" fill="none" stroke="none" stroke-linecap="square" stroke-miterlimit="10" xmlns:xlink="http://www.w3.org/1999/xlink" xmlns="http://www.w3.org/2000/svg"><clipPath id="g2cb4e4767a2_0_5.0"><path d="m0 0l960.0 0l0 540.0l-960.0 0l0 -540.0z" clip-rule="nonzero"/></clipPath><g clip-path="url(#g2cb4e4767a2_0_5.0)"><path fill="#ffffff" d="m0 0l960.0 0l0 540.0l-960.0 0z" fill-rule="evenodd"/><path fill="#ffffff" d="m451.73312 320.19193l48.251953 0l0 50.677185l-48.251953 0z" fill-rule="evenodd"/><path stroke="#000000" stroke-width="1.0" stroke-linejoin="round" stroke-linecap="butt" d="m451.73312 320.19193l48.251953 0l0 50.677185l-48.251953 0z" fill-rule="evenodd"/><path fill="#000000" d="m471.45248 345.85675q0 -2.359375 0.484375 -3.796875q0.484375 -1.453125 1.4375 -2.234375q0.96875 -0.78125 2.421875 -0.78125q1.078125 0 1.890625 0.4375q0.8125 0.421875 1.328125 1.25q0.53125 0.8125 0.828125 1.984375q0.3125 1.15625 0.3125 3.140625q0 2.359375 -0.484375 3.8125q-0.484375 1.4375 -1.453125 2.234375q-0.953125 0.78125 -2.421875 0.78125q-1.921875 0 -3.03125 -1.390625q-1.3125 -1.671875 -1.3125 -5.4375zm1.671875 0q0 3.296875 0.765625 4.390625q0.78125 1.078125 1.90625 1.078125q1.140625 0 1.90625 -1.09375q0.765625 -1.09375 0.765625 -4.375q0 -3.296875 -0.765625 -4.375q-0.765625 -1.078125 -1.921875 -1.078125q-1.125 0 -1.796875 0.953125q-0.859375 1.21875 -0.859375 4.5z" fill-rule="nonzero"/><path fill="#ffffff" d="m567.9821 320.19122l48.252014 0l0 50.677185l-48.252014 0z" fill-rule="evenodd"/><path stroke="#000000" stroke-width="1.0" stroke-linejoin="round" stroke-linecap="butt" d="m567.9821 320.19122l48.252014 0l0 50.677185l-48.252014 0z" fill-rule="evenodd"/><path fill="#000000" d="m593.8734 352.4498l-1.640625 0l0 -10.453125q-0.59375 0.5625 -1.5625 1.140625q-0.953125 0.5625 -1.71875 0.84375l0 -1.59375q1.375 -0.640625 2.40625 -1.5625q1.03125 -0.921875 1.453125 -1.78125l1.0625 0l0 13.40625z" fill-rule="nonzero"/><path fill="#ffffff" d="m683.23816 320.19122l48.251953 0l0 50.677185l-48.251953 0z" fill-rule="evenodd"/><path stroke="#000000" stroke-width="1.0" stroke-linejoin="round" stroke-linecap="butt" d="m683.23816 320.19122l48.251953 0l0 50.677185l-48.251953 0z" fill-rule="evenodd"/><path fill="#000000" d="m711.5669 350.87167l0 1.578125l-8.828125 0q-0.015625 -0.59375 0.1875 -1.140625q0.34375 -0.90625 1.078125 -1.78125q0.75 -0.875 2.15625 -2.015625q2.171875 -1.78125 2.9375 -2.828125q0.765625 -1.046875 0.765625 -1.96875q0 -0.984375 -0.703125 -1.640625q-0.6875 -0.671875 -1.8125 -0.671875q-1.1875 0 -1.90625 0.71875q-0.703125 0.703125 -0.703125 1.953125l-1.6875 -0.171875q0.171875 -1.890625 1.296875 -2.875q1.140625 -0.984375 3.03125 -0.984375q1.921875 0 3.046875 1.0625q1.125 1.0625 1.125 2.640625q0 0.796875 -0.328125 1.578125q-0.328125 0.78125 -1.09375 1.640625q-0.75 0.84375 -2.53125 2.34375q-1.46875 1.234375 -1.890625 1.6875q-0.421875 0.4375 -0.6875 0.875l6.546875 0z" fill-rule="nonzero"/><path fill="#ffffff" d="m911.73346 320.19116l48.251953 0l0 50.677185l-48.251953 0z" fill-rule="evenodd"/><path stroke="#000000" stroke-width="1.0" stroke-linejoin="round" stroke-linecap="butt" d="m911.73346 320.19116l48.251953 0l0 50.677185l-48.251953 0z" fill-rule="evenodd"/><path fill="#000000" d="m930.997 352.44977l0 -13.359375l1.78125 0l0 6.625l6.625 -6.625l2.390625 0l-5.59375 5.421875l5.84375 7.9375l-2.328125 0l-4.765625 -6.765625l-2.171875 2.140625l0 4.625l-1.78125 0z" fill-rule="nonzero"/><path fill="#ffffff" d="m45.774277 320.19193l48.25197 0l0 50.677185l-48.25197 0z" fill-rule="evenodd"/><path stroke="#000000" stroke-width="1.0" stroke-linejoin="round" stroke-linecap="butt" d="m45.774277 320.19193l48.25197 0l0 50.677185l-48.25197 0z" fill-rule="evenodd"/><path fill="#000000" d="m65.49365 345.85675q0 -2.359375 0.484375 -3.796875q0.484375 -1.453125 1.4375 -2.234375q0.96875 -0.78125 2.421875 -0.78125q1.078125 0 1.890625 0.4375q0.8125 0.421875 1.328125 1.25q0.53125 0.8125 0.828125 1.984375q0.3125 1.15625 0.3125 3.140625q0 2.359375 -0.484375 3.8125q-0.484375 1.4375 -1.453125 2.234375q-0.953125 0.78125 -2.421875 0.78125q-1.921875 0 -3.03125 -1.390625q-1.3125 -1.671875 -1.3125 -5.4375zm1.671875 0q0 3.296875 0.765625 4.390625q0.78125 1.078125 1.90625 1.078125q1.140625 0 1.90625 -1.09375q0.765625 -1.09375 0.765625 -4.375q0 -3.296875 -0.765625 -4.375q-0.765625 -1.078125 -1.921875 -1.078125q-1.125 0 -1.796875 0.953125q-0.859375 1.21875 -0.859375 4.5z" fill-rule="nonzero"/><path fill="#ffffff" d="m261.67258 320.19122l48.251984 0l0 50.677185l-48.251984 0z" fill-rule="evenodd"/><path stroke="#000000" stroke-width="1.0" stroke-linejoin="round" stroke-linecap="butt" d="m261.67258 320.19122l48.251984 0l0 50.677185l-48.251984 0z" fill-rule="evenodd"/><path fill="#000000" d="m287.56384 352.4498l-1.640625 0l0 -10.453125q-0.59375 0.5625 -1.5625 1.140625q-0.953125 0.5625 -1.71875 0.84375l0 -1.59375q1.375 -0.640625 2.40625 -1.5625q1.03125 -0.921875 1.453125 -1.78125l1.0625 0l0 13.40625z" fill-rule="nonzero"/><path fill="#000000" fill-opacity="0.0" d="m70.803505 436.40683l214.80316 0" fill-rule="evenodd"/><path stroke="#595959" stroke-width="1.0" stroke-linejoin="round" stroke-linecap="butt" d="m70.803505 436.40683l214.80316 0" fill-rule="evenodd"/><path fill="#000000" fill-opacity="0.0" d="m69.90026 320.19193l0.25196838 -73.82677" fill-rule="evenodd"/><path stroke="#595959" stroke-width="1.0" stroke-linejoin="round" stroke-linecap="butt" d="m69.90026 320.19193l0.25196838 -73.82677" fill-rule="evenodd"/><path fill="#000000" fill-opacity="0.0" d="m69.51401 246.34587l152.88188 0" fill-rule="evenodd"/><path stroke="#595959" stroke-width="1.0" stroke-linejoin="round" stroke-linecap="butt" d="m69.51401 246.34587l152.88188 0" fill-rule="evenodd"/><path fill="#000000" fill-opacity="0.0" d="m221.501 246.60263l0 -0.2561798l64.09448 0l0 74.08296" fill-rule="evenodd"/><path stroke="#595959" stroke-width="1.0" stroke-linejoin="round" stroke-linecap="butt" d="m221.501 246.60263l0 -0.2561798l64.09448 0l0 68.08296" fill-rule="evenodd"/><path fill="#595959" stroke="#595959" stroke-width="1.0" stroke-linecap="butt" d="m283.94376 314.4294l1.6517334 4.538086l1.6517334 -4.538086z" fill-rule="evenodd"/><path fill="#000000" fill-opacity="0.0" d="m69.90026 370.8691l0.9133911 65.51181" fill-rule="evenodd"/><path stroke="#595959" stroke-width="1.0" stroke-linejoin="round" stroke-linecap="butt" d="m69.98391 376.86853l0.82974243 59.51239" fill-rule="evenodd"/><path fill="#595959" stroke="#595959" stroke-width="1.0" stroke-linecap="butt" d="m71.63548 376.8455l-1.7148438 -4.5146484l-1.5883026 4.5606995z" fill-rule="evenodd"/><path fill="#000000" fill-opacity="0.0" d="m285.6096 435.6243l0.18899536 -64.75589" fill-rule="evenodd"/><path stroke="#595959" stroke-width="1.0" stroke-linejoin="round" stroke-linecap="butt" d="m285.6096 435.6243l0.18899536 -64.75589" fill-rule="evenodd"/><path fill="#ffffff" d="m797.5274 320.19116l48.251953 0l0 50.677185l-48.251953 0z" fill-rule="evenodd"/><path stroke="#000000" stroke-width="1.0" stroke-linejoin="round" stroke-linecap="butt" d="m797.5274 320.19116l48.251953 0l0 50.677185l-48.251953 0z" fill-rule="evenodd"/><path fill="#000000" d="m808.6993 347.11118l0 -1.875l1.875 0l0 1.875l-1.875 0zm6.234375 0l0 -1.875l1.859375 0l0 1.875l-1.859375 0zm6.203125 0l0 -1.875l1.875 0l0 1.875l-1.875 0z" fill-rule="nonzero"/><path fill="#000000" fill-opacity="0.0" d="m731.4901 345.52982l66.04724 0" fill-rule="evenodd"/><path stroke="#595959" stroke-width="1.0" stroke-linejoin="round" stroke-linecap="butt" stroke-dasharray="1.0,3.0" d="m731.49005 345.52982l60.04724 0" fill-rule="evenodd"/><path fill="#595959" stroke="#595959" stroke-width="1.0" stroke-linecap="butt" d="m791.5373 347.18155l4.538147 -1.6517334l-4.538147 -1.6517334z" fill-rule="evenodd"/><path fill="#000000" fill-opacity="0.0" d="m847.66986 345.53644l64.15747 0" fill-rule="evenodd"/><path stroke="#595959" stroke-width="1.0" stroke-linejoin="round" stroke-linecap="butt" stroke-dasharray="1.0,3.0" d="m847.66986 345.53647l58.15747 0" fill-rule="evenodd"/><path fill="#595959" stroke="#595959" stroke-width="1.0" stroke-linecap="butt" d="m905.82733 347.1882l4.538086 -1.6517334l-4.538086 -1.6517334z" fill-rule="evenodd"/><path fill="#000000" fill-opacity="0.0" d="m617.0322 345.53644l66.04724 0" fill-rule="evenodd"/><path stroke="#595959" stroke-width="1.0" stroke-linejoin="round" stroke-linecap="butt" d="m617.0322 345.53647l60.04724 0" fill-rule="evenodd"/><path fill="#595959" stroke="#595959" stroke-width="1.0" stroke-linecap="butt" d="m677.07947 347.1882l4.538086 -1.6517334l-4.538086 -1.6517334z" fill-rule="evenodd"/><path fill="#000000" fill-opacity="0.0" d="m502.22083 345.53644l66.04724 0" fill-rule="evenodd"/><path stroke="#595959" stroke-width="1.0" stroke-linejoin="round" stroke-linecap="butt" d="m502.22086 345.53647l60.04721 0" fill-rule="evenodd"/><path fill="#595959" stroke="#595959" stroke-width="1.0" stroke-linecap="butt" d="m562.26807 347.1882l4.538147 -1.6517334l-4.538147 -1.6517334z" fill-rule="evenodd"/><path fill="#000000" fill-opacity="0.0" d="m81.122665 139.48557l204.47246 0l0 45.07086l-204.47246 0z" fill-rule="evenodd"/><path fill="#595959" d="m137.45068 164.62975l2.28125 0.578125q-0.71875 2.796875 -2.578125 4.28125q-1.859375 1.46875 -4.546875 1.46875q-2.765625 0 -4.515625 -1.125q-1.734375 -1.140625 -2.640625 -3.28125q-0.90625 -2.15625 -0.90625 -4.609375q0 -2.6875 1.015625 -4.6875q1.03125 -2.0 2.921875 -3.03125q1.890625 -1.03125 4.171875 -1.03125q2.578125 0 4.328125 1.3125q1.765625 1.3125 2.453125 3.6875l-2.234375 0.53125q-0.609375 -1.875 -1.75 -2.734375q-1.125 -0.859375 -2.84375 -0.859375q-1.984375 0 -3.3125 0.953125q-1.328125 0.953125 -1.875 2.546875q-0.53125 1.59375 -0.53125 3.296875q0 2.1875 0.625 3.828125q0.640625 1.640625 1.984375 2.453125q1.359375 0.796875 2.921875 0.796875q1.921875 0 3.234375 -1.09375q1.328125 -1.109375 1.796875 -3.28125zm4.7539062 6.03125l0 -17.1875l2.109375 0l0 17.1875l-2.109375 0zm4.5976562 -6.21875q0 -3.46875 1.921875 -5.125q1.609375 -1.390625 3.921875 -1.390625q2.5625 0 4.1875 1.6875q1.625 1.6875 1.625 4.640625q0 2.40625 -0.71875 3.78125q-0.71875 1.375 -2.09375 2.140625q-1.375 0.765625 -3.0 0.765625q-2.625 0 -4.234375 -1.671875q-1.609375 -1.6875 -1.609375 -4.828125zm2.171875 0q0 2.390625 1.03125 3.578125q1.046875 1.1875 2.640625 1.1875q1.5625 0 2.609375 -1.1875q1.046875 -1.203125 1.046875 -3.65625q0 -2.3125 -1.0625 -3.5q-1.046875 -1.1875 -2.59375 -1.1875q-1.59375 0 -2.640625 1.1875q-1.03125 1.1875 -1.03125 3.578125zm20.082031 1.65625l2.078125 0.265625q-0.34375 2.15625 -1.75 3.375q-1.390625 1.203125 -3.4375 1.203125q-2.546875 0 -4.109375 -1.671875q-1.546875 -1.671875 -1.546875 -4.78125q0 -2.015625 0.671875 -3.53125q0.671875 -1.515625 2.03125 -2.265625q1.359375 -0.765625 2.96875 -0.765625q2.03125 0 3.3125 1.03125q1.296875 1.03125 1.65625 2.90625l-2.046875 0.328125q-0.296875 -1.265625 -1.046875 -1.890625q-0.734375 -0.640625 -1.796875 -0.640625q-1.59375 0 -2.59375 1.15625q-0.984375 1.140625 -0.984375 3.609375q0 2.5 0.953125 3.640625q0.96875 1.140625 2.515625 1.140625q1.234375 0 2.0625 -0.765625q0.84375 -0.765625 1.0625 -2.34375zm3.890625 4.5625l0 -17.1875l2.109375 0l0 9.796875l5.0 -5.0625l2.71875 0l-4.75 4.625l5.234375 7.828125l-2.59375 0l-4.125 -6.359375l-1.484375 1.421875l0 4.9375l-2.109375 0zm18.636719 0l0 -12.453125l1.890625 0l0 1.890625q0.734375 -1.328125 1.34375 -1.75q0.625 -0.421875 1.359375 -0.421875q1.0625 0 2.171875 0.6875l-0.734375 1.953125q-0.765625 -0.453125 -1.546875 -0.453125q-0.6875 0 -1.25 0.421875q-0.546875 0.40625 -0.78125 1.140625q-0.34375 1.125 -0.34375 2.46875l0 6.515625l-2.109375 0zm16.539062 -4.015625l2.171875 0.28125q-0.515625 1.90625 -1.90625 2.96875q-1.390625 1.046875 -3.5625 1.046875q-2.734375 0 -4.34375 -1.671875q-1.59375 -1.6875 -1.59375 -4.734375q0 -3.140625 1.609375 -4.875q1.625 -1.734375 4.203125 -1.734375q2.5 0 4.078125 1.703125q1.59375 1.703125 1.59375 4.78125q0 0.1875 -0.015625 0.5625l-9.28125 0q0.109375 2.046875 1.15625 3.140625q1.046875 1.09375 2.609375 1.09375q1.15625 0 1.96875 -0.609375q0.828125 -0.609375 1.3125 -1.953125zm-6.9375 -3.40625l6.953125 0q-0.140625 -1.5625 -0.796875 -2.359375q-1.0 -1.21875 -2.609375 -1.21875q-1.453125 0 -2.453125 0.984375q-0.984375 0.96875 -1.09375 2.59375zm10.910156 3.703125l2.09375 -0.328125q0.171875 1.25 0.96875 1.921875q0.8125 0.671875 2.25 0.671875q1.453125 0 2.15625 -0.59375q0.703125 -0.59375 0.703125 -1.390625q0 -0.71875 -0.625 -1.125q-0.421875 -0.28125 -2.15625 -0.71875q-2.3125 -0.578125 -3.21875 -1.0q-0.890625 -0.4375 -1.359375 -1.1875q-0.453125 -0.765625 -0.453125 -1.671875q0 -0.828125 0.375 -1.53125q0.390625 -0.71875 1.046875 -1.1875q0.484375 -0.359375 1.328125 -0.609375q0.859375 -0.265625 1.828125 -0.265625q1.46875 0 2.578125 0.421875q1.109375 0.421875 1.625 1.15625q0.53125 0.71875 0.734375 1.921875l-2.0625 0.28125q-0.140625 -0.96875 -0.8125 -1.5q-0.671875 -0.546875 -1.90625 -0.546875q-1.453125 0 -2.078125 0.484375q-0.625 0.484375 -0.625 1.125q0 0.40625 0.265625 0.734375q0.25 0.34375 0.8125 0.5625q0.3125 0.125 1.859375 0.546875q2.234375 0.59375 3.109375 0.984375q0.890625 0.375 1.390625 1.109375q0.515625 0.71875 0.515625 1.796875q0 1.046875 -0.625 1.984375q-0.609375 0.9375 -1.765625 1.453125q-1.15625 0.5 -2.625 0.5q-2.421875 0 -3.703125 -1.0q-1.265625 -1.015625 -1.625 -3.0zm21.375 -0.296875l2.171875 0.28125q-0.515625 1.90625 -1.90625 2.96875q-1.390625 1.046875 -3.5625 1.046875q-2.734375 0 -4.34375 -1.671875q-1.59375 -1.6875 -1.59375 -4.734375q0 -3.140625 1.609375 -4.875q1.625 -1.734375 4.203125 -1.734375q2.5 0 4.078125 1.703125q1.59375 1.703125 1.59375 4.78125q0 0.1875 -0.015625 0.5625l-9.28125 0q0.109375 2.046875 1.15625 3.140625q1.046875 1.09375 2.609375 1.09375q1.15625 0 1.96875 -0.609375q0.828125 -0.609375 1.3125 -1.953125zm-6.9375 -3.40625l6.953125 0q-0.140625 -1.5625 -0.796875 -2.359375q-1.0 -1.21875 -2.609375 -1.21875q-1.453125 0 -2.453125 0.984375q-0.984375 0.96875 -1.09375 2.59375zm16.363281 5.53125l0.3125 1.859375q-0.890625 0.203125 -1.59375 0.203125q-1.15625 0 -1.796875 -0.359375q-0.625 -0.375 -0.890625 -0.96875q-0.25 -0.59375 -0.25 -2.484375l0 -7.171875l-1.546875 0l0 -1.640625l1.546875 0l0 -3.078125l2.09375 -1.265625l0 4.34375l2.125 0l0 1.640625l-2.125 0l0 7.28125q0 0.90625 0.109375 1.171875q0.125 0.25 0.375 0.40625q0.25 0.140625 0.71875 0.140625q0.34375 0 0.921875 -0.078125z" fill-rule="nonzero"/><path fill="#000000" fill-opacity="0.0" d="m605.1259 150.18137l204.47247 0l0 45.07086l-204.47247 0z" fill-rule="evenodd"/><path fill="#595959" d="m648.118 175.32555l2.28125 0.578125q-0.71875 2.796875 -2.578125 4.28125q-1.859375 1.46875 -4.546875 1.46875q-2.765625 0 -4.515625 -1.125q-1.734375 -1.140625 -2.640625 -3.28125q-0.90625 -2.15625 -0.90625 -4.609375q0 -2.6875 1.015625 -4.6875q1.03125 -2.0 2.921875 -3.03125q1.890625 -1.03125 4.171875 -1.03125q2.578125 0 4.328125 1.3125q1.765625 1.3125 2.453125 3.6875l-2.234375 0.53125q-0.609375 -1.875 -1.75 -2.734375q-1.125 -0.859375 -2.84375 -0.859375q-1.984375 0 -3.3125 0.953125q-1.328125 0.953125 -1.875 2.546875q-0.53125 1.59375 -0.53125 3.296875q0 2.1875 0.625 3.828125q0.640625 1.640625 1.984375 2.453125q1.359375 0.796875 2.921875 0.796875q1.921875 0 3.234375 -1.09375q1.328125 -1.109375 1.796875 -3.28125zm4.7539062 6.03125l0 -17.1875l2.109375 0l0 17.1875l-2.109375 0zm4.5976562 -6.21875q0 -3.46875 1.921875 -5.125q1.609375 -1.390625 3.921875 -1.390625q2.5625 0 4.1875 1.6875q1.625 1.6875 1.625 4.640625q0 2.40625 -0.71875 3.78125q-0.71875 1.375 -2.09375 2.140625q-1.375 0.765625 -3.0 0.765625q-2.625 0 -4.234375 -1.671875q-1.609375 -1.6875 -1.609375 -4.828125zm2.171875 0q0 2.390625 1.03125 3.578125q1.046875 1.1875 2.640625 1.1875q1.5625 0 2.609375 -1.1875q1.046875 -1.203125 1.046875 -3.65625q0 -2.3125 -1.0625 -3.5q-1.046875 -1.1875 -2.59375 -1.1875q-1.59375 0 -2.640625 1.1875q-1.03125 1.1875 -1.03125 3.578125zm20.082031 1.65625l2.078125 0.265625q-0.34375 2.15625 -1.75 3.375q-1.390625 1.203125 -3.4375 1.203125q-2.546875 0 -4.109375 -1.671875q-1.546875 -1.671875 -1.546875 -4.78125q0 -2.015625 0.671875 -3.53125q0.671875 -1.515625 2.03125 -2.265625q1.359375 -0.765625 2.96875 -0.765625q2.03125 0 3.3125 1.03125q1.296875 1.03125 1.65625 2.90625l-2.046875 0.328125q-0.296875 -1.265625 -1.046875 -1.890625q-0.734375 -0.640625 -1.796875 -0.640625q-1.59375 0 -2.59375 1.15625q-0.984375 1.140625 -0.984375 3.609375q0 2.5 0.953125 3.640625q0.96875 1.140625 2.515625 1.140625q1.234375 0 2.0625 -0.765625q0.84375 -0.765625 1.0625 -2.34375zm3.890625 4.5625l0 -17.1875l2.109375 0l0 9.796875l5.0 -5.0625l2.71875 0l-4.75 4.625l5.234375 7.828125l-2.59375 0l-4.125 -6.359375l-1.484375 1.421875l0 4.9375l-2.109375 0zm19.167969 0l0 -10.8125l-1.875 0l0 -1.640625l1.875 0l0 -1.3125q0 -1.265625 0.21875 -1.875q0.296875 -0.8125 1.0625 -1.3125q0.78125 -0.515625 2.15625 -0.515625q0.890625 0 1.96875 0.203125l-0.3125 1.84375q-0.65625 -0.125 -1.25 -0.125q-0.953125 0 -1.359375 0.421875q-0.390625 0.40625 -0.390625 1.53125l0 1.140625l2.421875 0l0 1.640625l-2.421875 0l0 10.8125l-2.09375 0zm5.3710938 -6.21875q0 -3.46875 1.921875 -5.125q1.609375 -1.390625 3.921875 -1.390625q2.5625 0 4.1875 1.6875q1.625 1.6875 1.625 4.640625q0 2.40625 -0.71875 3.78125q-0.71875 1.375 -2.09375 2.140625q-1.375 0.765625 -3.0 0.765625q-2.625 0 -4.234375 -1.671875q-1.609375 -1.6875 -1.609375 -4.828125zm2.171875 0q0 2.390625 1.03125 3.578125q1.046875 1.1875 2.640625 1.1875q1.5625 0 2.609375 -1.1875q1.046875 -1.203125 1.046875 -3.65625q0 -2.3125 -1.0625 -3.5q-1.046875 -1.1875 -2.59375 -1.1875q-1.59375 0 -2.640625 1.1875q-1.03125 1.1875 -1.03125 3.578125zm11.941406 6.21875l0 -12.453125l1.890625 0l0 1.890625q0.734375 -1.328125 1.34375 -1.75q0.625 -0.421875 1.359375 -0.421875q1.0625 0 2.171875 0.6875l-0.734375 1.953125q-0.765625 -0.453125 -1.546875 -0.453125q-0.6875 0 -1.25 0.421875q-0.546875 0.40625 -0.78125 1.140625q-0.34375 1.125 -0.34375 2.46875l0 6.515625l-2.109375 0zm10.3046875 0l-3.796875 -12.453125l2.171875 0l1.984375 7.1875l0.734375 2.671875q0.046875 -0.203125 0.640625 -2.5625l1.984375 -7.296875l2.171875 0l1.859375 7.21875l0.625 2.390625l0.71875 -2.40625l2.125 -7.203125l2.046875 0l-3.890625 12.453125l-2.1875 0l-1.984375 -7.453125l-0.46875 -2.125l-2.53125 9.578125l-2.203125 0zm23.160156 -1.53125q-1.171875 0.984375 -2.265625 1.40625q-1.078125 0.40625 -2.3125 0.40625q-2.046875 0 -3.15625 -1.0q-1.09375 -1.0 -1.09375 -2.5625q0 -0.921875 0.40625 -1.671875q0.421875 -0.75 1.09375 -1.203125q0.671875 -0.46875 1.515625 -0.703125q0.625 -0.15625 1.875 -0.3125q2.5625 -0.3125 3.765625 -0.734375q0.015625 -0.421875 0.015625 -0.546875q0 -1.28125 -0.609375 -1.8125q-0.796875 -0.71875 -2.390625 -0.71875q-1.5 0 -2.203125 0.53125q-0.703125 0.515625 -1.046875 1.84375l-2.0625 -0.28125q0.28125 -1.328125 0.921875 -2.140625q0.640625 -0.8125 1.859375 -1.25q1.21875 -0.453125 2.828125 -0.453125q1.59375 0 2.59375 0.375q1.0 0.375 1.46875 0.953125q0.46875 0.5625 0.65625 1.4375q0.09375 0.53125 0.09375 1.9375l0 2.8125q0 2.9375 0.140625 3.71875q0.140625 0.78125 0.53125 1.5l-2.203125 0q-0.328125 -0.65625 -0.421875 -1.53125zm-0.171875 -4.71875q-1.15625 0.46875 -3.453125 0.796875q-1.296875 0.1875 -1.84375 0.421875q-0.53125 0.234375 -0.828125 0.6875q-0.28125 0.453125 -0.28125 1.0q0 0.84375 0.625 1.40625q0.640625 0.5625 1.875 0.5625q1.21875 0 2.171875 -0.53125q0.953125 -0.53125 1.390625 -1.453125q0.34375 -0.71875 0.34375 -2.109375l0 -0.78125zm5.3789062 6.25l0 -12.453125l1.890625 0l0 1.890625q0.734375 -1.328125 1.34375 -1.75q0.625 -0.421875 1.359375 -0.421875q1.0625 0 2.171875 0.6875l-0.734375 1.953125q-0.765625 -0.453125 -1.546875 -0.453125q-0.6875 0 -1.25 0.421875q-0.546875 0.40625 -0.78125 1.140625q-0.34375 1.125 -0.34375 2.46875l0 6.515625l-2.109375 0zm16.085938 0l0 -1.578125q-1.1875 1.859375 -3.484375 1.859375q-1.484375 0 -2.734375 -0.8125q-1.25 -0.828125 -1.9375 -2.296875q-0.671875 -1.46875 -0.671875 -3.390625q0 -1.859375 0.609375 -3.375q0.625 -1.515625 1.859375 -2.328125q1.25 -0.8125 2.78125 -0.8125q1.125 0 2.0 0.484375q0.890625 0.46875 1.4375 1.234375l0 -6.171875l2.09375 0l0 17.1875l-1.953125 0zm-6.671875 -6.21875q0 2.390625 1.0 3.578125q1.015625 1.1875 2.390625 1.1875q1.390625 0 2.34375 -1.125q0.96875 -1.140625 0.96875 -3.453125q0 -2.5625 -0.984375 -3.75q-0.984375 -1.203125 -2.421875 -1.203125q-1.40625 0 -2.359375 1.15625q-0.9375 1.140625 -0.9375 3.609375z" fill-rule="nonzero"/></g></svg>