<svg xmlns="http://www.w3.org/2000/svg" viewBox="0 0 1820 920" width="1820" height="920" font-family="DejaVu Sans">
  <defs>
    <filter id="ds" x="-20%" y="-20%" width="140%" height="140%">
      <feDropShadow dx="0" dy="2" stdDeviation="2.2" flood-opacity="0.18"/>
    </filter>
  </defs>

  <!-- Vertical lane separators at the midpoint between adjacent elements. -->
  <line x1="335"    y1="40" x2="335"    y2="910" stroke="#E1E5EC" stroke-width="1.2" stroke-dasharray="6 6"/>
  <line x1="717.5"  y1="40" x2="717.5"  y2="910" stroke="#E1E5EC" stroke-width="1.2" stroke-dasharray="6 6"/>
  <line x1="1152.5" y1="40" x2="1152.5" y2="910" stroke="#E1E5EC" stroke-width="1.2" stroke-dasharray="6 6"/>

  <!-- Step headers (only Steps 1, 2, 3 — original data sits unlabeled at left) -->
  <text x="520"  y="60" text-anchor="middle" font-size="32" font-weight="700" fill="#2E3440">Step 1</text>
  <text x="520"  y="98" text-anchor="middle" font-size="27" font-style="italic" fill="#2E3440">split by cause</text>
  <text x="930"  y="60" text-anchor="middle" font-size="32" font-weight="700" fill="#2E3440">Step 2</text>
  <text x="930"  y="98" text-anchor="middle" font-size="27" font-style="italic" fill="#2E3440">fit one model per cause</text>
  <text x="1510" y="60" text-anchor="middle" font-size="32" font-weight="700" fill="#2E3440">Step 3</text>
  <text x="1510" y="98" text-anchor="middle" font-size="27" font-style="italic" fill="#2E3440">combine</text>

  <!-- ===== Original CR data (unlabeled, on the left) ===== -->
  <text x="150" y="416" text-anchor="middle" font-size="26" font-weight="600" fill="#2E3440">Original CR data</text>
  <g filter="url(#ds)">
    <rect x="20"  y="430" width="260" height="48" fill="#F0F2F5" stroke="#A5ACBA" stroke-width="0.8"/>
    <rect x="20"  y="478" width="260" height="44" fill="#FFFFFF" stroke="#A5ACBA" stroke-width="0.8"/>
    <rect x="20"  y="522" width="260" height="44" fill="#FFFFFF" stroke="#A5ACBA" stroke-width="0.8"/>
    <rect x="20"  y="566" width="260" height="44" fill="#FFFFFF" stroke="#A5ACBA" stroke-width="0.8"/>
    <rect x="20"  y="430" width="260" height="180" fill="none" stroke="#A5ACBA" stroke-width="1.2"/>
  </g>
  <text x="60"  y="462" text-anchor="middle" font-size="28" font-style="italic" fill="#2E3440">t</text>
  <text x="150" y="462" text-anchor="middle" font-size="28" font-style="italic" fill="#2E3440">x</text>
  <text x="240" y="462" text-anchor="middle" font-size="28" font-style="italic" fill="#2E3440">q</text>
  <text x="60"  y="507" text-anchor="middle" font-size="28" fill="#2E3440">3</text>
  <text x="150" y="507" text-anchor="middle" font-size="28" fill="#2E3440">x₁</text>
  <text x="240" y="507" text-anchor="middle" font-size="28" fill="#2E3440">1</text>
  <text x="60"  y="551" text-anchor="middle" font-size="28" fill="#2E3440">4</text>
  <text x="150" y="551" text-anchor="middle" font-size="28" fill="#2E3440">x₂</text>
  <text x="240" y="551" text-anchor="middle" font-size="28" fill="#2E3440">2</text>
  <text x="60"  y="595" text-anchor="middle" font-size="28" fill="#2E3440">2</text>
  <text x="150" y="595" text-anchor="middle" font-size="28" fill="#2E3440">x₃</text>
  <text x="240" y="595" text-anchor="middle" font-size="28" fill="#2E3440">0</text>

  <!-- ===== Step 1: Cause-1 dataset (top) ===== -->
  <text x="520" y="216" text-anchor="middle" font-size="26" font-weight="600" fill="#2E3440">Cause-1 dataset</text>
  <g filter="url(#ds)">
    <rect x="390" y="230" width="260" height="48" fill="#F0F2F5" stroke="#A5ACBA" stroke-width="0.8"/>
    <rect x="390" y="278" width="260" height="44" fill="#FFFFFF" stroke="#A5ACBA" stroke-width="0.8"/>
    <rect x="390" y="322" width="260" height="44" fill="#FFFFFF" stroke="#A5ACBA" stroke-width="0.8"/>
    <rect x="390" y="366" width="260" height="44" fill="#FFFFFF" stroke="#A5ACBA" stroke-width="0.8"/>
    <!-- δ₁ column: per-row highlight rects so horizontal separators show through -->
    <rect x="570" y="278" width="80" height="44" fill="#DAE7F4" stroke="#A5ACBA" stroke-width="0.8"/>
    <rect x="570" y="322" width="80" height="44" fill="#DAE7F4" stroke="#A5ACBA" stroke-width="0.8"/>
    <rect x="570" y="366" width="80" height="44" fill="#DAE7F4" stroke="#A5ACBA" stroke-width="0.8"/>
    <rect x="390" y="230" width="260" height="180" fill="none" stroke="#A5ACBA" stroke-width="1.2"/>
  </g>
  <text x="430" y="262" text-anchor="middle" font-size="28" font-style="italic" fill="#2E3440">t</text>
  <text x="520" y="262" text-anchor="middle" font-size="28" font-style="italic" fill="#2E3440">x</text>
  <text x="610" y="262" text-anchor="middle" font-size="28" font-style="italic" fill="#2E3440">δ₁</text>
  <text x="430" y="307" text-anchor="middle" font-size="28" fill="#2E3440">3</text>
  <text x="520" y="307" text-anchor="middle" font-size="28" fill="#2E3440">x₁</text>
  <text x="610" y="307" text-anchor="middle" font-size="28" fill="#2E3440">1</text>
  <text x="430" y="351" text-anchor="middle" font-size="28" fill="#2E3440">4</text>
  <text x="520" y="351" text-anchor="middle" font-size="28" fill="#2E3440">x₂</text>
  <text x="610" y="351" text-anchor="middle" font-size="28" fill="#2E3440">0</text>
  <text x="430" y="395" text-anchor="middle" font-size="28" fill="#2E3440">2</text>
  <text x="520" y="395" text-anchor="middle" font-size="28" fill="#2E3440">x₃</text>
  <text x="610" y="395" text-anchor="middle" font-size="28" fill="#2E3440">0</text>

  <!-- ===== Step 1: Cause-2 dataset (bottom) ===== -->
  <text x="520" y="616" text-anchor="middle" font-size="26" font-weight="600" fill="#2E3440">Cause-2 dataset</text>
  <g filter="url(#ds)">
    <rect x="390" y="630" width="260" height="48" fill="#F0F2F5" stroke="#A5ACBA" stroke-width="0.8"/>
    <rect x="390" y="678" width="260" height="44" fill="#FFFFFF" stroke="#A5ACBA" stroke-width="0.8"/>
    <rect x="390" y="722" width="260" height="44" fill="#FFFFFF" stroke="#A5ACBA" stroke-width="0.8"/>
    <rect x="390" y="766" width="260" height="44" fill="#FFFFFF" stroke="#A5ACBA" stroke-width="0.8"/>
    <rect x="570" y="678" width="80" height="44" fill="#FAE2D0" stroke="#A5ACBA" stroke-width="0.8"/>
    <rect x="570" y="722" width="80" height="44" fill="#FAE2D0" stroke="#A5ACBA" stroke-width="0.8"/>
    <rect x="570" y="766" width="80" height="44" fill="#FAE2D0" stroke="#A5ACBA" stroke-width="0.8"/>
    <rect x="390" y="630" width="260" height="180" fill="none" stroke="#A5ACBA" stroke-width="1.2"/>
  </g>
  <text x="430" y="662" text-anchor="middle" font-size="28" font-style="italic" fill="#2E3440">t</text>
  <text x="520" y="662" text-anchor="middle" font-size="28" font-style="italic" fill="#2E3440">x</text>
  <text x="610" y="662" text-anchor="middle" font-size="28" font-style="italic" fill="#2E3440">δ₂</text>
  <text x="430" y="707" text-anchor="middle" font-size="28" fill="#2E3440">3</text>
  <text x="520" y="707" text-anchor="middle" font-size="28" fill="#2E3440">x₁</text>
  <text x="610" y="707" text-anchor="middle" font-size="28" fill="#2E3440">0</text>
  <text x="430" y="751" text-anchor="middle" font-size="28" fill="#2E3440">4</text>
  <text x="520" y="751" text-anchor="middle" font-size="28" fill="#2E3440">x₂</text>
  <text x="610" y="751" text-anchor="middle" font-size="28" fill="#2E3440">1</text>
  <text x="430" y="795" text-anchor="middle" font-size="28" fill="#2E3440">2</text>
  <text x="520" y="795" text-anchor="middle" font-size="28" fill="#2E3440">x₃</text>
  <text x="610" y="795" text-anchor="middle" font-size="28" fill="#2E3440">0</text>

  <!-- ===== Step 2: Cause-1 model (top) ===== -->
  <g filter="url(#ds)">
    <rect x="785" y="240" width="290" height="160" rx="10" ry="10" fill="#C8DCF0" stroke="#A5ACBA" stroke-width="1.2"/>
  </g>
  <text x="930" y="272" text-anchor="middle" font-size="26" font-weight="600" fill="#2E3440">Cause-1 model</text>
  <text x="930" y="335" text-anchor="middle" font-size="29" fill="#2E3440">ĥ₁(τ | x)</text>

  <!-- ===== Step 2: Cause-2 model (bottom) ===== -->
  <g filter="url(#ds)">
    <rect x="785" y="640" width="290" height="160" rx="10" ry="10" fill="#F5CDB5" stroke="#A5ACBA" stroke-width="1.2"/>
  </g>
  <text x="930" y="672" text-anchor="middle" font-size="26" font-weight="600" fill="#2E3440">Cause-2 model</text>
  <text x="930" y="735" text-anchor="middle" font-size="29" fill="#2E3440">ĥ₂(τ | x)</text>

  <!-- ===== Step 3: Combined quantities ===== -->
  <g filter="url(#ds)">
    <rect x="1230" y="340" width="560" height="360" rx="10" ry="10" fill="#D4EBD8" stroke="#A5ACBA" stroke-width="1.2"/>
  </g>
  <text x="1510" y="376" text-anchor="middle" font-size="26" font-weight="600" fill="#2E3440">Combined quantities</text>
  <text x="1510" y="485" text-anchor="middle" font-size="29" fill="#2E3440">Ŝ(τ | x) = exp(−Σ_q Ĥ_q(τ | x))</text>
  <text x="1510" y="575" text-anchor="middle" font-size="29" fill="#2E3440">F̂_q(τ | x) = ∫ Ŝ(u⁻| x) ĥ_q(u | x) du</text>

  <!-- ===== Arrows — line endpoint = arrowhead base centre, base perpendicular to line, tip touches target ===== -->
  <!-- Arrow 1: Original (286,490) → Cause-1 dataset (384,290) -->
  <line x1="286" y1="520" x2="377.84" y2="332.57" stroke="#2E3440" stroke-width="1.8"/>
  <polygon points="384,320 384.13,335.65 371.55,329.49" fill="#2E3440"/>
  <!-- Arrow 2: Original (286,490) → Cause-2 dataset (384,690) -->
  <line x1="286" y1="520" x2="377.84" y2="707.43" stroke="#2E3440" stroke-width="1.8"/>
  <polygon points="384,720 371.55,710.51 384.13,704.35" fill="#2E3440"/>
  <!-- Arrow 3: Cause-1 dataset (656,290) → Cause-1 model (779,290) -->
  <line x1="656" y1="320" x2="765" y2="320" stroke="#2E3440" stroke-width="1.8"/>
  <polygon points="779,320 765,313 765,327" fill="#2E3440"/>
  <!-- Arrow 4: Cause-2 dataset (656,690) → Cause-2 model (779,690) -->
  <line x1="656" y1="720" x2="765" y2="720" stroke="#2E3440" stroke-width="1.8"/>
  <polygon points="779,720 765,713 765,727" fill="#2E3440"/>
  <!-- Arrow 5: Cause-1 model (1081,290) → Combined (1224,455) -->
  <line x1="1081" y1="320" x2="1214.83" y2="474.42" stroke="#2E3440" stroke-width="1.8"/>
  <polygon points="1224,485 1209.54,479 1220.12,469.83" fill="#2E3440"/>
  <!-- Arrow 6: Cause-2 model (1081,690) → Combined (1224,525) -->
  <line x1="1081" y1="720" x2="1214.83" y2="565.58" stroke="#2E3440" stroke-width="1.8"/>
  <polygon points="1224,555 1220.12,570.17 1209.54,561" fill="#2E3440"/>
</svg>
