<svg xmlns="http://www.w3.org/2000/svg" viewBox="0 0 1580 620" font-family="DejaVu Sans">
<defs><filter id="sh" x="-6%" y="-8%" width="112%" height="120%"><feDropShadow dx="0" dy="1.5" stdDeviation="1.5" flood-color="#000" flood-opacity="0.13"/></filter></defs>
<rect x="240" y="45" width="1130" height="210" rx="12" fill="#e7f5e7" stroke="#82c182" stroke-width="2"/>
<rect x="262" y="27" width="120" height="40" rx="8" fill="#fff" stroke="#82c182" stroke-width="2"/>
<text x="322" y="54" text-anchor="middle" font-size="27" font-weight="bold" fill="#3a6a3a">Train</text>
<rect x="240" y="300" width="1130" height="290" rx="12" fill="#efe6f5" stroke="#b48fcf" stroke-width="2"/>
<rect x="262" y="282" width="140" height="40" rx="8" fill="#fff" stroke="#b48fcf" stroke-width="2"/>
<text x="332" y="309" text-anchor="middle" font-size="27" font-weight="bold" fill="#6a3f8a">Predict</text>
<rect x="30" y="263" width="168" height="98" rx="8" fill="#ffffff" stroke="#888" stroke-width="2" filter="url(#sh)"/>
<text x="114" y="306.2" text-anchor="middle" font-size="25" font-weight="bold" fill="#222">Survival</text>
<text x="114" y="335.2" text-anchor="middle" font-size="25" font-weight="bold" fill="#222">Task</text>
<rect x="278" y="108" width="132" height="94" rx="8" fill="#b9e0b9" stroke="#69ab69" stroke-width="2" filter="url(#sh)"/>
<text x="344" y="149.1" text-anchor="middle" font-size="26" font-weight="bold" fill="#2a4a2a">Train</text>
<text x="344" y="179.1" text-anchor="middle" font-size="26" font-weight="bold" fill="#2a4a2a">Data</text>
<rect x="460" y="123" width="182" height="64" rx="8" fill="#fdedc6" stroke="#e3bd6a" stroke-width="2" filter="url(#sh)"/>
<text x="551" y="162.3" text-anchor="middle" font-size="21" font-weight="normal" fill="#5a4a22">Transformation</text>
<rect x="702" y="108" width="192" height="94" rx="8" fill="#fce7a4" stroke="#dcc257" stroke-width="2" filter="url(#sh)"/>
<text x="798" y="136.7" text-anchor="middle" font-size="22" font-weight="normal" fill="#5a5020">Regression or</text>
<text x="798" y="162.7" text-anchor="middle" font-size="22" font-weight="normal" fill="#5a5020">Classification</text>
<text x="798" y="188.7" text-anchor="middle" font-size="22" font-weight="normal" fill="#5a5020">Task</text>
<rect x="952" y="108" width="206" height="94" rx="8" fill="#84c0a6" stroke="#4d977c" stroke-width="2" filter="url(#sh)"/>
<text x="1055" y="136.7" text-anchor="middle" font-size="22" font-weight="normal" fill="#1f4438">Regression or</text>
<text x="1055" y="162.7" text-anchor="middle" font-size="22" font-weight="normal" fill="#1f4438">Classification</text>
<text x="1055" y="188.7" text-anchor="middle" font-size="22" font-weight="normal" fill="#1f4438">Learner</text>
<rect x="278" y="393" width="132" height="94" rx="8" fill="#bcd5ef" stroke="#6a9bd0" stroke-width="2" filter="url(#sh)"/>
<text x="344" y="434.1" text-anchor="middle" font-size="26" font-weight="bold" fill="#243a52">Test</text>
<text x="344" y="464.1" text-anchor="middle" font-size="26" font-weight="bold" fill="#243a52">Data</text>
<rect x="460" y="393" width="182" height="92" rx="8" fill="#fdedc6" stroke="#e3bd6a" stroke-width="2" filter="url(#sh)"/>
<text x="551" y="418" text-anchor="middle" font-size="21" fill="#5a4a22">Transformation</text>
<rect x="475" y="448" width="152" height="32" rx="5" fill="#f4f4f4" stroke="#bdbdbd" stroke-width="1.5"/>
<text x="551" y="469" text-anchor="middle" font-size="16" fill="#555">Trafo Parameters</text>
<rect x="702" y="393" width="192" height="94" rx="8" fill="#fce7a4" stroke="#dcc257" stroke-width="2" filter="url(#sh)"/>
<text x="798" y="421.7" text-anchor="middle" font-size="22" font-weight="normal" fill="#5a5020">Regression or</text>
<text x="798" y="447.7" text-anchor="middle" font-size="22" font-weight="normal" fill="#5a5020">Classification</text>
<text x="798" y="473.7" text-anchor="middle" font-size="22" font-weight="normal" fill="#5a5020">Task</text>
<rect x="952" y="388" width="206" height="122" rx="8" fill="#84c0a6" stroke="#4d977c" stroke-width="2" filter="url(#sh)"/>
<text x="1055" y="408" text-anchor="middle" font-size="22" fill="#1f4438">Regression or</text>
<text x="1055" y="428" text-anchor="middle" font-size="22" fill="#1f4438">Classification</text>
<text x="1055" y="448" text-anchor="middle" font-size="22" fill="#1f4438">Learner</text>
<rect x="967" y="462" width="176" height="34" rx="5" fill="#f4f4f4" stroke="#bdbdbd" stroke-width="1.5"/>
<text x="1055" y="484" text-anchor="middle" font-size="16" fill="#555">Trained Model</text>
<rect x="1200" y="410" width="124" height="60" rx="8" fill="#6cbd9c" stroke="#3f8f72" stroke-width="2" filter="url(#sh)"/>
<text x="1262" y="448.1" text-anchor="middle" font-size="23" font-weight="normal" fill="#10362a">Prediction</text>
<rect x="1392" y="410" width="172" height="60" rx="8" fill="#fdedc6" stroke="#e3bd6a" stroke-width="2" filter="url(#sh)"/>
<text x="1478" y="447.4" text-anchor="middle" font-size="21" font-weight="normal" fill="#5a4a22">Transformation</text>
<rect x="1409" y="120" width="138" height="96" rx="8" fill="#d8b6e6" stroke="#a06ec0" stroke-width="2" filter="url(#sh)"/>
<text x="1478" y="162.4" text-anchor="middle" font-size="24" font-weight="bold" fill="#43285a">Survival</text>
<text x="1478" y="190.4" text-anchor="middle" font-size="24" font-weight="bold" fill="#43285a">Prediction</text>
<line x1="198.0" y1="312.0" x2="266.8" y2="171.6" stroke="#666" stroke-width="2.6" stroke-dasharray="7,6"/>
<polygon points="273.0,159.0 273.1,174.7 260.6,168.5" fill="#666"/>
<line x1="198.0" y1="312.0" x2="265.8" y2="425.0" stroke="#666" stroke-width="2.6" stroke-dasharray="7,6"/>
<polygon points="273.0,437.0 259.8,428.6 271.8,421.4" fill="#666"/>
<line x1="410.0" y1="155.0" x2="438.0" y2="155.0" stroke="#8a8a8a" stroke-width="5"/>
<polygon points="455.0,155.0 438.0,163.0 438.0,147.0" fill="#8a8a8a"/>
<line x1="642.0" y1="155.0" x2="680.0" y2="155.0" stroke="#8a8a8a" stroke-width="5"/>
<polygon points="697.0,155.0 680.0,163.0 680.0,147.0" fill="#8a8a8a"/>
<line x1="894.0" y1="155.0" x2="930.0" y2="155.0" stroke="#8a8a8a" stroke-width="5"/>
<polygon points="947.0,155.0 930.0,163.0 930.0,147.0" fill="#8a8a8a"/>
<line x1="410.0" y1="440.0" x2="438.0" y2="440.0" stroke="#8a8a8a" stroke-width="5"/>
<polygon points="455.0,440.0 438.0,448.0 438.0,432.0" fill="#8a8a8a"/>
<line x1="642.0" y1="440.0" x2="680.0" y2="440.0" stroke="#8a8a8a" stroke-width="5"/>
<polygon points="697.0,440.0 680.0,448.0 680.0,432.0" fill="#8a8a8a"/>
<line x1="894.0" y1="440.0" x2="930.0" y2="440.0" stroke="#8a8a8a" stroke-width="5"/>
<polygon points="947.0,440.0 930.0,448.0 930.0,432.0" fill="#8a8a8a"/>
<line x1="1158.0" y1="440.0" x2="1178.0" y2="440.0" stroke="#8a8a8a" stroke-width="5"/>
<polygon points="1195.0,440.0 1178.0,448.0 1178.0,432.0" fill="#8a8a8a"/>
<line x1="1324.0" y1="440.0" x2="1370.0" y2="440.0" stroke="#8a8a8a" stroke-width="5"/>
<polygon points="1387.0,440.0 1370.0,448.0 1370.0,432.0" fill="#8a8a8a"/>
<line x1="1478.0" y1="410.0" x2="1478.0" y2="238.0" stroke="#8a8a8a" stroke-width="5"/>
<polygon points="1478.0,221.0 1486.0,238.0 1470.0,238.0" fill="#8a8a8a"/>
<path d="M 466.0 178.0 L 466.0 464.0 L 480.0 464.0" fill="none" stroke="#9a9a9a" stroke-width="2.6"/>
<polygon points="492.0,464.0 480.0,470.0 480.0,458.0" fill="#9a9a9a"/>
<path d="M 958.0 193.0 L 958.0 479.0 L 973.0 479.0" fill="none" stroke="#9a9a9a" stroke-width="2.6"/>
<polygon points="985.0,479.0 973.0,485.0 973.0,473.0" fill="#9a9a9a"/>
<path d="M 551.0 480.0 L 551.0 545.0 L 1478.0 545.0 L 1478.0 482.0" fill="none" stroke="#9a9a9a" stroke-width="2.6"/>
<polygon points="1478.0,470.0 1484.0,482.0 1472.0,482.0" fill="#9a9a9a"/>
</svg>