<svg version="1.1" viewBox="0.0 0.0 960.0 720.0" fill="none" stroke="none" stroke-linecap="square" stroke-miterlimit="10" xmlns:xlink="http://www.w3.org/1999/xlink" xmlns="http://www.w3.org/2000/svg"><clipPath id="g8669d5c65b_0_10.0"><path d="m0 0l960.0 0l0 720.0l-960.0 0l0 -720.0z" clip-rule="nonzero"/></clipPath><g clip-path="url(#g8669d5c65b_0_10.0)"><defs><radialGradient id="g8669d5c65b_0_10.1" gradientUnits="userSpaceOnUse" gradientTransform="matrix(24.49489742783178 0.0 0.0 24.49489742783178 0.0 0.0)" spreadMethod="pad" cx="19.595917942265427" cy="14.696938456699069" fx="19.595917942265427" fy="14.696938456699069" r="24.494897842407227"><stop offset="0.0" stop-color="#ffffff"/><stop offset="1.0" stop-color="#ebebeb"/></radialGradient></defs><path fill="url(#g8669d5c65b_0_10.1)" d="m0 0l960.0 0l0 720.0l-960.0 0z" fill-rule="evenodd"/><path shape-rendering="crispEdges" fill="#b7b7b7" d="m0.002624672 0l240.0 0l0 180.0l-240.0 0l0 -180.0z" fill-rule="nonzero"/><path shape-rendering="crispEdges" fill="#b7b7b7" d="m240.00262 0l240.0 0l0 180.0l-240.0 0l0 -180.0z" fill-rule="nonzero"/><path shape-rendering="crispEdges" fill="#b7b7b7" d="m480.00262 0l240.0 0l0 180.0l-240.0 0l0 -180.0z" fill-rule="nonzero"/><path shape-rendering="crispEdges" fill="#b7b7b7" d="m720.0026 0l240.0 0l0 180.0l-240.0 0l0 -180.0z" fill-rule="nonzero"/><path shape-rendering="crispEdges" fill="#fafafa" d="m0.002624672 180.0l240.0 0l0 180.0l-240.0 0l0 -180.0z" fill-rule="nonzero"/><path shape-rendering="crispEdges" fill="#fafafa" d="m240.00262 180.0l240.0 0l0 180.0l-240.0 0l0 -180.0z" fill-rule="nonzero"/><path shape-rendering="crispEdges" fill="#fafafa" d="m480.00262 180.0l240.0 0l0 180.0l-240.0 0l0 -180.0z" fill-rule="nonzero"/><path shape-rendering="crispEdges" fill="#fafafa" d="m720.0026 180.0l240.0 0l0 180.0l-240.0 0l0 -180.0z" fill-rule="nonzero"/><path shape-rendering="crispEdges" fill="#d9d9d9" d="m0.002624672 360.0l240.0 0l0 180.0l-240.0 0l0 -180.0z" fill-rule="nonzero"/><path shape-rendering="crispEdges" fill="#d9d9d9" d="m240.00262 360.0l240.0 0l0 180.0l-240.0 0l0 -180.0z" fill-rule="nonzero"/><path shape-rendering="crispEdges" fill="#d9d9d9" d="m480.00262 360.0l240.0 0l0 180.0l-240.0 0l0 -180.0z" fill-rule="nonzero"/><path shape-rendering="crispEdges" fill="#d9d9d9" d="m720.0026 360.0l240.0 0l0 180.0l-240.0 0l0 -180.0z" fill-rule="nonzero"/><path shape-rendering="crispEdges" fill="#fafafa" d="m0.002624672 540.0l240.0 0l0 180.0l-240.0 0l0 -180.0z" fill-rule="nonzero"/><path shape-rendering="crispEdges" fill="#fafafa" d="m240.00262 540.0l240.0 0l0 180.0l-240.0 0l0 -180.0z" fill-rule="nonzero"/><path shape-rendering="crispEdges" fill="#fafafa" d="m480.00262 540.0l240.0 0l0 180.0l-240.0 0l0 -180.0z" fill-rule="nonzero"/><path shape-rendering="crispEdges" fill="#fafafa" d="m720.0026 540.0l240.0 0l0 180.0l-240.0 0l0 -180.0z" fill-rule="nonzero"/><path stroke="#9e9e9e" stroke-width="1.0" stroke-linecap="butt" d="m0.002624672 -0.49868765l0 720.9973" fill-rule="nonzero"/><path stroke="#9e9e9e" stroke-width="1.0" stroke-linecap="butt" d="m240.00262 -0.49868765l0 720.9973" fill-rule="nonzero"/><path stroke="#9e9e9e" stroke-width="1.0" stroke-linecap="butt" d="m480.00262 -0.49868765l0 720.9973" fill-rule="nonzero"/><path stroke="#9e9e9e" stroke-width="1.0" stroke-linecap="butt" d="m720.0026 -0.49868765l0 720.9973" fill-rule="nonzero"/><path stroke="#9e9e9e" stroke-width="1.0" stroke-linecap="butt" d="m960.0026 -0.49868765l0 720.9973" fill-rule="nonzero"/><path stroke="#9e9e9e" stroke-width="1.0" stroke-linecap="butt" d="m-0.496063 0l960.9974 0" fill-rule="nonzero"/><path stroke="#9e9e9e" stroke-width="4.0" stroke-linecap="butt" d="m-0.496063 180.0l960.9974 0" fill-rule="nonzero"/><path stroke="#9e9e9e" stroke-width="1.0" stroke-linecap="butt" d="m-0.496063 360.0l960.9974 0" fill-rule="nonzero"/><path stroke="#9e9e9e" stroke-width="1.0" stroke-linecap="butt" d="m-0.496063 540.0l960.9974 0" fill-rule="nonzero"/><path stroke="#9e9e9e" stroke-width="1.0" stroke-linecap="butt" d="m-0.496063 720.0l960.9974 0" fill-rule="nonzero"/><path fill="#000000" d="m65.80145 108.92l0 -37.21875l7.515625 0l0 37.21875l-7.515625 0zm14.650391 -37.21875l13.734375 0q4.640625 0 7.078125 0.703125q3.28125 0.96875 5.609375 3.4375q2.34375 2.453125 3.5625 6.03125q1.21875 3.5625 1.21875 8.796875q0 4.59375 -1.140625 7.921875q-1.40625 4.0625 -4.0 6.5625q-1.953125 1.90625 -5.28125 2.984375q-2.484375 0.78125 -6.640625 0.78125l-14.140625 0l0 -37.21875zm7.515625 6.296875l0 24.65625l5.609375 0q3.140625 0 4.546875 -0.359375q1.828125 -0.453125 3.03125 -1.546875q1.203125 -1.09375 1.953125 -3.59375q0.765625 -2.5 0.765625 -6.828125q0 -4.3125 -0.765625 -6.625q-0.75 -2.3125 -2.125 -3.59375q-1.375 -1.296875 -3.46875 -1.765625q-1.578125 -0.34375 -6.171875 -0.34375l-3.375 0zm56.28125 41.859375l-4.890625 0q-3.890625 -5.859375 -5.921875 -12.171875q-2.03125 -6.328125 -2.03125 -12.25q0 -7.34375 2.515625 -13.890625q2.1875 -5.6875 5.53125 -10.484375l4.875 0q-3.484375 7.6875 -4.796875 13.09375q-1.296875 5.390625 -1.296875 11.4375q0 4.15625 0.765625 8.53125q0.78125 4.359375 2.125 8.296875q0.890625 2.59375 3.125 7.4375zm5.4882812 -41.5625l0 -6.59375l7.140625 0l0 6.59375l-7.140625 0zm0 30.625l0 -26.96875l7.140625 0l0 26.96875l-7.140625 0zm12.462891 10.9375q2.109375 -4.515625 2.96875 -6.9375q0.875 -2.40625 1.609375 -5.546875q0.734375 -3.15625 1.078125 -5.984375q0.359375 -2.828125 0.359375 -5.796875q0 -6.046875 -1.296875 -11.4375q-1.28125 -5.40625 -4.765625 -13.09375l4.84375 0q3.84375 5.453125 5.953125 11.578125q2.125 6.125 2.125 12.421875q0 5.296875 -1.671875 11.375q-1.90625 6.796875 -6.28125 13.421875l-4.921875 0z" fill-rule="nonzero"/><path fill="#000000" d="m342.89813 81.95125l0 5.6875l-4.875 0l0 10.875q0 3.296875 0.140625 3.84375q0.140625 0.546875 0.640625 0.90625q0.5 0.34375 1.203125 0.34375q0.984375 0 2.875 -0.6875l0.609375 5.546875q-2.5 1.0625 -5.640625 1.0625q-1.9375 0 -3.484375 -0.640625q-1.546875 -0.65625 -2.265625 -1.6875q-0.71875 -1.03125 -1.0 -2.78125q-0.234375 -1.234375 -0.234375 -5.015625l0 -11.765625l-3.28125 0l0 -5.6875l3.28125 0l0 -5.359375l7.15625 -4.15625l0 9.515625l4.875 0zm16.785156 37.90625l-4.890625 0q-3.890625 -5.859375 -5.921875 -12.171875q-2.03125 -6.328125 -2.03125 -12.25q0 -7.34375 2.515625 -13.890625q2.1875 -5.6875 5.53125 -10.484375l4.875 0q-3.484375 7.6875 -4.796875 13.09375q-1.296875 5.390625 -1.296875 11.4375q0 4.15625 0.765625 8.53125q0.78125 4.359375 2.125 8.296875q0.890625 2.59375 3.125 7.4375zm5.4882812 -41.5625l0 -6.59375l7.140625 0l0 6.59375l-7.140625 0zm0 30.625l0 -26.96875l7.140625 0l0 26.96875l-7.140625 0zm12.462891 10.9375q2.109375 -4.515625 2.96875 -6.9375q0.875 -2.40625 1.609375 -5.546875q0.734375 -3.15625 1.078125 -5.984375q0.359375 -2.828125 0.359375 -5.796875q0 -6.046875 -1.296875 -11.4375q-1.28125 -5.40625 -4.765625 -13.09375l4.84375 0q3.84375 5.453125 5.953125 11.578125q2.125 6.125 2.125 12.421875q0 5.296875 -1.671875 11.375q-1.90625 6.796875 -6.28125 13.421875l-4.921875 0z" fill-rule="nonzero"/><path fill="#000000" d="m500.1032 101.2325l7.15625 -1.09375q0.46875 2.078125 1.859375 3.15625q1.390625 1.078125 3.90625 1.078125q2.765625 0 4.171875 -1.015625q0.9375 -0.703125 0.9375 -1.90625q0 -0.8125 -0.515625 -1.34375q-0.53125 -0.5 -2.375 -0.9375q-8.640625 -1.90625 -10.953125 -3.484375q-3.203125 -2.171875 -3.203125 -6.0625q0 -3.5 2.765625 -5.890625q2.78125 -2.390625 8.59375 -2.390625q5.53125 0 8.21875 1.8125q2.703125 1.796875 3.71875 5.328125l-6.734375 1.234375q-0.4375 -1.5625 -1.640625 -2.40625q-1.203125 -0.84375 -3.4375 -0.84375q-2.8125 0 -4.03125 0.796875q-0.8125 0.5625 -0.8125 1.4375q0 0.765625 0.703125 1.296875q0.96875 0.71875 6.65625 2.015625q5.703125 1.296875 7.96875 3.171875q2.234375 1.90625 2.234375 5.296875q0 3.71875 -3.09375 6.390625q-3.09375 2.65625 -9.171875 2.65625q-5.5 0 -8.71875 -2.234375q-3.21875 -2.234375 -4.203125 -6.0625zm43.79492 -19.28125l0 5.6875l-4.875 0l0 10.875q0 3.296875 0.140625 3.84375q0.140625 0.546875 0.640625 0.90625q0.5 0.34375 1.203125 0.34375q0.984375 0 2.875 -0.6875l0.609375 5.546875q-2.5 1.0625 -5.640625 1.0625q-1.9375 0 -3.484375 -0.640625q-1.546875 -0.65625 -2.265625 -1.6875q-0.71875 -1.03125 -1.0 -2.78125q-0.234375 -1.234375 -0.234375 -5.015625l0 -11.765625l-3.28125 0l0 -5.6875l3.28125 0l0 -5.359375l7.15625 -4.15625l0 9.515625l4.875 0zm10.285156 8.234375l-6.46875 -1.171875q1.09375 -3.90625 3.75 -5.78125q2.671875 -1.890625 7.921875 -1.890625q4.78125 0 7.109375 1.140625q2.34375 1.125 3.296875 2.859375q0.953125 1.734375 0.953125 6.390625l-0.078125 8.328125q0 3.546875 0.34375 5.234375q0.34375 1.6875 1.28125 3.625l-7.0625 0q-0.28125 -0.71875 -0.6875 -2.109375q-0.171875 -0.640625 -0.25 -0.84375q-1.828125 1.78125 -3.921875 2.671875q-2.078125 0.890625 -4.4375 0.890625q-4.15625 0 -6.5625 -2.25q-2.390625 -2.265625 -2.390625 -5.71875q0 -2.296875 1.078125 -4.078125q1.09375 -1.796875 3.0625 -2.75q1.96875 -0.953125 5.6875 -1.65625q5.0 -0.9375 6.921875 -1.75l0 -0.71875q0 -2.046875 -1.015625 -2.921875q-1.015625 -0.875 -3.828125 -0.875q-1.90625 0 -2.984375 0.75q-1.0625 0.734375 -1.71875 2.625zm9.546875 5.78125q-1.375 0.453125 -4.34375 1.09375q-2.96875 0.640625 -3.875 1.25q-1.40625 0.984375 -1.40625 2.515625q0 1.484375 1.109375 2.578125q1.125 1.09375 2.859375 1.09375q1.921875 0 3.671875 -1.265625q1.296875 -0.96875 1.703125 -2.359375q0.28125 -0.921875 0.28125 -3.484375l0 -1.421875zm26.404297 -14.015625l0 5.6875l-4.875 0l0 10.875q0 3.296875 0.140625 3.84375q0.140625 0.546875 0.640625 0.90625q0.5 0.34375 1.203125 0.34375q0.984375 0 2.875 -0.6875l0.609375 5.546875q-2.5 1.0625 -5.640625 1.0625q-1.9375 0 -3.484375 -0.640625q-1.546875 -0.65625 -2.265625 -1.6875q-0.71875 -1.03125 -1.0 -2.78125q-0.234375 -1.234375 -0.234375 -5.015625l0 -11.765625l-3.28125 0l0 -5.6875l3.28125 0l0 -5.359375l7.15625 -4.15625l0 9.515625l4.875 0zm22.707031 26.96875l0 -4.03125q-1.46875 2.15625 -3.875 3.40625q-2.40625 1.234375 -5.0625 1.234375q-2.71875 0 -4.875 -1.1875q-2.15625 -1.203125 -3.125 -3.359375q-0.96875 -2.15625 -0.96875 -5.96875l0 -17.0625l7.140625 0l0 12.390625q0 5.6875 0.390625 6.96875q0.390625 1.28125 1.421875 2.03125q1.046875 0.75 2.65625 0.75q1.828125 0 3.265625 -1.0q1.453125 -1.0 1.984375 -2.484375q0.53125 -1.484375 0.53125 -7.28125l0 -11.375l7.140625 0l0 26.96875l-6.625 0zm11.498047 -7.6875l7.15625 -1.09375q0.46875 2.078125 1.859375 3.15625q1.390625 1.078125 3.90625 1.078125q2.765625 0 4.171875 -1.015625q0.9375 -0.703125 0.9375 -1.90625q0 -0.8125 -0.515625 -1.34375q-0.53125 -0.5 -2.375 -0.9375q-8.640625 -1.90625 -10.953125 -3.484375q-3.203125 -2.171875 -3.203125 -6.0625q0 -3.5 2.765625 -5.890625q2.78125 -2.390625 8.59375 -2.390625q5.53125 0 8.21875 1.8125q2.703125 1.796875 3.71875 5.328125l-6.734375 1.234375q-0.4375 -1.5625 -1.640625 -2.40625q-1.203125 -0.84375 -3.4375 -0.84375q-2.8125 0 -4.03125 0.796875q-0.8125 0.5625 -0.8125 1.4375q0 0.765625 0.703125 1.296875q0.96875 0.71875 6.65625 2.015625q5.703125 1.296875 7.96875 3.171875q2.234375 1.90625 2.234375 5.296875q0 3.71875 -3.09375 6.390625q-3.09375 2.65625 -9.171875 2.65625q-5.5 0 -8.71875 -2.234375q-3.21875 -2.234375 -4.203125 -6.0625zm43.26367 18.625l-4.890625 0q-3.890625 -5.859375 -5.921875 -12.171875q-2.03125 -6.328125 -2.03125 -12.25q0 -7.34375 2.515625 -13.890625q2.1875 -5.6875 5.53125 -10.484375l4.875 0q-3.484375 7.6875 -4.796875 13.09375q-1.296875 5.390625 -1.296875 11.4375q0 4.15625 0.765625 8.53125q0.78125 4.359375 2.125 8.296875q0.890625 2.59375 3.125 7.4375zm5.4882812 -41.5625l0 -6.59375l7.140625 0l0 6.59375l-7.140625 0zm0 30.625l0 -26.96875l7.140625 0l0 26.96875l-7.140625 0zm12.462891 10.9375q2.109375 -4.515625 2.96875 -6.9375q0.875 -2.40625 1.609375 -5.546875q0.734375 -3.15625 1.078125 -5.984375q0.359375 -2.828125 0.359375 -5.796875q0 -6.046875 -1.296875 -11.4375q-1.28125 -5.40625 -4.765625 -13.09375l4.84375 0q3.84375 5.453125 5.953125 11.578125q2.125 6.125 2.125 12.421875q0 5.296875 -1.671875 11.375q-1.90625 6.796875 -6.28125 13.421875l-4.921875 0z" fill-rule="nonzero"/><path fill="#000000" d="m779.7233 90.18562l-6.46875 -1.171875q1.09375 -3.90625 3.75 -5.78125q2.671875 -1.890625 7.921875 -1.890625q4.78125 0 7.109375 1.140625q2.34375 1.125 3.296875 2.859375q0.953125 1.734375 0.953125 6.390625l-0.078125 8.328125q0 3.546875 0.34375 5.234375q0.34375 1.6875 1.28125 3.625l-7.0625 0q-0.28125 -0.71875 -0.6875 -2.109375q-0.171875 -0.640625 -0.25 -0.84375q-1.828125 1.78125 -3.921875 2.671875q-2.078125 0.890625 -4.4375 0.890625q-4.15625 0 -6.5625 -2.25q-2.390625 -2.265625 -2.390625 -5.71875q0 -2.296875 1.078125 -4.078125q1.09375 -1.796875 3.0625 -2.75q1.96875 -0.953125 5.6875 -1.65625q5.0 -0.9375 6.921875 -1.75l0 -0.71875q0 -2.046875 -1.015625 -2.921875q-1.015625 -0.875 -3.828125 -0.875q-1.90625 0 -2.984375 0.75q-1.0625 0.734375 -1.71875 2.625zm9.546875 5.78125q-1.375 0.453125 -4.34375 1.09375q-2.96875 0.640625 -3.875 1.25q-1.40625 0.984375 -1.40625 2.515625q0 1.484375 1.109375 2.578125q1.125 1.09375 2.859375 1.09375q1.921875 0 3.671875 -1.265625q1.296875 -0.96875 1.703125 -2.359375q0.28125 -0.921875 0.28125 -3.484375l0 -1.421875zm13.388672 14.734375l8.140625 0.984375q0.203125 1.421875 0.9375 1.953125q1.015625 0.765625 3.203125 0.765625q2.796875 0 4.1875 -0.84375q0.9375 -0.546875 1.421875 -1.796875q0.328125 -0.890625 0.328125 -3.28125l0 -3.9375q-3.1875 4.375 -8.0625 4.375q-5.4375 0 -8.609375 -4.59375q-2.484375 -3.640625 -2.484375 -9.046875q0 -6.78125 3.25 -10.359375q3.265625 -3.578125 8.125 -3.578125q5.0 0 8.25 4.390625l0 -3.78125l6.671875 0l0 24.203125q0 4.765625 -0.796875 7.125q-0.78125 2.375 -2.203125 3.71875q-1.421875 1.34375 -3.796875 2.09375q-2.375 0.765625 -6.0 0.765625q-6.859375 0 -9.734375 -2.34375q-2.859375 -2.34375 -2.859375 -5.953125q0 -0.359375 0.03125 -0.859375zm6.375 -15.828125q0 4.296875 1.65625 6.296875q1.65625 1.984375 4.09375 1.984375q2.625 0 4.421875 -2.046875q1.8125 -2.046875 1.8125 -6.046875q0 -4.1875 -1.734375 -6.21875q-1.71875 -2.03125 -4.359375 -2.03125q-2.578125 0 -4.234375 2.0q-1.65625 1.984375 -1.65625 6.0625zm41.654297 5.46875l7.109375 1.1875q-1.359375 3.90625 -4.328125 5.953125q-2.953125 2.046875 -7.390625 2.046875q-7.046875 0 -10.421875 -4.59375q-2.65625 -3.6875 -2.65625 -9.296875q0 -6.703125 3.5 -10.5q3.5 -3.796875 8.859375 -3.796875q6.015625 0 9.484375 3.984375q3.484375 3.96875 3.34375 12.171875l-17.875 0q0.078125 3.171875 1.71875 4.9375q1.65625 1.765625 4.109375 1.765625q1.6875 0 2.828125 -0.90625q1.140625 -0.921875 1.71875 -2.953125zm0.40625 -7.21875q-0.078125 -3.09375 -1.609375 -4.703125q-1.515625 -1.609375 -3.6875 -1.609375q-2.34375 0 -3.859375 1.6875q-1.53125 1.703125 -1.5 4.625l10.65625 0zm24.732422 26.734375l-4.890625 0q-3.890625 -5.859375 -5.921875 -12.171875q-2.03125 -6.328125 -2.03125 -12.25q0 -7.34375 2.515625 -13.890625q2.1875 -5.6875 5.53125 -10.484375l4.875 0q-3.484375 7.6875 -4.796875 13.09375q-1.296875 5.390625 -1.296875 11.4375q0 4.15625 0.765625 8.53125q0.78125 4.359375 2.125 8.296875q0.890625 2.59375 3.125 7.4375zm5.4882812 -41.5625l0 -6.59375l7.140625 0l0 6.59375l-7.140625 0zm0 30.625l0 -26.96875l7.140625 0l0 26.96875l-7.140625 0zm12.462891 10.9375q2.109375 -4.515625 2.96875 -6.9375q0.875 -2.40625 1.609375 -5.546875q0.734375 -3.15625 1.078125 -5.984375q0.359375 -2.828125 0.359375 -5.796875q0 -6.046875 -1.296875 -11.4375q-1.28125 -5.40625 -4.765625 -13.09375l4.84375 0q3.84375 5.453125 5.953125 11.578125q2.125 6.125 2.125 12.421875q0 5.296875 -1.671875 11.375q-1.90625 6.796875 -6.28125 13.421875l-4.921875 0z" fill-rule="nonzero"/><path fill="#000000" d="m124.91766 288.91998l-4.578125 0l0 -29.125q-1.640625 1.578125 -4.328125 3.15625q-2.671875 1.5625 -4.8125 2.359375l0 -4.421875q3.84375 -1.796875 6.703125 -4.359375q2.875 -2.5781097 4.0625 -4.9843597l2.953125 0l0 37.374985z" fill-rule="nonzero"/><path fill="#000000" d="m343.23407 288.91998l-4.578125 0l0 -29.125q-1.640625 1.578125 -4.328125 3.15625q-2.671875 1.5625 -4.8125 2.359375l0 -4.421875q3.84375 -1.796875 6.703125 -4.359375q2.875 -2.5781097 4.0625 -4.9843597l2.953125 0l0 37.374985zm14.263672 0l0 -5.203125l5.203125 0l0 5.203125l-5.203125 0zm11.916016 -9.828125l4.5625 -0.609375q0.796875 3.890625 2.6875 5.609375q1.890625 1.703125 4.609375 1.703125q3.21875 0 5.4375 -2.234375q2.21875 -2.234375 2.21875 -5.53125q0 -3.15625 -2.0625 -5.1875q-2.046875 -2.046875 -5.21875 -2.046875q-1.296875 0 -3.21875 0.5l0.5 -4.015625q0.453125 0.0625 0.734375 0.0625q2.921875 0 5.25 -1.515625q2.34375 -1.53125 2.34375 -4.703125q0 -2.515625 -1.703125 -4.171875q-1.703125 -1.6562347 -4.390625 -1.6562347q-2.65625 0 -4.4375 1.6874847q-1.78125 1.671875 -2.28125 5.015625l-4.578125 -0.8125q0.84375 -4.59375 3.8125 -7.1093597q2.96875 -2.53125 7.390625 -2.53125q3.046875 0 5.609375 1.3125q2.5625 1.296875 3.921875 3.5624847q1.359375 2.265625 1.359375 4.796875q0 2.40625 -1.296875 4.390625q-1.296875 1.984375 -3.828125 3.15625q3.296875 0.75 5.125 3.15625q1.828125 2.40625 1.828125 6.0q0 4.875 -3.5625 8.265625q-3.546875 3.390625 -8.984375 3.390625q-4.90625 0 -8.140625 -2.921875q-3.234375 -2.921875 -3.6875 -7.5625z" fill-rule="nonzero"/><path fill="#000000" d="m587.6989 270.5606q0 -6.59375 1.359375 -10.625q1.359375 -4.0312347 4.03125 -6.2031097q2.6875 -2.1875 6.75 -2.1875q3.0 0 5.25 1.203125q2.265625 1.203125 3.734375 3.4843597q1.46875 2.265625 2.3125 5.53125q0.84375 3.265625 0.84375 8.796875q0 6.546875 -1.359375 10.578125q-1.34375 4.015625 -4.015625 6.21875q-2.671875 2.203125 -6.765625 2.203125q-5.390625 0 -8.453125 -3.859375q-3.6875 -4.65625 -3.6875 -15.140625zm4.703125 0q0 9.171875 2.140625 12.203125q2.140625 3.03125 5.296875 3.03125q3.140625 0 5.28125 -3.046875q2.15625 -3.046875 2.15625 -12.1875q0 -9.1875 -2.15625 -12.203125q-2.140625 -3.0312347 -5.328125 -3.0312347q-3.15625 0 -5.03125 2.6718597q-2.359375 3.390625 -2.359375 12.5625z" fill-rule="nonzero"/><path fill="#000000" d="m813.2702 279.09186l4.5625 -0.609375q0.796875 3.890625 2.6875 5.609375q1.890625 1.703125 4.609375 1.703125q3.21875 0 5.4375 -2.234375q2.21875 -2.234375 2.21875 -5.53125q0 -3.15625 -2.0625 -5.1875q-2.046875 -2.046875 -5.21875 -2.046875q-1.296875 0 -3.21875 0.5l0.5 -4.015625q0.453125 0.0625 0.734375 0.0625q2.921875 0 5.25 -1.515625q2.34375 -1.53125 2.34375 -4.703125q0 -2.515625 -1.703125 -4.171875q-1.703125 -1.6562347 -4.390625 -1.6562347q-2.65625 0 -4.4375 1.6874847q-1.78125 1.671875 -2.28125 5.015625l-4.578125 -0.8125q0.84375 -4.59375 3.8125 -7.1093597q2.96875 -2.53125 7.390625 -2.53125q3.046875 0 5.609375 1.3125q2.5625 1.296875 3.921875 3.5624847q1.359375 2.265625 1.359375 4.796875q0 2.40625 -1.296875 4.390625q-1.296875 1.984375 -3.828125 3.15625q3.296875 0.75 5.125 3.15625q1.828125 2.40625 1.828125 6.0q0 4.875 -3.5625 8.265625q-3.546875 3.390625 -8.984375 3.390625q-4.90625 0 -8.140625 -2.921875q-3.234375 -2.921875 -3.6875 -7.5625zm46.10742 9.828125l-4.578125 0l0 -29.125q-1.640625 1.578125 -4.328125 3.15625q-2.671875 1.5625 -4.8125 2.359375l0 -4.421875q3.84375 -1.796875 6.703125 -4.359375q2.875 -2.5781097 4.0625 -4.9843597l2.953125 0l0 37.374985z" fill-rule="nonzero"/><path fill="#000000" d="m131.71454 464.52936l0 4.390625l-24.59375 0q-0.046875 -1.65625 0.53125 -3.171875q0.9375 -2.515625 3.0 -4.953125q2.078125 -2.4375 5.984375 -5.640625q6.078125 -4.96875 8.203125 -7.875q2.140625 -2.90625 2.140625 -5.5q0 -2.71875 -1.953125 -4.578125q-1.9375 -1.875 -5.0625 -1.875q-3.296875 0 -5.28125 1.984375q-1.984375 1.984375 -2.0 5.484375l-4.703125 -0.484375q0.484375 -5.25 3.625 -8.0q3.15625 -2.765625 8.46875 -2.765625q5.34375 0 8.46875 2.96875q3.125 2.96875 3.125 7.359375q0 2.234375 -0.921875 4.40625q-0.90625 2.15625 -3.03125 4.546875q-2.109375 2.375 -7.03125 6.546875q-4.125 3.453125 -5.296875 4.6875q-1.15625 1.21875 -1.921875 2.46875l18.25 0z" fill-rule="nonzero"/><path fill="#000000" d="m326.01532 450.5606q0 -6.59375 1.359375 -10.625q1.359375 -4.03125 4.03125 -6.203125q2.6875 -2.1875 6.75 -2.1875q3.0 0 5.25 1.203125q2.265625 1.203125 3.734375 3.484375q1.46875 2.265625 2.3125 5.53125q0.84375 3.265625 0.84375 8.796875q0 6.546875 -1.359375 10.578125q-1.34375 4.015625 -4.015625 6.21875q-2.671875 2.203125 -6.765625 2.203125q-5.390625 0 -8.453125 -3.859375q-3.6875 -4.65625 -3.6875 -15.140625zm4.703125 0q0 9.171875 2.140625 12.203125q2.140625 3.03125 5.296875 3.03125q3.140625 0 5.28125 -3.046875q2.15625 -3.046875 2.15625 -12.1875q0 -9.1875 -2.15625 -12.203125q-2.140625 -3.03125 -5.328125 -3.03125q-3.15625 0 -5.03125 2.671875q-2.359375 3.390625 -2.359375 12.5625zm26.779297 18.359375l0 -5.203125l5.203125 0l0 5.203125l-5.203125 0zm11.884766 -9.75l4.796875 -0.40625q0.53125 3.5 2.46875 5.265625q1.953125 1.765625 4.703125 1.765625q3.296875 0 5.578125 -2.484375q2.28125 -2.484375 2.28125 -6.609375q0 -3.90625 -2.203125 -6.15625q-2.1875 -2.265625 -5.734375 -2.265625q-2.21875 0 -4.0 1.0q-1.765625 1.0 -2.78125 2.609375l-4.296875 -0.5625l3.609375 -19.125l18.515625 0l0 4.375l-14.859375 0l-2.0 10.0q3.34375 -2.34375 7.03125 -2.34375q4.875 0 8.21875 3.390625q3.359375 3.375 3.359375 8.671875q0 5.0625 -2.953125 8.734375q-3.578125 4.53125 -9.765625 4.53125q-5.078125 0 -8.296875 -2.84375q-3.21875 -2.84375 -3.671875 -7.546875z" fill-rule="nonzero"/><path fill="#000000" d="m587.6989 450.5606q0 -6.59375 1.359375 -10.625q1.359375 -4.03125 4.03125 -6.203125q2.6875 -2.1875 6.75 -2.1875q3.0 0 5.25 1.203125q2.265625 1.203125 3.734375 3.484375q1.46875 2.265625 2.3125 5.53125q0.84375 3.265625 0.84375 8.796875q0 6.546875 -1.359375 10.578125q-1.34375 4.015625 -4.015625 6.21875q-2.671875 2.203125 -6.765625 2.203125q-5.390625 0 -8.453125 -3.859375q-3.6875 -4.65625 -3.6875 -15.140625zm4.703125 0q0 9.171875 2.140625 12.203125q2.140625 3.03125 5.296875 3.03125q3.140625 0 5.28125 -3.046875q2.15625 -3.046875 2.15625 -12.1875q0 -9.1875 -2.15625 -12.203125q-2.140625 -3.03125 -5.328125 -3.03125q-3.15625 0 -5.03125 2.671875q-2.359375 3.390625 -2.359375 12.5625z" fill-rule="nonzero"/><path fill="#000000" d="m836.9577 440.8106l-4.546875 0.359375q-0.609375 -2.6875 -1.71875 -3.90625q-1.859375 -1.96875 -4.578125 -1.96875q-2.1875 0 -3.828125 1.21875q-2.15625 1.578125 -3.40625 4.609375q-1.25 3.015625 -1.296875 8.59375q1.65625 -2.5 4.03125 -3.71875q2.390625 -1.21875 5.015625 -1.21875q4.5625 0 7.765625 3.359375q3.21875 3.359375 3.21875 8.6875q0 3.515625 -1.515625 6.53125q-1.5 3.0 -4.140625 4.609375q-2.640625 1.59375 -6.0 1.59375q-5.703125 0 -9.3125 -4.203125q-3.609375 -4.203125 -3.609375 -13.859375q0 -10.78125 3.984375 -15.6875q3.484375 -4.265625 9.375 -4.265625q4.390625 0 7.1875 2.46875q2.8125 2.453125 3.375 6.796875zm-18.65625 16.046875q0 2.359375 1.0 4.515625q1.0 2.15625 2.796875 3.296875q1.8125 1.125 3.78125 1.125q2.90625 0 4.984375 -2.328125q2.078125 -2.34375 2.078125 -6.359375q0 -3.859375 -2.0625 -6.078125q-2.046875 -2.21875 -5.171875 -2.21875q-3.09375 0 -5.25 2.21875q-2.15625 2.21875 -2.15625 5.828125zm24.169922 -20.28125l0 -4.390625l24.09375 0l0 3.546875q-3.5625 3.78125 -7.0625 10.0625q-3.484375 6.265625 -5.375 12.890625q-1.375 4.671875 -1.765625 10.234375l-4.6875 0q0.078125 -4.390625 1.71875 -10.609375q1.65625 -6.21875 4.734375 -12.0q3.09375 -5.78125 6.5625 -9.734375l-18.21875 0z" fill-rule="nonzero"/><path fill="#000000" d="m107.73016 639.09186l4.5625 -0.609375q0.796875 3.890625 2.6875 5.609375q1.890625 1.703125 4.609375 1.703125q3.21875 0 5.4375 -2.234375q2.21875 -2.234375 2.21875 -5.53125q0 -3.15625 -2.0625 -5.1875q-2.046875 -2.046875 -5.21875 -2.046875q-1.296875 0 -3.21875 0.5l0.5 -4.015625q0.453125 0.0625 0.734375 0.0625q2.921875 0 5.25 -1.515625q2.34375 -1.53125 2.34375 -4.703125q0 -2.515625 -1.703125 -4.171875q-1.703125 -1.65625 -4.390625 -1.65625q-2.65625 0 -4.4375 1.6875q-1.78125 1.671875 -2.28125 5.015625l-4.578125 -0.8125q0.84375 -4.59375 3.8125 -7.109375q2.96875 -2.53125 7.390625 -2.53125q3.046875 0 5.609375 1.3125q2.5625 1.296875 3.921875 3.5625q1.359375 2.265625 1.359375 4.796875q0 2.40625 -1.296875 4.390625q-1.296875 1.984375 -3.828125 3.15625q3.296875 0.75 5.125 3.15625q1.828125 2.40625 1.828125 6.0q0 4.875 -3.5625 8.265625q-3.546875 3.390625 -8.984375 3.390625q-4.90625 0 -8.140625 -2.921875q-3.234375 -2.921875 -3.6875 -7.5625z" fill-rule="nonzero"/><path fill="#000000" d="m350.03094 644.52936l0 4.390625l-24.59375 0q-0.046875 -1.65625 0.53125 -3.171875q0.9375 -2.515625 3.0 -4.953125q2.078125 -2.4375 5.984375 -5.640625q6.078125 -4.96875 8.203125 -7.875q2.140625 -2.90625 2.140625 -5.5q0 -2.71875 -1.953125 -4.578125q-1.9375 -1.875 -5.0625 -1.875q-3.296875 0 -5.28125 1.984375q-1.984375 1.984375 -2.0 5.484375l-4.703125 -0.484375q0.484375 -5.25 3.625 -8.0q3.15625 -2.765625 8.46875 -2.765625q5.34375 0 8.46875 2.96875q3.125 2.96875 3.125 7.359375q0 2.234375 -0.921875 4.40625q-0.90625 2.15625 -3.03125 4.546875q-2.109375 2.375 -7.03125 6.546875q-4.125 3.453125 -5.296875 4.6875q-1.15625 1.21875 -1.921875 2.46875l18.25 0zm7.466797 4.390625l0 -5.203125l5.203125 0l0 5.203125l-5.203125 0zm12.197266 -32.34375l0 -4.390625l24.09375 0l0 3.546875q-3.5625 3.78125 -7.0625 10.0625q-3.484375 6.265625 -5.375 12.890625q-1.375 4.671875 -1.765625 10.234375l-4.6875 0q0.078125 -4.390625 1.71875 -10.609375q1.65625 -6.21875 4.734375 -12.0q3.09375 -5.78125 6.5625 -9.734375l-18.21875 0z" fill-rule="nonzero"/><path fill="#000000" d="m604.91766 648.92l-4.578125 0l0 -29.125q-1.640625 1.578125 -4.328125 3.15625q-2.671875 1.5625 -4.8125 2.359375l0 -4.421875q3.84375 -1.796875 6.703125 -4.359375q2.875 -2.578125 4.0625 -4.984375l2.953125 0l0 37.375z" fill-rule="nonzero"/><path fill="#000000" d="m827.8952 648.92l0 -8.90625l-16.15625 0l0 -4.203125l16.984375 -24.109375l3.734375 0l0 24.109375l5.03125 0l0 4.203125l-5.03125 0l0 8.90625l-4.5625 0zm0 -13.109375l0 -16.78125l-11.65625 16.78125l11.65625 0zm38.279297 8.71875l0 4.390625l-24.59375 0q-0.046875 -1.65625 0.53125 -3.171875q0.9375 -2.515625 3.0 -4.953125q2.078125 -2.4375 5.984375 -5.640625q6.078125 -4.96875 8.203125 -7.875q2.140625 -2.90625 2.140625 -5.5q0 -2.71875 -1.953125 -4.578125q-1.9375 -1.875 -5.0625 -1.875q-3.296875 0 -5.28125 1.984375q-1.984375 1.984375 -2.0 5.484375l-4.703125 -0.484375q0.484375 -5.25 3.625 -8.0q3.15625 -2.765625 8.46875 -2.765625q5.34375 0 8.46875 2.96875q3.125 2.96875 3.125 7.359375q0 2.234375 -0.921875 4.40625q-0.90625 2.15625 -3.03125 4.546875q-2.109375 2.375 -7.03125 6.546875q-4.125 3.453125 -5.296875 4.6875q-1.15625 1.21875 -1.921875 2.46875l18.25 0z" fill-rule="nonzero"/></g></svg>