<svg version="1.1" viewBox="0.0 0.0 960.0 720.0" fill="none" stroke="none" stroke-linecap="square" stroke-miterlimit="10" xmlns:xlink="http://www.w3.org/1999/xlink" xmlns="http://www.w3.org/2000/svg"><clipPath id="g8dc20d402a_0_12.0"><path d="m0 0l960.0 0l0 720.0l-960.0 0l0 -720.0z" clip-rule="nonzero"/></clipPath><g clip-path="url(#g8dc20d402a_0_12.0)"><defs><radialGradient id="g8dc20d402a_0_12.1" gradientUnits="userSpaceOnUse" gradientTransform="matrix(24.49489742783178 0.0 0.0 24.49489742783178 0.0 0.0)" spreadMethod="pad" cx="19.595917942265427" cy="14.696938456699069" fx="19.595917942265427" fy="14.696938456699069" r="24.494897842407227"><stop offset="0.0" stop-color="#ffffff"/><stop offset="1.0" stop-color="#ebebeb"/></radialGradient></defs><path fill="url(#g8dc20d402a_0_12.1)" d="m0 0l960.0 0l0 720.0l-960.0 0z" fill-rule="evenodd"/><path shape-rendering="crispEdges" fill="#b7b7b7" d="m-0.005249344 0.0036745407l127.1916 0l0 102.85564l-127.1916 0l0 -102.85564z" fill-rule="nonzero"/><path shape-rendering="crispEdges" fill="#b7b7b7" d="m127.18635 0.0036745407l127.19161 0l0 102.85564l-127.19161 0l0 -102.85564z" fill-rule="nonzero"/><path shape-rendering="crispEdges" fill="#b7b7b7" d="m254.37796 0.0036745407l157.04199 0l0 102.85564l-157.04199 0l0 -102.85564z" fill-rule="nonzero"/><path shape-rendering="crispEdges" fill="#b7b7b7" d="m411.41995 0.0036745407l189.59842 0l0 102.85564l-189.59842 0l0 -102.85564z" fill-rule="nonzero"/><path shape-rendering="crispEdges" fill="#b7b7b7" d="m601.0184 0.0036745407l119.65094 0l0 102.85564l-119.65094 0l0 -102.85564z" fill-rule="nonzero"/><path shape-rendering="crispEdges" fill="#b7b7b7" d="m720.6693 0.0036745407l119.65088 0l0 102.85564l-119.65088 0l0 -102.85564z" fill-rule="nonzero"/><path shape-rendering="crispEdges" fill="#b7b7b7" d="m840.3202 0.0036745407l119.65094 0l0 102.85564l-119.65094 0l0 -102.85564z" fill-rule="nonzero"/><path shape-rendering="crispEdges" fill="#fafafa" d="m-0.005249344 102.859314l127.1916 0l0 102.85565l-127.1916 0l0 -102.85565z" fill-rule="nonzero"/><path shape-rendering="crispEdges" fill="#fafafa" d="m127.18635 102.859314l127.19161 0l0 102.85565l-127.19161 0l0 -102.85565z" fill-rule="nonzero"/><path shape-rendering="crispEdges" fill="#fafafa" d="m254.37796 102.859314l157.04199 0l0 102.85565l-157.04199 0l0 -102.85565z" fill-rule="nonzero"/><path shape-rendering="crispEdges" fill="#fafafa" d="m411.41995 102.859314l189.59842 0l0 102.85565l-189.59842 0l0 -102.85565z" fill-rule="nonzero"/><path shape-rendering="crispEdges" fill="#fafafa" d="m601.0184 102.859314l119.65094 0l0 102.85565l-119.65094 0l0 -102.85565z" fill-rule="nonzero"/><path shape-rendering="crispEdges" fill="#fafafa" d="m720.6693 102.859314l119.65088 0l0 102.85565l-119.65088 0l0 -102.85565z" fill-rule="nonzero"/><path shape-rendering="crispEdges" fill="#fafafa" d="m840.3202 102.859314l119.65094 0l0 102.85565l-119.65094 0l0 -102.85565z" fill-rule="nonzero"/><path shape-rendering="crispEdges" fill="#fafafa" d="m-0.005249344 205.71497l127.1916 0l0 102.85565l-127.1916 0l0 -102.85565z" fill-rule="nonzero"/><path shape-rendering="crispEdges" fill="#fafafa" d="m127.18635 205.71497l127.19161 0l0 102.85565l-127.19161 0l0 -102.85565z" fill-rule="nonzero"/><path shape-rendering="crispEdges" fill="#fafafa" d="m254.37796 205.71497l157.04199 0l0 102.85565l-157.04199 0l0 -102.85565z" fill-rule="nonzero"/><path shape-rendering="crispEdges" fill="#fafafa" d="m411.41995 205.71497l189.59842 0l0 102.85565l-189.59842 0l0 -102.85565z" fill-rule="nonzero"/><path shape-rendering="crispEdges" fill="#fafafa" d="m601.0184 205.71497l119.65094 0l0 102.85565l-119.65094 0l0 -102.85565z" fill-rule="nonzero"/><path shape-rendering="crispEdges" fill="#fafafa" d="m720.6693 205.71497l119.65088 0l0 102.85565l-119.65088 0l0 -102.85565z" fill-rule="nonzero"/><path shape-rendering="crispEdges" fill="#fafafa" d="m840.3202 205.71497l119.65094 0l0 102.85565l-119.65094 0l0 -102.85565z" fill-rule="nonzero"/><path shape-rendering="crispEdges" fill="#d9d9d9" d="m-0.005249344 308.57062l127.1916 0l0 102.85562l-127.1916 0l0 -102.85562z" fill-rule="nonzero"/><path shape-rendering="crispEdges" fill="#d9d9d9" d="m127.18635 308.57062l127.19161 0l0 102.85562l-127.19161 0l0 -102.85562z" fill-rule="nonzero"/><path shape-rendering="crispEdges" fill="#d9d9d9" d="m254.37796 308.57062l157.04199 0l0 102.85562l-157.04199 0l0 -102.85562z" fill-rule="nonzero"/><path shape-rendering="crispEdges" fill="#d9d9d9" d="m411.41995 308.57062l189.59842 0l0 102.85562l-189.59842 0l0 -102.85562z" fill-rule="nonzero"/><path shape-rendering="crispEdges" fill="#d9d9d9" d="m601.0184 308.57062l119.65094 0l0 102.85562l-119.65094 0l0 -102.85562z" fill-rule="nonzero"/><path shape-rendering="crispEdges" fill="#d9d9d9" d="m720.6693 308.57062l119.65088 0l0 102.85562l-119.65088 0l0 -102.85562z" fill-rule="nonzero"/><path shape-rendering="crispEdges" fill="#d9d9d9" d="m840.3202 308.57062l119.65094 0l0 102.85562l-119.65094 0l0 -102.85562z" fill-rule="nonzero"/><path shape-rendering="crispEdges" fill="#fafafa" d="m-0.005249344 411.42624l127.1916 0l0 102.85562l-127.1916 0l0 -102.85562z" fill-rule="nonzero"/><path shape-rendering="crispEdges" fill="#fafafa" d="m127.18635 411.42624l127.19161 0l0 102.85562l-127.19161 0l0 -102.85562z" fill-rule="nonzero"/><path shape-rendering="crispEdges" fill="#fafafa" d="m254.37796 411.42624l157.04199 0l0 102.85562l-157.04199 0l0 -102.85562z" fill-rule="nonzero"/><path shape-rendering="crispEdges" fill="#fafafa" d="m411.41995 411.42624l189.59842 0l0 102.85562l-189.59842 0l0 -102.85562z" fill-rule="nonzero"/><path shape-rendering="crispEdges" fill="#fafafa" d="m601.0184 411.42624l119.65094 0l0 102.85562l-119.65094 0l0 -102.85562z" fill-rule="nonzero"/><path shape-rendering="crispEdges" fill="#fafafa" d="m720.6693 411.42624l119.65088 0l0 102.85562l-119.65088 0l0 -102.85562z" fill-rule="nonzero"/><path shape-rendering="crispEdges" fill="#fafafa" d="m840.3202 411.42624l119.65094 0l0 102.85562l-119.65094 0l0 -102.85562z" fill-rule="nonzero"/><path shape-rendering="crispEdges" fill="#fafafa" d="m-0.005249344 514.28186l127.1916 0l0 102.85565l-127.1916 0l0 -102.85565z" fill-rule="nonzero"/><path shape-rendering="crispEdges" fill="#fafafa" d="m127.18635 514.28186l127.19161 0l0 102.85565l-127.19161 0l0 -102.85565z" fill-rule="nonzero"/><path shape-rendering="crispEdges" fill="#fafafa" d="m254.37796 514.28186l157.04199 0l0 102.85565l-157.04199 0l0 -102.85565z" fill-rule="nonzero"/><path shape-rendering="crispEdges" fill="#fafafa" d="m411.41995 514.28186l189.59842 0l0 102.85565l-189.59842 0l0 -102.85565z" fill-rule="nonzero"/><path shape-rendering="crispEdges" fill="#fafafa" d="m601.0184 514.28186l119.65094 0l0 102.85565l-119.65094 0l0 -102.85565z" fill-rule="nonzero"/><path shape-rendering="crispEdges" fill="#fafafa" d="m720.6693 514.28186l119.65088 0l0 102.85565l-119.65088 0l0 -102.85565z" fill-rule="nonzero"/><path shape-rendering="crispEdges" fill="#fafafa" d="m840.3202 514.28186l119.65094 0l0 102.85565l-119.65094 0l0 -102.85565z" fill-rule="nonzero"/><path shape-rendering="crispEdges" fill="#fafafa" d="m-0.005249344 617.1375l127.1916 0l0 102.85565l-127.1916 0l0 -102.85565z" fill-rule="nonzero"/><path shape-rendering="crispEdges" fill="#fafafa" d="m127.18635 617.1375l127.19161 0l0 102.85565l-127.19161 0l0 -102.85565z" fill-rule="nonzero"/><path shape-rendering="crispEdges" fill="#fafafa" d="m254.37796 617.1375l157.04199 0l0 102.85565l-157.04199 0l0 -102.85565z" fill-rule="nonzero"/><path shape-rendering="crispEdges" fill="#fafafa" d="m411.41995 617.1375l189.59842 0l0 102.85565l-189.59842 0l0 -102.85565z" fill-rule="nonzero"/><path shape-rendering="crispEdges" fill="#fafafa" d="m601.0184 617.1375l119.65094 0l0 102.85565l-119.65094 0l0 -102.85565z" fill-rule="nonzero"/><path shape-rendering="crispEdges" fill="#fafafa" d="m720.6693 617.1375l119.65088 0l0 102.85565l-119.65088 0l0 -102.85565z" fill-rule="nonzero"/><path shape-rendering="crispEdges" fill="#fafafa" d="m840.3202 617.1375l119.65094 0l0 102.85565l-119.65094 0l0 -102.85565z" fill-rule="nonzero"/><path stroke="#9e9e9e" stroke-width="1.0" stroke-linecap="butt" d="m-0.005249344 -0.49501312l0 720.9869" fill-rule="nonzero"/><path stroke="#9e9e9e" stroke-width="1.0" stroke-linecap="butt" d="m127.18635 -0.49501312l0 720.9869" fill-rule="nonzero"/><path stroke="#9e9e9e" stroke-width="1.0" stroke-linecap="butt" d="m254.37796 -0.49501312l0 720.9869" fill-rule="nonzero"/><path stroke="#9e9e9e" stroke-width="1.0" stroke-linecap="butt" d="m411.41995 -0.49501312l0 720.9869" fill-rule="nonzero"/><path stroke="#9e9e9e" stroke-width="1.0" stroke-linecap="butt" d="m601.0184 -0.49501312l0 720.9869" fill-rule="nonzero"/><path stroke="#9e9e9e" stroke-width="8.0" stroke-linecap="butt" d="m720.6693 -3.9963255l0 727.9895" fill-rule="nonzero"/><path stroke="#9e9e9e" stroke-width="8.0" stroke-linecap="butt" d="m840.3202 -3.9963255l0 727.9895" fill-rule="nonzero"/><path stroke="#9e9e9e" stroke-width="1.0" stroke-linecap="butt" d="m959.9711 -0.49501312l0 721.48816" fill-rule="nonzero"/><path stroke="#9e9e9e" stroke-width="1.0" stroke-linecap="butt" d="m-0.503937 0.0036745407l717.1733 0" fill-rule="nonzero"/><path stroke="#9e9e9e" stroke-width="8.0" stroke-linecap="butt" d="m716.6693 0.0036745407l127.65088 0" fill-rule="nonzero"/><path stroke="#9e9e9e" stroke-width="1.0" stroke-linecap="butt" d="m844.3202 0.0036745407l116.1496 0" fill-rule="nonzero"/><path stroke="#9e9e9e" stroke-width="1.0" stroke-linecap="butt" d="m-0.503937 102.859314l960.97375 0" fill-rule="nonzero"/><path stroke="#9e9e9e" stroke-width="1.0" stroke-linecap="butt" stroke-dasharray="4.0,3.0" d="m-0.503937 205.71497l960.97375 0" fill-rule="nonzero"/><path stroke="#9e9e9e" stroke-width="2.0" stroke-linecap="butt" d="m-0.503937 308.57062l960.97375 0" fill-rule="nonzero"/><path stroke="#9e9e9e" stroke-width="2.0" stroke-linecap="butt" d="m-0.503937 411.42624l960.97375 0" fill-rule="nonzero"/><path stroke="#9e9e9e" stroke-width="1.0" stroke-linecap="butt" stroke-dasharray="4.0,3.0" d="m-0.503937 514.28186l960.97375 0" fill-rule="nonzero"/><path stroke="#9e9e9e" stroke-width="1.0" stroke-linecap="butt" stroke-dasharray="4.0,3.0" d="m-0.503937 617.1375l960.97375 0" fill-rule="nonzero"/><path stroke="#9e9e9e" stroke-width="1.0" stroke-linecap="butt" d="m-0.503937 719.99316l717.1733 0" fill-rule="nonzero"/><path stroke="#9e9e9e" stroke-width="8.0" stroke-linecap="butt" d="m716.6693 719.99316l127.65088 0" fill-rule="nonzero"/><path stroke="#9e9e9e" stroke-width="2.0" stroke-linecap="butt" d="m844.3202 719.99316l116.1496 0" fill-rule="nonzero"/><path fill="#000000" d="m24.671844 64.7715l0 -26.718754l5.40625 0l0 26.718754l-5.40625 0zm10.527206 -26.718754l9.859375 0q3.328125 0 5.078125 0.515625q2.359375 0.6875 4.03125 2.453125q1.671875 1.765625 2.546875 4.328125q0.875 2.5625 0.875 6.3125q0 3.296875 -0.8125 5.6875q-1.0 2.921875 -2.859375 4.71875q-1.40625 1.375 -3.796875 2.1406288q-1.78125 0.5625 -4.78125 0.5625l-10.140625 0l0 -26.718754zm5.390625 4.515625l0 17.703125l4.03125 0q2.25 0 3.265625 -0.25q1.3125 -0.328125 2.171875 -1.109375q0.859375 -0.796875 1.40625 -2.59375q0.546875 -1.796875 0.546875 -4.890625q0 -3.09375 -0.546875 -4.75q-0.546875 -1.65625 -1.53125 -2.578125q-0.984375 -0.9375 -2.484375 -1.265625q-1.140625 -0.265625 -4.4375 -0.265625l-2.421875 0zm40.406265 30.062504l-3.515625 0q-2.796875 -4.21875 -4.25 -8.750004q-1.453125 -4.546875 -1.453125 -8.78125q0 -5.28125 1.796875 -9.96875q1.578125 -4.09375 3.984375 -7.53125l3.5 0q-2.5 5.515625 -3.4375 9.390625q-0.9375 3.875 -0.9375 8.21875q0 2.984375 0.546875 6.125q0.5625 3.1250038 1.53125 5.953129q0.625 1.859375 2.234375 5.34375zm3.9305573 -29.843754l0 -4.734375l5.125 0l0 4.734375l-5.125 0zm0 21.984379l0 -19.359379l5.125 0l0 19.359379l-5.125 0zm8.949081 7.859375q1.515625 -3.25 2.140625 -4.984375q0.625 -1.734375 1.140625 -3.9843788q0.53125 -2.265625 0.78125 -4.296875q0.265625 -2.03125 0.265625 -4.15625q0 -4.34375 -0.9375 -8.21875q-0.921875 -3.875 -3.421875 -9.390625l3.484375 0q2.75 3.921875 4.265625 8.3125q1.53125 4.390625 1.53125 8.90625q0 3.8125 -1.203125 8.171875q-1.375 4.875004 -4.5 9.640629l-3.546875 0z" fill-rule="nonzero"/><path fill="#000000" d="m188.15918 42.78712l0 -4.734375l5.125 0l0 4.734375l-5.125 0zm5.125 2.625l0 18.765629q0 3.6875 -0.484375 5.203125q-0.484375 1.53125 -1.859375 2.390625q-1.375 0.859375 -3.5 0.859375q-0.765625 0 -1.65625 -0.140625q-0.875 -0.140625 -1.90625 -0.40625l0.90625 -4.375q0.359375 0.0625 0.6875 0.109375q0.3125 0.046875 0.578125 0.046875q0.78125 0 1.28125 -0.34375q0.5 -0.328125 0.65625 -0.8125q0.171875 -0.46875 0.171875 -2.8281288l0 -18.46875l5.125 0z" fill-rule="nonzero"/><path fill="#000000" d="m269.18033 42.78712l0 -4.734375l5.125 0l0 4.734375l-5.125 0zm0 21.984379l0 -19.359379l5.125 0l0 19.359379l-5.125 0zm27.980316 0l-5.109375 0l0 -9.875004q0 -3.140625 -0.328125 -4.0625q-0.328125 -0.921875 -1.078125 -1.421875q-0.734375 -0.515625 -1.765625 -0.515625q-1.34375 0 -2.40625 0.734375q-1.046875 0.71875 -1.4375 1.921875q-0.390625 1.203125 -0.390625 4.453125l0 8.765629l-5.125 0l0 -19.359379l4.765625 0l0 2.84375q2.53125 -3.28125 6.375 -3.28125q1.6875 0 3.09375 0.609375q1.40625 0.609375 2.125 1.5625q0.71875 0.953125 1.0 2.15625q0.28125 1.203125 0.28125 3.4375l0 12.031254zm14.082764 -19.359379l0 4.078125l-3.5 0l0 7.8125q0 2.359375 0.09375 2.765625q0.09375 0.390625 0.453125 0.640625q0.359375 0.25 0.875 0.25q0.703125 0 2.046875 -0.484375l0.4375 3.9687538q-1.78125 0.765625 -4.046875 0.765625q-1.375 0 -2.5 -0.453125q-1.109375 -0.46875 -1.625 -1.2031288q-0.515625 -0.75 -0.71875 -2.0q-0.15625 -0.90625 -0.15625 -3.609375l0 -8.453125l-2.359375 0l0 -4.078125l2.359375 0l0 -3.84375l5.140625 -2.984375l0 6.828125l3.5 0zm14.7586975 13.203125l5.09375 0.859375q-0.96875 2.796875 -3.09375 4.265625q-2.125 1.4687538 -5.3125 1.4687538q-5.0625 0 -7.484375 -3.2968788q-1.90625 -2.640625 -1.90625 -6.671875q0 -4.8125 2.515625 -7.53125q2.515625 -2.734375 6.359375 -2.734375q4.3125 0 6.8125 2.859375q2.5 2.84375 2.390625 8.734375l-12.828125 0q0.046875 2.28125 1.234375 3.546875q1.1875 1.265625 2.953125 1.265625q1.203125 0 2.015625 -0.65625q0.828125 -0.65625 1.25 -2.109375zm0.296875 -5.1875q-0.0625 -2.21875 -1.15625 -3.375q-1.09375 -1.15625 -2.65625 -1.15625q-1.6875 0 -2.78125 1.21875q-1.09375 1.21875 -1.0625 3.3125l7.65625 0zm14.150757 11.343754l-5.125 0l0 -19.359379l4.765625 0l0 2.75q1.21875 -1.953125 2.1875 -2.5625q0.984375 -0.625 2.21875 -0.625q1.75 0 3.375 0.96875l-1.578125 4.46875q-1.296875 -0.84375 -2.40625 -0.84375q-1.078125 0 -1.828125 0.59375q-0.75 0.59375 -1.1875 2.140625q-0.421875 1.546875 -0.421875 6.484375l0 5.984379zm14.948486 0l-7.796875 -19.359379l5.375 0l3.640625 9.875l1.0625 3.3125q0.421875 -1.265625 0.53125 -1.671875q0.25 -0.8125 0.546875 -1.640625l3.671875 -9.875l5.265625 0l-7.6875 19.359379l-4.609375 0zm19.260132 -13.453129l-4.640625 -0.84375q0.78125 -2.796875 2.6875 -4.140625q1.921875 -1.359375 5.703125 -1.359375q3.421875 0 5.09375 0.8125q1.6875 0.8125 2.359375 2.0625q0.6875 1.25 0.6875 4.578125l-0.046875 5.984375q0 2.546875 0.234375 3.765625q0.25 1.203125 0.921875 2.5937538l-5.0625 0q-0.203125 -0.515625 -0.5 -1.5156288q-0.125 -0.453125 -0.171875 -0.59375q-1.3125 1.265625 -2.8125 1.9062538q-1.5 0.640625 -3.1875 0.640625q-2.984375 0 -4.71875 -1.6250038q-1.71875 -1.625 -1.71875 -4.09375q0 -1.640625 0.78125 -2.921875q0.78125 -1.296875 2.1875 -1.96875q1.421875 -0.6875 4.09375 -1.203125q3.578125 -0.671875 4.96875 -1.25l0 -0.515625q0 -1.484375 -0.734375 -2.109375q-0.71875 -0.625 -2.75 -0.625q-1.359375 0 -2.125 0.546875q-0.765625 0.53125 -1.25 1.875zm6.859375 4.15625q-0.984375 0.328125 -3.125 0.78125q-2.125 0.453125 -2.78125 0.890625q-1.0 0.71875 -1.0 1.8125q0 1.078125 0.796875 1.859375q0.8125 0.78125 2.046875 0.78125q1.390625 0 2.640625 -0.90625q0.9375 -0.703125 1.21875 -1.703125q0.203125 -0.65625 0.203125 -2.5l0 -1.015625zm10.072632 9.296879l0 -26.718754l5.125 0l0 26.718754l-5.125 0z" fill-rule="nonzero"/><path fill="#000000" d="m424.13565 59.25587l5.140625 -0.796875q0.328125 1.5 1.328125 2.28125q1.0 0.765625 2.8125 0.765625q1.984375 0 2.984375 -0.71875q0.671875 -0.515625 0.671875 -1.375q0 -0.578125 -0.359375 -0.96875q-0.390625 -0.359375 -1.71875 -0.671875q-6.1875 -1.359375 -7.859375 -2.5q-2.296875 -1.5625 -2.296875 -4.359375q0 -2.515625 1.984375 -4.21875q2.0 -1.71875 6.171875 -1.71875q3.96875 0 5.90625 1.296875q1.9375 1.296875 2.65625 3.828125l-4.828125 0.890625q-0.3125 -1.125 -1.1875 -1.71875q-0.859375 -0.609375 -2.453125 -0.609375q-2.03125 0 -2.90625 0.5625q-0.578125 0.40625 -0.578125 1.03125q0 0.546875 0.515625 0.9375q0.6875 0.515625 4.78125 1.453125q4.09375 0.921875 5.71875 2.265625q1.59375 1.359375 1.59375 3.8125q0 2.65625 -2.21875 4.578125q-2.21875 1.9062538 -6.578125 1.9062538q-3.953125 0 -6.265625 -1.5937538q-2.3125 -1.609375 -3.015625 -4.359375zm31.447632 -13.84375l0 4.078125l-3.5 0l0 7.8125q0 2.359375 0.09375 2.765625q0.09375 0.390625 0.453125 0.640625q0.359375 0.25 0.875 0.25q0.703125 0 2.046875 -0.484375l0.4375 3.9687538q-1.78125 0.765625 -4.046875 0.765625q-1.375 0 -2.5 -0.453125q-1.109375 -0.46875 -1.625 -1.2031288q-0.515625 -0.75 -0.71875 -2.0q-0.15625 -0.90625 -0.15625 -3.609375l0 -8.453125l-2.359375 0l0 -4.078125l2.359375 0l0 -3.84375l5.140625 -2.984375l0 6.828125l3.5 0zm7.3680725 5.90625l-4.640625 -0.84375q0.78125 -2.796875 2.6875 -4.140625q1.921875 -1.359375 5.703125 -1.359375q3.421875 0 5.09375 0.8125q1.6875 0.8125 2.359375 2.0625q0.6875 1.25 0.6875 4.578125l-0.046875 5.984375q0 2.546875 0.234375 3.765625q0.25 1.203125 0.921875 2.5937538l-5.0625 0q-0.203125 -0.515625 -0.5 -1.5156288q-0.125 -0.453125 -0.171875 -0.59375q-1.3125 1.265625 -2.8125 1.9062538q-1.5 0.640625 -3.1875 0.640625q-2.984375 0 -4.71875 -1.6250038q-1.71875 -1.625 -1.71875 -4.09375q0 -1.640625 0.78125 -2.921875q0.78125 -1.296875 2.1875 -1.96875q1.421875 -0.6875 4.09375 -1.203125q3.578125 -0.671875 4.96875 -1.25l0 -0.515625q0 -1.484375 -0.734375 -2.109375q-0.71875 -0.625 -2.75 -0.625q-1.359375 0 -2.125 0.546875q-0.765625 0.53125 -1.25 1.875zm6.859375 4.15625q-0.984375 0.328125 -3.125 0.78125q-2.125 0.453125 -2.78125 0.890625q-1.0 0.71875 -1.0 1.8125q0 1.078125 0.796875 1.859375q0.8125 0.78125 2.046875 0.78125q1.390625 0 2.640625 -0.90625q0.9375 -0.703125 1.21875 -1.703125q0.203125 -0.65625 0.203125 -2.5l0 -1.015625zm18.963257 -10.0625l0 4.078125l-3.5 0l0 7.8125q0 2.359375 0.09375 2.765625q0.09375 0.390625 0.453125 0.640625q0.359375 0.25 0.875 0.25q0.703125 0 2.046875 -0.484375l0.4375 3.9687538q-1.78125 0.765625 -4.046875 0.765625q-1.375 0 -2.5 -0.453125q-1.109375 -0.46875 -1.625 -1.2031288q-0.515625 -0.75 -0.71875 -2.0q-0.15625 -0.90625 -0.15625 -3.609375l0 -8.453125l-2.359375 0l0 -4.078125l2.359375 0l0 -3.84375l5.140625 -2.984375l0 6.828125l3.5 0zm16.289917 19.359379l0 -2.8906288q-1.0625 1.546875 -2.78125 2.4375038q-1.71875 0.890625 -3.640625 0.890625q-1.953125 0 -3.5 -0.859375q-1.546875 -0.8593788 -2.25 -2.4062538q-0.6875 -1.546875 -0.6875 -4.28125l0 -12.25l5.125 0l0 8.890625q0 4.09375 0.28125 5.015625q0.28125 0.921875 1.03125 1.453125q0.75 0.53125 1.90625 0.53125q1.3125 0 2.34375 -0.71875q1.046875 -0.71875 1.421875 -1.78125q0.390625 -1.0625 0.390625 -5.21875l0 -8.171875l5.109375 0l0 19.359379l-4.75 0zm8.254639 -5.515629l5.140625 -0.796875q0.328125 1.5 1.328125 2.28125q1.0 0.765625 2.8125 0.765625q1.984375 0 2.984375 -0.71875q0.671875 -0.515625 0.671875 -1.375q0 -0.578125 -0.359375 -0.96875q-0.390625 -0.359375 -1.71875 -0.671875q-6.1875 -1.359375 -7.859375 -2.5q-2.296875 -1.5625 -2.296875 -4.359375q0 -2.515625 1.984375 -4.21875q2.0 -1.71875 6.171875 -1.71875q3.96875 0 5.90625 1.296875q1.9375 1.296875 2.65625 3.828125l-4.828125 0.890625q-0.3125 -1.125 -1.1875 -1.71875q-0.859375 -0.609375 -2.453125 -0.609375q-2.03125 0 -2.90625 0.5625q-0.578125 0.40625 -0.578125 1.03125q0 0.546875 0.515625 0.9375q0.6875 0.515625 4.78125 1.453125q4.09375 0.921875 5.71875 2.265625q1.59375 1.359375 1.59375 3.8125q0 2.65625 -2.21875 4.578125q-2.21875 1.9062538 -6.578125 1.9062538q-3.953125 0 -6.265625 -1.5937538q-2.3125 -1.609375 -3.015625 -4.359375zm31.057007 13.375004l-3.515625 0q-2.796875 -4.21875 -4.25 -8.750004q-1.453125 -4.546875 -1.453125 -8.78125q0 -5.28125 1.796875 -9.96875q1.578125 -4.09375 3.984375 -7.53125l3.5 0q-2.5 5.515625 -3.4375 9.390625q-0.9375 3.875 -0.9375 8.21875q0 2.984375 0.546875 6.125q0.5625 3.1250038 1.53125 5.953129q0.625 1.859375 2.234375 5.34375zm3.930542 -29.843754l0 -4.734375l5.125 0l0 4.734375l-5.125 0zm0 21.984379l0 -19.359379l5.125 0l0 19.359379l-5.125 0zm10.245972 -5.125004l5.125 0l0 3.671875q0 2.2187538 -0.390625 3.5000038q-0.375 1.28125 -1.4375 2.296875q-1.0625 1.03125 -2.703125 1.609375l-1.015625 -2.109375q1.5625 -0.515625 2.21875 -1.40625q0.65625 -0.890625 0.6875 -2.4375l-2.484375 0l0 -5.125004zm10.386597 -16.859375l0 -4.734375l5.125 0l0 4.734375l-5.125 0zm5.125 2.625l0 18.765629q0 3.6875 -0.484375 5.203125q-0.484375 1.53125 -1.859375 2.390625q-1.375 0.859375 -3.5 0.859375q-0.765625 0 -1.65625 -0.140625q-0.875 -0.140625 -1.90625 -0.40625l0.90625 -4.375q0.359375 0.0625 0.6875 0.109375q0.3125 0.046875 0.578125 0.046875q0.78125 0 1.28125 -0.34375q0.5 -0.328125 0.65625 -0.8125q0.171875 -0.46875 0.171875 -2.8281288l0 -18.46875l5.125 0zm3.9334106 27.218754q1.515625 -3.25 2.140625 -4.984375q0.625 -1.734375 1.140625 -3.9843788q0.53125 -2.265625 0.78125 -4.296875q0.265625 -2.03125 0.265625 -4.15625q0 -4.34375 -0.9375 -8.21875q-0.921875 -3.875 -3.421875 -9.390625l3.484375 0q2.75 3.921875 4.265625 8.3125q1.53125 4.390625 1.53125 8.90625q0 3.8125 -1.203125 8.171875q-1.375 4.875004 -4.5 9.640629l-3.546875 0z" fill-rule="nonzero"/><path fill="#000000" d="m638.20404 45.41212l0 4.078125l-3.5 0l0 7.8125q0 2.359375 0.09375 2.765625q0.09375 0.390625 0.453125 0.640625q0.359375 0.25 0.875 0.25q0.703125 0 2.046875 -0.484375l0.4375 3.9687538q-1.78125 0.765625 -4.046875 0.765625q-1.375 0 -2.5 -0.453125q-1.109375 -0.46875 -1.625 -1.2031288q-0.515625 -0.75 -0.71875 -2.0q-0.15625 -0.90625 -0.15625 -3.609375l0 -8.453125l-2.359375 0l0 -4.078125l2.359375 0l0 -3.84375l5.140625 -2.984375l0 6.828125l3.5 0zm12.039978 27.218754l-3.515625 0q-2.796875 -4.21875 -4.25 -8.750004q-1.453125 -4.546875 -1.453125 -8.78125q0 -5.28125 1.796875 -9.96875q1.578125 -4.09375 3.984375 -7.53125l3.5 0q-2.5 5.515625 -3.4375 9.390625q-0.9375 3.875 -0.9375 8.21875q0 2.984375 0.546875 6.125q0.5625 3.1250038 1.53125 5.953129q0.625 1.859375 2.234375 5.34375zm3.930542 -29.843754l0 -4.734375l5.125 0l0 4.734375l-5.125 0zm0 21.984379l0 -19.359379l5.125 0l0 19.359379l-5.125 0zm10.245972 -5.125004l5.125 0l0 3.671875q0 2.2187538 -0.390625 3.5000038q-0.375 1.28125 -1.4375 2.296875q-1.0625 1.03125 -2.703125 1.609375l-1.015625 -2.109375q1.5625 -0.515625 2.21875 -1.40625q0.65625 -0.890625 0.6875 -2.4375l-2.484375 0l0 -5.125004zm10.386536 -16.859375l0 -4.734375l5.125 0l0 4.734375l-5.125 0zm5.125 2.625l0 18.765629q0 3.6875 -0.484375 5.203125q-0.484375 1.53125 -1.859375 2.390625q-1.375 0.859375 -3.5 0.859375q-0.765625 0 -1.65625 -0.140625q-0.875 -0.140625 -1.90625 -0.40625l0.90625 -4.375q0.359375 0.0625 0.6875 0.109375q0.3125 0.046875 0.578125 0.046875q0.78125 0 1.28125 -0.34375q0.5 -0.328125 0.65625 -0.8125q0.171875 -0.46875 0.171875 -2.8281288l0 -18.46875l5.125 0zm3.9334717 27.218754q1.515625 -3.25 2.140625 -4.984375q0.625 -1.734375 1.140625 -3.9843788q0.53125 -2.265625 0.78125 -4.296875q0.265625 -2.03125 0.265625 -4.15625q0 -4.34375 -0.9375 -8.21875q-0.921875 -3.875 -3.421875 -9.390625l3.484375 0q2.75 3.921875 4.265625 8.3125q1.53125 4.390625 1.53125 8.90625q0 3.8125 -1.203125 8.171875q-1.375 4.875004 -4.5 9.640629l-3.546875 0z" fill-rule="nonzero"/><path fill="#000000" d="m768.22595 45.41212l0 4.078125l-3.5 0l0 7.8125q0 2.359375 0.09375 2.765625q0.09375 0.390625 0.453125 0.640625q0.359375 0.25 0.875 0.25q0.703125 0 2.046875 -0.484375l0.4375 3.9687538q-1.78125 0.765625 -4.046875 0.765625q-1.375 0 -2.5 -0.453125q-1.109375 -0.46875 -1.625 -1.2031288q-0.515625 -0.75 -0.71875 -2.0q-0.15625 -0.90625 -0.15625 -3.609375l0 -8.453125l-2.359375 0l0 -4.078125l2.359375 0l0 -3.84375l5.140625 -2.984375l0 6.828125l3.5 0zm12.039917 27.218754l-3.515625 0q-2.796875 -4.21875 -4.25 -8.750004q-1.453125 -4.546875 -1.453125 -8.78125q0 -5.28125 1.796875 -9.96875q1.578125 -4.09375 3.984375 -7.53125l3.5 0q-2.5 5.515625 -3.4375 9.390625q-0.9375 3.875 -0.9375 8.21875q0 2.984375 0.546875 6.125q0.5625 3.1250038 1.53125 5.953129q0.625 1.859375 2.234375 5.34375zm3.821167 -29.843754l0 -4.734375l5.125 0l0 4.734375l-5.125 0zm5.125 2.625l0 18.765629q0 3.6875 -0.484375 5.203125q-0.484375 1.53125 -1.859375 2.390625q-1.375 0.859375 -3.5 0.859375q-0.765625 0 -1.65625 -0.140625q-0.875 -0.140625 -1.90625 -0.40625l0.90625 -4.375q0.359375 0.0625 0.6875 0.109375q0.3125 0.046875 0.578125 0.046875q0.78125 0 1.28125 -0.34375q0.5 -0.328125 0.65625 -0.8125q0.171875 -0.46875 0.171875 -2.8281288l0 -18.46875l5.125 0zm3.9334717 27.218754q1.515625 -3.25 2.140625 -4.984375q0.625 -1.734375 1.140625 -3.9843788q0.53125 -2.265625 0.78125 -4.296875q0.265625 -2.03125 0.265625 -4.15625q0 -4.34375 -0.9375 -8.21875q-0.921875 -3.875 -3.421875 -9.390625l3.484375 0q2.75 3.921875 4.265625 8.3125q1.53125 4.390625 1.53125 8.90625q0 3.8125 -1.203125 8.171875q-1.375 4.875004 -4.5 9.640629l-3.546875 0z" fill-rule="nonzero"/><path fill="#000000" d="m856.8688 51.31837l-4.640625 -0.84375q0.78125 -2.796875 2.6875 -4.140625q1.921875 -1.359375 5.703125 -1.359375q3.421875 0 5.09375 0.8125q1.6875 0.8125 2.359375 2.0625q0.6875 1.25 0.6875 4.578125l-0.046875 5.984375q0 2.546875 0.234375 3.765625q0.25 1.203125 0.921875 2.5937538l-5.0625 0q-0.203125 -0.515625 -0.5 -1.5156288q-0.125 -0.453125 -0.171875 -0.59375q-1.3125 1.265625 -2.8125 1.9062538q-1.5 0.640625 -3.1875 0.640625q-2.984375 0 -4.71875 -1.6250038q-1.71875 -1.625 -1.71875 -4.09375q0 -1.640625 0.78125 -2.921875q0.78125 -1.296875 2.1875 -1.96875q1.421875 -0.6875 4.09375 -1.203125q3.578125 -0.671875 4.96875 -1.25l0 -0.515625q0 -1.484375 -0.734375 -2.109375q-0.71875 -0.625 -2.75 -0.625q-1.359375 0 -2.125 0.546875q-0.765625 0.53125 -1.25 1.875zm6.859375 4.15625q-0.984375 0.328125 -3.125 0.78125q-2.125 0.453125 -2.78125 0.890625q-1.0 0.71875 -1.0 1.8125q0 1.078125 0.796875 1.859375q0.8125 0.78125 2.046875 0.78125q1.390625 0 2.640625 -0.90625q0.9375 -0.703125 1.21875 -1.703125q0.203125 -0.65625 0.203125 -2.5l0 -1.015625zm9.603882 10.578129l5.859375 0.703125q0.140625 1.015625 0.671875 1.40625q0.71875 0.546875 2.296875 0.546875q2.0 0 3.0 -0.609375q0.671875 -0.390625 1.03125 -1.28125q0.234375 -0.640625 0.234375 -2.359375l0 -2.8281288q-2.296875 3.1406288 -5.796875 3.1406288q-3.90625 0 -6.1875 -3.2968788q-1.78125 -2.609375 -1.78125 -6.484375q0 -4.875 2.34375 -7.4375q2.34375 -2.578125 5.828125 -2.578125q3.578125 0 5.921875 3.15625l0 -2.71875l4.78125 0l0 17.375q0 3.4218788 -0.5625 5.109379q-0.5625 1.703125 -1.578125 2.671875q-1.015625 0.96875 -2.734375 1.515625q-1.703125 0.546875 -4.296875 0.546875q-4.921875 0 -6.984375 -1.6875q-2.0625 -1.6875 -2.0625 -4.28125q0 -0.25 0.015625 -0.609375zm4.578125 -11.359379q0 3.078125 1.1875 4.515625q1.203125 1.421875 2.953125 1.421875q1.875 0 3.171875 -1.46875q1.296875 -1.46875 1.296875 -4.34375q0 -3.0 -1.25 -4.453125q-1.234375 -1.46875 -3.125 -1.46875q-1.84375 0 -3.046875 1.4375q-1.1875 1.421875 -1.1875 4.359375zm29.910889 3.921875l5.09375 0.859375q-0.96875 2.796875 -3.09375 4.265625q-2.125 1.4687538 -5.3125 1.4687538q-5.0625 0 -7.484375 -3.2968788q-1.90625 -2.640625 -1.90625 -6.671875q0 -4.8125 2.515625 -7.53125q2.515625 -2.734375 6.359375 -2.734375q4.3125 0 6.8125 2.859375q2.5 2.84375 2.390625 8.734375l-12.828125 0q0.046875 2.28125 1.234375 3.546875q1.1875 1.265625 2.953125 1.265625q1.203125 0 2.015625 -0.65625q0.828125 -0.65625 1.25 -2.109375zm0.296875 -5.1875q-0.0625 -2.21875 -1.15625 -3.375q-1.09375 -1.15625 -2.65625 -1.15625q-1.6875 0 -2.78125 1.21875q-1.09375 1.21875 -1.0625 3.3125l7.65625 0zm17.744507 19.203129l-3.515625 0q-2.796875 -4.21875 -4.25 -8.750004q-1.453125 -4.546875 -1.453125 -8.78125q0 -5.28125 1.796875 -9.96875q1.578125 -4.09375 3.984375 -7.53125l3.5 0q-2.5 5.515625 -3.4375 9.390625q-0.9375 3.875 -0.9375 8.21875q0 2.984375 0.546875 6.125q0.5625 3.1250038 1.53125 5.953129q0.625 1.859375 2.234375 5.34375zm3.930542 -29.843754l0 -4.734375l5.125 0l0 4.734375l-5.125 0zm0 21.984379l0 -19.359379l5.125 0l0 19.359379l-5.125 0zm8.949097 7.859375q1.515625 -3.25 2.140625 -4.984375q0.625 -1.734375 1.140625 -3.9843788q0.53125 -2.265625 0.78125 -4.296875q0.265625 -2.03125 0.265625 -4.15625q0 -4.34375 -0.9375 -8.21875q-0.921875 -3.875 -3.421875 -9.390625l3.484375 0q2.75 3.921875 4.265625 8.3125q1.53125 4.390625 1.53125 8.90625q0 3.8125 -1.203125 8.171875q-1.375 4.875004 -4.5 9.640629l-3.546875 0z" fill-rule="nonzero"/><path fill="#000000" d="m67.11674 167.62714l-3.28125 0l0 -20.90625q-1.1875 1.125 -3.109375 2.265625q-1.921875 1.125 -3.453125 1.6875l0 -3.171875q2.75 -1.296875 4.8125 -3.125q2.0625 -1.84375 2.921875 -3.578125l2.109375 0l0 26.828125z" fill-rule="nonzero"/><path fill="#000000" d="m194.30833 167.62714l-3.28125 0l0 -20.90625q-1.1875 1.125 -3.109375 2.265625q-1.921875 1.125 -3.453125 1.6875l0 -3.171875q2.75 -1.296875 4.8125 -3.125q2.0625 -1.84375 2.921875 -3.578125l2.109375 0l0 26.828125z" fill-rule="nonzero"/><path fill="#000000" d="m336.46158 175.48651q-2.71875 -3.4375 -4.59375 -8.015625q-1.875 -4.59375 -1.875 -9.515625q0 -4.34375 1.390625 -8.3125q1.640625 -4.609375 5.078125 -9.1875l2.34375 0q-2.203125 3.78125 -2.90625 5.40625q-1.125 2.515625 -1.75 5.25q-0.796875 3.40625 -0.796875 6.859375q0 8.765625 5.453125 17.515625l-2.34375 0zm5.2430725 -21.03125q0 -4.75 0.96875 -7.625q0.984375 -2.890625 2.90625 -4.453125q1.921875 -1.578125 4.84375 -1.578125q2.140625 0 3.765625 0.875q1.625 0.859375 2.671875 2.5q1.0625 1.625 1.65625 3.96875q0.609375 2.328125 0.609375 6.3125q0 4.703125 -0.96875 7.59375q-0.953125 2.875 -2.875 4.453125q-1.921875 1.578125 -4.859375 1.578125q-3.875 0 -6.078125 -2.765625q-2.640625 -3.34375 -2.640625 -10.859375zm3.375 0q0 6.578125 1.53125 8.765625q1.546875 2.171875 3.8125 2.171875q2.25 0 3.796875 -2.1875q1.546875 -2.1875 1.546875 -8.75q0 -6.609375 -1.546875 -8.765625q-1.546875 -2.171875 -3.84375 -2.171875q-2.25 0 -3.609375 1.90625q-1.6875 2.453125 -1.6875 9.03125zm19.150757 13.171875l0 -3.734375l3.734375 0l0 3.734375q0 2.0625 -0.734375 3.328125q-0.71875 1.265625 -2.296875 1.953125l-0.921875 -1.40625q1.046875 -0.453125 1.53125 -1.34375q0.5 -0.875 0.546875 -2.53125l-1.859375 0zm20.964691 0l-3.28125 0l0 -20.90625q-1.1875 1.125 -3.109375 2.265625q-1.921875 1.125 -3.453125 1.6875l0 -3.171875q2.75 -1.296875 4.8125 -3.125q2.0625 -1.84375 2.921875 -3.578125l2.109375 0l0 26.828125zm14.807007 7.421875l-7.25 0l0 -2.71875l3.96875 0l0 -28.703125l-3.96875 0l0 -2.71875l7.25 0l0 34.140625z" fill-rule="nonzero"/><path fill="#000000" d="m497.38596 154.45526q0 -4.75 0.96875 -7.625q0.984375 -2.890625 2.90625 -4.453125q1.921875 -1.578125 4.84375 -1.578125q2.140625 0 3.765625 0.875q1.625 0.859375 2.6719055 2.5q1.0625 1.625 1.65625 3.96875q0.609375 2.328125 0.609375 6.3125q0 4.703125 -0.96875 7.59375q-0.953125 2.875 -2.8750305 4.453125q-1.921875 1.578125 -4.859375 1.578125q-3.875 0 -6.078125 -2.765625q-2.640625 -3.34375 -2.640625 -10.859375zm3.375 0q0 6.578125 1.53125 8.765625q1.546875 2.171875 3.8125 2.171875q2.25 0 3.796875 -2.1875q1.546875 -2.1875 1.546875 -8.75q0 -6.609375 -1.546875 -8.765625q-1.546875 -2.171875 -3.84375 -2.171875q-2.25 0 -3.609375 1.90625q-1.6875 2.453125 -1.6875 9.03125z" fill-rule="nonzero"/><path fill="#000000" d="m664.37 167.62714l-3.28125 0l0 -20.90625q-1.1875 1.125 -3.109375 2.265625q-1.921875 1.125 -3.453125 1.6875l0 -3.171875q2.75 -1.296875 4.8125 -3.125q2.0625 -1.84375 2.921875 -3.578125l2.109375 0l0 26.828125z" fill-rule="nonzero"/><path fill="#000000" d="m784.02094 167.62714l-3.28125 0l0 -20.90625q-1.1875 1.125 -3.109375 2.265625q-1.921875 1.125 -3.453125 1.6875l0 -3.171875q2.75 -1.296875 4.8125 -3.125q2.0625 -1.84375 2.921875 -3.578125l2.109375 0l0 26.828125z" fill-rule="nonzero"/><path fill="#000000" d="m880.94806 160.58026l3.28125 -0.4375q0.5625 2.78125 1.921875 4.015625q1.359375 1.234375 3.3125 1.234375q2.3125 0 3.90625 -1.609375q1.59375 -1.609375 1.59375 -3.96875q0 -2.265625 -1.484375 -3.734375q-1.46875 -1.46875 -3.734375 -1.46875q-0.9375 0 -2.328125 0.359375l0.375 -2.875q0.328125 0.03125 0.53125 0.03125q2.09375 0 3.765625 -1.09375q1.671875 -1.09375 1.671875 -3.359375q0 -1.8125 -1.21875 -2.984375q-1.21875 -1.1875 -3.15625 -1.1875q-1.90625 0 -3.1875 1.203125q-1.265625 1.203125 -1.640625 3.609375l-3.28125 -0.59375q0.609375 -3.296875 2.734375 -5.109375q2.140625 -1.8125 5.3125 -1.8125q2.1875 0 4.015625 0.9375q1.84375 0.9375 2.8125 2.5625q0.984375 1.625 0.984375 3.4375q0 1.734375 -0.9375 3.15625q-0.921875 1.421875 -2.734375 2.265625q2.359375 0.546875 3.671875 2.265625q1.3125 1.71875 1.3125 4.3125q0 3.5 -2.546875 5.9375q-2.546875 2.421875 -6.453125 2.421875q-3.515625 0 -5.84375 -2.09375q-2.328125 -2.09375 -2.65625 -5.421875zm33.10388 7.046875l-3.28125 0l0 -20.90625q-1.1875 1.125 -3.109375 2.265625q-1.921875 1.125 -3.453125 1.6875l0 -3.171875q2.75 -1.296875 4.8125 -3.125q2.0625 -1.84375 2.921875 -3.578125l2.109375 0l0 26.828125z" fill-rule="nonzero"/><path fill="#000000" d="m67.11674 270.4828l-3.28125 0l0 -20.90625q-1.1875 1.125 -3.109375 2.265625q-1.921875 1.125 -3.453125 1.6875l0 -3.171875q2.75 -1.296875 4.8125 -3.125q2.0625 -1.84375 2.921875 -3.578125l2.109375 0l0 26.828125z" fill-rule="nonzero"/><path fill="#000000" d="m199.19896 267.32654l0 3.15625l-17.671875 0q-0.03125 -1.1875 0.390625 -2.28125q0.671875 -1.796875 2.15625 -3.546875q1.484375 -1.75 4.296875 -4.046875q4.359375 -3.578125 5.890625 -5.65625q1.53125 -2.09375 1.53125 -3.953125q0 -1.953125 -1.40625 -3.28125q-1.390625 -1.34375 -3.625 -1.34375q-2.375 0 -3.796875 1.421875q-1.421875 1.421875 -1.4375 3.9375l-3.375 -0.34375q0.34375 -3.78125 2.59375 -5.75q2.265625 -1.984375 6.078125 -1.984375q3.84375 0 6.078125 2.140625q2.25 2.125 2.25 5.28125q0 1.59375 -0.65625 3.15625q-0.65625 1.546875 -2.171875 3.265625q-1.515625 1.703125 -5.0625 4.6875q-2.953125 2.484375 -3.796875 3.375q-0.828125 0.875 -1.375 1.765625l13.109375 0z" fill-rule="nonzero"/><path fill="#000000" d="m294.95953 278.34216q-2.71875 -3.4375 -4.59375 -8.015625q-1.875 -4.59375 -1.875 -9.515625q0 -4.34375 1.390625 -8.3125q1.640625 -4.609375 5.078125 -9.1875l2.34375 0q-2.203125 3.78125 -2.90625 5.40625q-1.125 2.515625 -1.75 5.25q-0.796875 3.40625 -0.796875 6.859375q0 8.765625 5.453125 17.515625l-2.34375 0zm17.602448 -7.859375l-3.28125 0l0 -20.90625q-1.1875 1.125 -3.109375 2.265625q-1.921875 1.125 -3.453125 1.6875l0 -3.171875q2.75 -1.296875 4.8125 -3.125q2.0625 -1.84375 2.921875 -3.578125l2.109375 0l0 26.828125zm10.166382 0l0 -3.734375l3.734375 0l0 3.734375q0 2.0625 -0.734375 3.328125q-0.71875 1.265625 -2.296875 1.953125l-0.921875 -1.40625q1.046875 -0.453125 1.53125 -1.34375q0.5 -0.875 0.546875 -2.53125l-1.859375 0zm31.335663 0l-3.28125 0l0 -20.90625q-1.1875 1.125 -3.109375 2.265625q-1.921875 1.125 -3.453125 1.6875l0 -3.171875q2.75 -1.296875 4.8125 -3.125q2.0625 -1.84375 2.921875 -3.578125l2.109375 0l0 26.828125zm10.244507 0l0 -3.734375l3.734375 0l0 3.734375l-3.734375 0zm8.527191 -7.0l3.453125 -0.296875q0.375 2.515625 1.765625 3.796875q1.40625 1.265625 3.375 1.265625q2.359375 0 4.0 -1.78125q1.640625 -1.796875 1.640625 -4.75q0 -2.8125 -1.578125 -4.421875q-1.578125 -1.625 -4.125 -1.625q-1.578125 0 -2.859375 0.71875q-1.28125 0.71875 -2.0 1.859375l-3.09375 -0.390625l2.59375 -13.734375l13.296875 0l0 3.140625l-10.671875 0l-1.4375 7.171875q2.40625 -1.671875 5.046875 -1.671875q3.5 0 5.90625 2.421875q2.40625 2.421875 2.40625 6.234375q0 3.625 -2.109375 6.28125q-2.578125 3.234375 -7.015625 3.234375q-3.65625 0 -5.96875 -2.03125q-2.296875 -2.046875 -2.625 -5.421875zm27.166382 14.421875l-7.25 0l0 -2.71875l3.96875 0l0 -28.703125l-3.96875 0l0 -2.71875l7.25 0l0 34.140625z" fill-rule="nonzero"/><path fill="#000000" d="m497.38596 257.3109q0 -4.75 0.96875 -7.625q0.984375 -2.890625 2.90625 -4.453125q1.921875 -1.578125 4.84375 -1.578125q2.140625 0 3.765625 0.875q1.625 0.859375 2.6719055 2.5q1.0625 1.625 1.65625 3.96875q0.609375 2.328125 0.609375 6.3125q0 4.703125 -0.96875 7.59375q-0.953125 2.875 -2.8750305 4.453125q-1.921875 1.578125 -4.859375 1.578125q-3.875 0 -6.078125 -2.765625q-2.640625 -3.34375 -2.640625 -10.859375zm3.375 0q0 6.578125 1.53125 8.765625q1.546875 2.171875 3.8125 2.171875q2.25 0 3.796875 -2.1875q1.546875 -2.1875 1.546875 -8.75q0 -6.609375 -1.546875 -8.765625q-1.546875 -2.171875 -3.84375 -2.171875q-2.25 0 -3.609375 1.90625q-1.6875 2.453125 -1.6875 9.03125z" fill-rule="nonzero"/><path fill="#000000" d="m636.44507 257.3109q0 -4.75 0.96875 -7.625q0.984375 -2.890625 2.90625 -4.453125q1.921875 -1.578125 4.84375 -1.578125q2.140625 0 3.765625 0.875q1.625 0.859375 2.671875 2.5q1.0625 1.625 1.65625 3.96875q0.609375 2.328125 0.609375 6.3125q0 4.703125 -0.96875 7.59375q-0.953125 2.875 -2.875 4.453125q-1.921875 1.578125 -4.859375 1.578125q-3.875 0 -6.078125 -2.765625q-2.640625 -3.34375 -2.640625 -10.859375zm3.375 0q0 6.578125 1.53125 8.765625q1.546875 2.171875 3.8125 2.171875q2.25 0 3.796875 -2.1875q1.546875 -2.1875 1.546875 -8.75q0 -6.609375 -1.546875 -8.765625q-1.546875 -2.171875 -3.84375 -2.171875q-2.25 0 -3.609375 1.90625q-1.6875 2.453125 -1.6875 9.03125zm19.228882 13.171875l0 -3.734375l3.734375 0l0 3.734375l-3.734375 0zm8.542847 -7.046875l3.28125 -0.4375q0.5625 2.78125 1.921875 4.015625q1.359375 1.234375 3.3125 1.234375q2.3125 0 3.90625 -1.609375q1.59375 -1.609375 1.59375 -3.96875q0 -2.265625 -1.484375 -3.734375q-1.46875 -1.46875 -3.734375 -1.46875q-0.9375 0 -2.328125 0.359375l0.375 -2.875q0.328125 0.03125 0.53125 0.03125q2.09375 0 3.765625 -1.09375q1.671875 -1.09375 1.671875 -3.359375q0 -1.8125 -1.21875 -2.984375q-1.21875 -1.1875 -3.15625 -1.1875q-1.90625 0 -3.1875 1.203125q-1.265625 1.203125 -1.640625 3.609375l-3.28125 -0.59375q0.609375 -3.296875 2.734375 -5.109375q2.140625 -1.8125 5.3125 -1.8125q2.1875 0 4.015625 0.9375q1.84375 0.9375 2.8125 2.5625q0.984375 1.625 0.984375 3.4375q0 1.734375 -0.9375 3.15625q-0.921875 1.421875 -2.734375 2.265625q2.359375 0.546875 3.671875 2.265625q1.3125 1.71875 1.3125 4.3125q0 3.5 -2.546875 5.9375q-2.546875 2.421875 -6.453125 2.421875q-3.515625 0 -5.84375 -2.09375q-2.328125 -2.09375 -2.65625 -5.421875z" fill-rule="nonzero"/><path fill="#000000" d="m768.4554 270.4828l-3.28125 0l0 -20.90625q-1.1875 1.125 -3.109375 2.265625q-1.921875 1.125 -3.453125 1.6875l0 -3.171875q2.75 -1.296875 4.8125 -3.125q2.0625 -1.84375 2.921875 -3.578125l2.109375 0l0 26.828125zm10.244507 0l0 -3.734375l3.734375 0l0 3.734375l-3.734375 0zm8.527222 -7.0l3.453125 -0.296875q0.375 2.515625 1.765625 3.796875q1.40625 1.265625 3.375 1.265625q2.359375 0 4.0 -1.78125q1.640625 -1.796875 1.640625 -4.75q0 -2.8125 -1.578125 -4.421875q-1.578125 -1.625 -4.125 -1.625q-1.578125 0 -2.859375 0.71875q-1.28125 0.71875 -2.0 1.859375l-3.09375 -0.390625l2.59375 -13.734375l13.296875 0l0 3.140625l-10.671875 0l-1.4375 7.171875q2.40625 -1.671875 5.046875 -1.671875q3.5 0 5.90625 2.421875q2.40625 2.421875 2.40625 6.234375q0 3.625 -2.109375 6.28125q-2.578125 3.234375 -7.015625 3.234375q-3.65625 0 -5.96875 -2.03125q-2.296875 -2.046875 -2.625 -5.421875z" fill-rule="nonzero"/><path fill="#000000" d="m880.94806 263.4359l3.28125 -0.4375q0.5625 2.78125 1.921875 4.015625q1.359375 1.234375 3.3125 1.234375q2.3125 0 3.90625 -1.609375q1.59375 -1.609375 1.59375 -3.96875q0 -2.265625 -1.484375 -3.734375q-1.46875 -1.46875 -3.734375 -1.46875q-0.9375 0 -2.328125 0.359375l0.375 -2.875q0.328125 0.03125 0.53125 0.03125q2.09375 0 3.765625 -1.09375q1.671875 -1.09375 1.671875 -3.359375q0 -1.8125 -1.21875 -2.984375q-1.21875 -1.1875 -3.15625 -1.1875q-1.90625 0 -3.1875 1.203125q-1.265625 1.203125 -1.640625 3.609375l-3.28125 -0.59375q0.609375 -3.296875 2.734375 -5.109375q2.140625 -1.8125 5.3125 -1.8125q2.1875 0 4.015625 0.9375q1.84375 0.9375 2.8125 2.5625q0.984375 1.625 0.984375 3.4375q0 1.734375 -0.9375 3.15625q-0.921875 1.421875 -2.734375 2.265625q2.359375 0.546875 3.671875 2.265625q1.3125 1.71875 1.3125 4.3125q0 3.5 -2.546875 5.9375q-2.546875 2.421875 -6.453125 2.421875q-3.515625 0 -5.84375 -2.09375q-2.328125 -2.09375 -2.65625 -5.421875zm33.10388 7.046875l-3.28125 0l0 -20.90625q-1.1875 1.125 -3.109375 2.265625q-1.921875 1.125 -3.453125 1.6875l0 -3.171875q2.75 -1.296875 4.8125 -3.125q2.0625 -1.84375 2.921875 -3.578125l2.109375 0l0 26.828125z" fill-rule="nonzero"/><path fill="#000000" d="m72.00736 370.1822l0 3.15625l-17.671875 0q-0.03125 -1.1875 0.390625 -2.28125q0.671875 -1.796875 2.15625 -3.546875q1.484375 -1.75 4.296875 -4.046875q4.359375 -3.578125 5.890625 -5.65625q1.53125 -2.09375 1.53125 -3.953125q0 -1.953125 -1.40625 -3.28125q-1.390625 -1.34375 -3.625 -1.34375q-2.375 0 -3.796875 1.421875q-1.421875 1.421875 -1.4375 3.9375l-3.375 -0.34375q0.34375 -3.78125 2.59375 -5.75q2.265625 -1.984375 6.078125 -1.984375q3.84375 0 6.078125 2.140625q2.25 2.125 2.25 5.28125q0 1.59375 -0.65625 3.15625q-0.65625 1.546875 -2.171875 3.265625q-1.515625 1.703125 -5.0625 4.6875q-2.953125 2.484375 -3.796875 3.375q-0.828125 0.875 -1.375 1.765625l13.109375 0z" fill-rule="nonzero"/><path fill="#000000" d="m194.30833 373.33844l-3.28125 0l0 -20.90625q-1.1875 1.125 -3.109375 2.265625q-1.921875 1.125 -3.453125 1.6875l0 -3.171875q2.75 -1.296875 4.8125 -3.125q2.0625 -1.84375 2.921875 -3.578125l2.109375 0l0 26.828125z" fill-rule="nonzero"/><path fill="#000000" d="m336.46158 381.1978q-2.71875 -3.4375 -4.59375 -8.015625q-1.875 -4.59375 -1.875 -9.515625q0 -4.34375 1.390625 -8.3125q1.640625 -4.609375 5.078125 -9.1875l2.34375 0q-2.203125 3.78125 -2.90625 5.40625q-1.125 2.515625 -1.75 5.25q-0.796875 3.40625 -0.796875 6.859375q0 8.765625 5.453125 17.515625l-2.34375 0zm5.2430725 -21.03125q0 -4.75 0.96875 -7.625q0.984375 -2.890625 2.90625 -4.453125q1.921875 -1.578125 4.84375 -1.578125q2.140625 0 3.765625 0.875q1.625 0.859375 2.671875 2.5q1.0625 1.625 1.65625 3.96875q0.609375 2.328125 0.609375 6.3125q0 4.703125 -0.96875 7.59375q-0.953125 2.875 -2.875 4.453125q-1.921875 1.578125 -4.859375 1.578125q-3.875 0 -6.078125 -2.765625q-2.640625 -3.34375 -2.640625 -10.859375zm3.375 0q0 6.578125 1.53125 8.765625q1.546875 2.171875 3.8125 2.171875q2.25 0 3.796875 -2.1875q1.546875 -2.1875 1.546875 -8.75q0 -6.609375 -1.546875 -8.765625q-1.546875 -2.171875 -3.84375 -2.171875q-2.25 0 -3.609375 1.90625q-1.6875 2.453125 -1.6875 9.03125zm19.150757 13.171875l0 -3.734375l3.734375 0l0 3.734375q0 2.0625 -0.734375 3.328125q-0.71875 1.265625 -2.296875 1.953125l-0.921875 -1.40625q1.046875 -0.453125 1.53125 -1.34375q0.5 -0.875 0.546875 -2.53125l-1.859375 0zm20.964691 0l-3.28125 0l0 -20.90625q-1.1875 1.125 -3.109375 2.265625q-1.921875 1.125 -3.453125 1.6875l0 -3.171875q2.75 -1.296875 4.8125 -3.125q2.0625 -1.84375 2.921875 -3.578125l2.109375 0l0 26.828125zm14.807007 7.421875l-7.25 0l0 -2.71875l3.96875 0l0 -28.703125l-3.96875 0l0 -2.71875l7.25 0l0 34.140625z" fill-rule="nonzero"/><path fill="#000000" d="m497.38596 360.16656q0 -4.75 0.96875 -7.625q0.984375 -2.890625 2.90625 -4.453125q1.921875 -1.578125 4.84375 -1.578125q2.140625 0 3.765625 0.875q1.625 0.859375 2.6719055 2.5q1.0625 1.625 1.65625 3.96875q0.609375 2.328125 0.609375 6.3125q0 4.703125 -0.96875 7.59375q-0.953125 2.875 -2.8750305 4.453125q-1.921875 1.578125 -4.859375 1.578125q-3.875 0 -6.078125 -2.765625q-2.640625 -3.34375 -2.640625 -10.859375zm3.375 0q0 6.578125 1.53125 8.765625q1.546875 2.171875 3.8125 2.171875q2.25 0 3.796875 -2.1875q1.546875 -2.1875 1.546875 -8.75q0 -6.609375 -1.546875 -8.765625q-1.546875 -2.171875 -3.84375 -2.171875q-2.25 0 -3.609375 1.90625q-1.6875 2.453125 -1.6875 9.03125z" fill-rule="nonzero"/><path fill="#000000" d="m636.44507 360.16656q0 -4.75 0.96875 -7.625q0.984375 -2.890625 2.90625 -4.453125q1.921875 -1.578125 4.84375 -1.578125q2.140625 0 3.765625 0.875q1.625 0.859375 2.671875 2.5q1.0625 1.625 1.65625 3.96875q0.609375 2.328125 0.609375 6.3125q0 4.703125 -0.96875 7.59375q-0.953125 2.875 -2.875 4.453125q-1.921875 1.578125 -4.859375 1.578125q-3.875 0 -6.078125 -2.765625q-2.640625 -3.34375 -2.640625 -10.859375zm3.375 0q0 6.578125 1.53125 8.765625q1.546875 2.171875 3.8125 2.171875q2.25 0 3.796875 -2.1875q1.546875 -2.1875 1.546875 -8.75q0 -6.609375 -1.546875 -8.765625q-1.546875 -2.171875 -3.84375 -2.171875q-2.25 0 -3.609375 1.90625q-1.6875 2.453125 -1.6875 9.03125zm19.228882 13.171875l0 -3.734375l3.734375 0l0 3.734375l-3.734375 0zm8.527222 -7.0l3.453125 -0.296875q0.375 2.515625 1.765625 3.796875q1.40625 1.265625 3.375 1.265625q2.359375 0 4.0 -1.78125q1.640625 -1.796875 1.640625 -4.75q0 -2.8125 -1.578125 -4.421875q-1.578125 -1.625 -4.125 -1.625q-1.578125 0 -2.859375 0.71875q-1.28125 0.71875 -2.0 1.859375l-3.09375 -0.390625l2.59375 -13.734375l13.296875 0l0 3.140625l-10.671875 0l-1.4375 7.171875q2.40625 -1.671875 5.046875 -1.671875q3.5 0 5.90625 2.421875q2.40625 2.421875 2.40625 6.234375q0 3.625 -2.109375 6.28125q-2.578125 3.234375 -7.015625 3.234375q-3.65625 0 -5.96875 -2.03125q-2.296875 -2.046875 -2.625 -5.421875z" fill-rule="nonzero"/><path fill="#000000" d="m784.02094 373.33844l-3.28125 0l0 -20.90625q-1.1875 1.125 -3.109375 2.265625q-1.921875 1.125 -3.453125 1.6875l0 -3.171875q2.75 -1.296875 4.8125 -3.125q2.0625 -1.84375 2.921875 -3.578125l2.109375 0l0 26.828125z" fill-rule="nonzero"/><path fill="#000000" d="m897.9637 353.16656l-3.265625 0.25q-0.4375 -1.9375 -1.234375 -2.8125q-1.34375 -1.390625 -3.28125 -1.390625q-1.578125 0 -2.765625 0.875q-1.546875 1.125 -2.4375 3.296875q-0.890625 2.15625 -0.921875 6.171875q1.171875 -1.796875 2.890625 -2.671875q1.71875 -0.875 3.59375 -0.875q3.28125 0 5.578125 2.421875q2.3125 2.40625 2.3125 6.234375q0 2.515625 -1.09375 4.671875q-1.078125 2.15625 -2.96875 3.3125q-1.890625 1.140625 -4.296875 1.140625q-4.109375 0 -6.703125 -3.015625q-2.578125 -3.015625 -2.578125 -9.9375q0 -7.75 2.859375 -11.265625q2.5 -3.0625 6.71875 -3.0625q3.15625 0 5.171875 1.765625q2.015625 1.765625 2.421875 4.890625zm-13.40625 11.515625q0 1.6875 0.71875 3.25q0.71875 1.546875 2.015625 2.359375q1.296875 0.8125 2.71875 0.8125q2.078125 0 3.5625 -1.671875q1.5 -1.6875 1.5 -4.5625q0 -2.78125 -1.484375 -4.375q-1.46875 -1.59375 -3.703125 -1.59375q-2.21875 0 -3.78125 1.59375q-1.546875 1.59375 -1.546875 4.1875zm17.353882 -14.5625l0 -3.15625l17.296875 0l0 2.546875q-2.546875 2.71875 -5.0625 7.21875q-2.5 4.5 -3.859375 9.265625q-0.984375 3.359375 -1.265625 7.34375l-3.375 0q0.0625 -3.15625 1.234375 -7.609375q1.1875 -4.46875 3.40625 -8.609375q2.21875 -4.15625 4.71875 -7.0l-13.09375 0z" fill-rule="nonzero"/><path fill="#000000" d="m54.772987 469.1472l3.28125 -0.4375q0.5625 2.78125 1.921875 4.015625q1.359375 1.234375 3.3125 1.234375q2.3125 0 3.90625 -1.609375q1.59375 -1.609375 1.59375 -3.96875q0 -2.265625 -1.484375 -3.734375q-1.46875 -1.46875 -3.734375 -1.46875q-0.9375 0 -2.328125 0.359375l0.375 -2.875q0.328125 0.03125 0.53125 0.03125q2.09375 0 3.765625 -1.09375q1.671875 -1.09375 1.671875 -3.359375q0 -1.8125 -1.21875 -2.984375q-1.21875 -1.1875 -3.15625 -1.1875q-1.90625 0 -3.1875 1.203125q-1.265625 1.203125 -1.640625 3.609375l-3.28125 -0.59375q0.609375 -3.296875 2.734375 -5.109375q2.140625 -1.8125 5.3125 -1.8125q2.1875 0 4.015625 0.9375q1.84375 0.9375 2.8125 2.5625q0.984375 1.625 0.984375 3.4375q0 1.734375 -0.9375 3.15625q-0.921875 1.421875 -2.734375 2.265625q2.359375 0.546875 3.671875 2.265625q1.3125 1.71875 1.3125 4.3125q0 3.5 -2.546875 5.9375q-2.546875 2.421875 -6.453125 2.421875q-3.515625 0 -5.84375 -2.09375q-2.328125 -2.09375 -2.65625 -5.421875z" fill-rule="nonzero"/><path fill="#000000" d="m194.30833 476.19406l-3.28125 0l0 -20.90625q-1.1875 1.125 -3.109375 2.265625q-1.921875 1.125 -3.453125 1.6875l0 -3.171875q2.75 -1.296875 4.8125 -3.125q2.0625 -1.84375 2.921875 -3.578125l2.109375 0l0 26.828125z" fill-rule="nonzero"/><path fill="#000000" d="m336.46158 484.05344q-2.71875 -3.4375 -4.59375 -8.015625q-1.875 -4.59375 -1.875 -9.515625q0 -4.34375 1.390625 -8.3125q1.640625 -4.609375 5.078125 -9.1875l2.34375 0q-2.203125 3.78125 -2.90625 5.40625q-1.125 2.515625 -1.75 5.25q-0.796875 3.40625 -0.796875 6.859375q0 8.765625 5.453125 17.515625l-2.34375 0zm5.2430725 -21.03125q0 -4.75 0.96875 -7.625q0.984375 -2.890625 2.90625 -4.453125q1.921875 -1.578125 4.84375 -1.578125q2.140625 0 3.765625 0.875q1.625 0.859375 2.671875 2.5q1.0625 1.625 1.65625 3.96875q0.609375 2.328125 0.609375 6.3125q0 4.703125 -0.96875 7.59375q-0.953125 2.875 -2.875 4.453125q-1.921875 1.578125 -4.859375 1.578125q-3.875 0 -6.078125 -2.765625q-2.640625 -3.34375 -2.640625 -10.859375zm3.375 0q0 6.578125 1.53125 8.765625q1.546875 2.171875 3.8125 2.171875q2.25 0 3.796875 -2.1875q1.546875 -2.1875 1.546875 -8.75q0 -6.609375 -1.546875 -8.765625q-1.546875 -2.171875 -3.84375 -2.171875q-2.25 0 -3.609375 1.90625q-1.6875 2.453125 -1.6875 9.03125zm19.150757 13.171875l0 -3.734375l3.734375 0l0 3.734375q0 2.0625 -0.734375 3.328125q-0.71875 1.265625 -2.296875 1.953125l-0.921875 -1.40625q1.046875 -0.453125 1.53125 -1.34375q0.5 -0.875 0.546875 -2.53125l-1.859375 0zm20.964691 0l-3.28125 0l0 -20.90625q-1.1875 1.125 -3.109375 2.265625q-1.921875 1.125 -3.453125 1.6875l0 -3.171875q2.75 -1.296875 4.8125 -3.125q2.0625 -1.84375 2.921875 -3.578125l2.109375 0l0 26.828125zm14.807007 7.421875l-7.25 0l0 -2.71875l3.96875 0l0 -28.703125l-3.96875 0l0 -2.71875l7.25 0l0 34.140625z" fill-rule="nonzero"/><path fill="#000000" d="m497.38596 463.0222q0 -4.75 0.96875 -7.625q0.984375 -2.890625 2.90625 -4.453125q1.921875 -1.578125 4.84375 -1.578125q2.140625 0 3.765625 0.875q1.625 0.859375 2.6719055 2.5q1.0625 1.625 1.65625 3.96875q0.609375 2.328125 0.609375 6.3125q0 4.703125 -0.96875 7.59375q-0.953125 2.875 -2.8750305 4.453125q-1.921875 1.578125 -4.859375 1.578125q-3.875 0 -6.078125 -2.765625q-2.640625 -3.34375 -2.640625 -10.859375zm3.375 0q0 6.578125 1.53125 8.765625q1.546875 2.171875 3.8125 2.171875q2.25 0 3.796875 -2.1875q1.546875 -2.1875 1.546875 -8.75q0 -6.609375 -1.546875 -8.765625q-1.546875 -2.171875 -3.84375 -2.171875q-2.25 0 -3.609375 1.90625q-1.6875 2.453125 -1.6875 9.03125z" fill-rule="nonzero"/><path fill="#000000" d="m664.37 476.19406l-3.28125 0l0 -20.90625q-1.1875 1.125 -3.109375 2.265625q-1.921875 1.125 -3.453125 1.6875l0 -3.171875q2.75 -1.296875 4.8125 -3.125q2.0625 -1.84375 2.921875 -3.578125l2.109375 0l0 26.828125z" fill-rule="nonzero"/><path fill="#000000" d="m784.02094 476.19406l-3.28125 0l0 -20.90625q-1.1875 1.125 -3.109375 2.265625q-1.921875 1.125 -3.453125 1.6875l0 -3.171875q2.75 -1.296875 4.8125 -3.125q2.0625 -1.84375 2.921875 -3.578125l2.109375 0l0 26.828125z" fill-rule="nonzero"/><path fill="#000000" d="m891.44806 476.19406l0 -6.390625l-11.59375 0l0 -3.015625l12.203125 -17.3125l2.671875 0l0 17.3125l3.609375 0l0 3.015625l-3.609375 0l0 6.390625l-3.28125 0zm0 -9.40625l0 -12.046875l-8.359375 12.046875l8.359375 0zm27.494507 6.25l0 3.15625l-17.671875 0q-0.03125 -1.1875 0.390625 -2.28125q0.671875 -1.796875 2.15625 -3.546875q1.484375 -1.75 4.296875 -4.046875q4.359375 -3.578125 5.890625 -5.65625q1.53125 -2.09375 1.53125 -3.953125q0 -1.953125 -1.40625 -3.28125q-1.390625 -1.34375 -3.625 -1.34375q-2.375 0 -3.796875 1.421875q-1.421875 1.421875 -1.4375 3.9375l-3.375 -0.34375q0.34375 -3.78125 2.59375 -5.75q2.265625 -1.984375 6.078125 -1.984375q3.84375 0 6.078125 2.140625q2.25 2.125 2.25 5.28125q0 1.59375 -0.65625 3.15625q-0.65625 1.546875 -2.171875 3.265625q-1.515625 1.703125 -5.0625 4.6875q-2.953125 2.484375 -3.796875 3.375q-0.828125 0.875 -1.375 1.765625l13.109375 0z" fill-rule="nonzero"/><path fill="#000000" d="m54.772987 572.0028l3.28125 -0.4375q0.5625 2.78125 1.921875 4.015625q1.359375 1.234375 3.3125 1.234375q2.3125 0 3.90625 -1.609375q1.59375 -1.609375 1.59375 -3.96875q0 -2.265625 -1.484375 -3.734375q-1.46875 -1.46875 -3.734375 -1.46875q-0.9375 0 -2.328125 0.359375l0.375 -2.875q0.328125 0.03125 0.53125 0.03125q2.09375 0 3.765625 -1.09375q1.671875 -1.09375 1.671875 -3.359375q0 -1.8125 -1.21875 -2.984375q-1.21875 -1.1875 -3.15625 -1.1875q-1.90625 0 -3.1875 1.203125q-1.265625 1.203125 -1.640625 3.609375l-3.28125 -0.59375q0.609375 -3.296875 2.734375 -5.109375q2.140625 -1.8125 5.3125 -1.8125q2.1875 0 4.015625 0.9375q1.84375 0.9375 2.8125 2.5625q0.984375 1.625 0.984375 3.4375q0 1.734375 -0.9375 3.15625q-0.921875 1.421875 -2.734375 2.265625q2.359375 0.546875 3.671875 2.265625q1.3125 1.71875 1.3125 4.3125q0 3.5 -2.546875 5.9375q-2.546875 2.421875 -6.453125 2.421875q-3.515625 0 -5.84375 -2.09375q-2.328125 -2.09375 -2.65625 -5.421875z" fill-rule="nonzero"/><path fill="#000000" d="m199.19896 575.89343l0 3.15625l-17.671875 0q-0.03125 -1.1875 0.390625 -2.28125q0.671875 -1.796875 2.15625 -3.546875q1.484375 -1.75 4.296875 -4.046875q4.359375 -3.578125 5.890625 -5.65625q1.53125 -2.09375 1.53125 -3.953125q0 -1.953125 -1.40625 -3.28125q-1.390625 -1.34375 -3.625 -1.34375q-2.375 0 -3.796875 1.421875q-1.421875 1.421875 -1.4375 3.9375l-3.375 -0.34375q0.34375 -3.78125 2.59375 -5.75q2.265625 -1.984375 6.078125 -1.984375q3.84375 0 6.078125 2.140625q2.25 2.125 2.25 5.28125q0 1.59375 -0.65625 3.15625q-0.65625 1.546875 -2.171875 3.265625q-1.515625 1.703125 -5.0625 4.6875q-2.953125 2.484375 -3.796875 3.375q-0.828125 0.875 -1.375 1.765625l13.109375 0z" fill-rule="nonzero"/><path fill="#000000" d="m294.95953 586.90906q-2.71875 -3.4375 -4.59375 -8.015625q-1.875 -4.59375 -1.875 -9.515625q0 -4.34375 1.390625 -8.3125q1.640625 -4.609375 5.078125 -9.1875l2.34375 0q-2.203125 3.78125 -2.90625 5.40625q-1.125 2.515625 -1.75 5.25q-0.796875 3.40625 -0.796875 6.859375q0 8.765625 5.453125 17.515625l-2.34375 0zm17.602448 -7.859375l-3.28125 0l0 -20.90625q-1.1875 1.125 -3.109375 2.265625q-1.921875 1.125 -3.453125 1.6875l0 -3.171875q2.75 -1.296875 4.8125 -3.125q2.0625 -1.84375 2.921875 -3.578125l2.109375 0l0 26.828125zm10.166382 0l0 -3.734375l3.734375 0l0 3.734375q0 2.0625 -0.734375 3.328125q-0.71875 1.265625 -2.296875 1.953125l-0.921875 -1.40625q1.046875 -0.453125 1.53125 -1.34375q0.5 -0.875 0.546875 -2.53125l-1.859375 0zm31.335663 0l-3.28125 0l0 -20.90625q-1.1875 1.125 -3.109375 2.265625q-1.921875 1.125 -3.453125 1.6875l0 -3.171875q2.75 -1.296875 4.8125 -3.125q2.0625 -1.84375 2.921875 -3.578125l2.109375 0l0 26.828125zm10.244507 0l0 -3.734375l3.734375 0l0 3.734375l-3.734375 0zm8.527191 -7.0l3.453125 -0.296875q0.375 2.515625 1.765625 3.796875q1.40625 1.265625 3.375 1.265625q2.359375 0 4.0 -1.78125q1.640625 -1.796875 1.640625 -4.75q0 -2.8125 -1.578125 -4.421875q-1.578125 -1.625 -4.125 -1.625q-1.578125 0 -2.859375 0.71875q-1.28125 0.71875 -2.0 1.859375l-3.09375 -0.390625l2.59375 -13.734375l13.296875 0l0 3.140625l-10.671875 0l-1.4375 7.171875q2.40625 -1.671875 5.046875 -1.671875q3.5 0 5.90625 2.421875q2.40625 2.421875 2.40625 6.234375q0 3.625 -2.109375 6.28125q-2.578125 3.234375 -7.015625 3.234375q-3.65625 0 -5.96875 -2.03125q-2.296875 -2.046875 -2.625 -5.421875zm27.166382 14.421875l-7.25 0l0 -2.71875l3.96875 0l0 -28.703125l-3.96875 0l0 -2.71875l7.25 0l0 34.140625z" fill-rule="nonzero"/><path fill="#000000" d="m497.38596 565.8778q0 -4.75 0.96875 -7.625q0.984375 -2.890625 2.90625 -4.453125q1.921875 -1.578125 4.84375 -1.578125q2.140625 0 3.765625 0.875q1.625 0.859375 2.6719055 2.5q1.0625 1.625 1.65625 3.96875q0.609375 2.328125 0.609375 6.3125q0 4.703125 -0.96875 7.59375q-0.953125 2.875 -2.8750305 4.453125q-1.921875 1.578125 -4.859375 1.578125q-3.875 0 -6.078125 -2.765625q-2.640625 -3.34375 -2.640625 -10.859375zm3.375 0q0 6.578125 1.53125 8.765625q1.546875 2.171875 3.8125 2.171875q2.25 0 3.796875 -2.1875q1.546875 -2.1875 1.546875 -8.75q0 -6.609375 -1.546875 -8.765625q-1.546875 -2.171875 -3.84375 -2.171875q-2.25 0 -3.609375 1.90625q-1.6875 2.453125 -1.6875 9.03125z" fill-rule="nonzero"/><path fill="#000000" d="m636.44507 565.8778q0 -4.75 0.96875 -7.625q0.984375 -2.890625 2.90625 -4.453125q1.921875 -1.578125 4.84375 -1.578125q2.140625 0 3.765625 0.875q1.625 0.859375 2.671875 2.5q1.0625 1.625 1.65625 3.96875q0.609375 2.328125 0.609375 6.3125q0 4.703125 -0.96875 7.59375q-0.953125 2.875 -2.875 4.453125q-1.921875 1.578125 -4.859375 1.578125q-3.875 0 -6.078125 -2.765625q-2.640625 -3.34375 -2.640625 -10.859375zm3.375 0q0 6.578125 1.53125 8.765625q1.546875 2.171875 3.8125 2.171875q2.25 0 3.796875 -2.1875q1.546875 -2.1875 1.546875 -8.75q0 -6.609375 -1.546875 -8.765625q-1.546875 -2.171875 -3.84375 -2.171875q-2.25 0 -3.609375 1.90625q-1.6875 2.453125 -1.6875 9.03125zm19.228882 13.171875l0 -3.734375l3.734375 0l0 3.734375l-3.734375 0zm8.527222 -7.0l3.453125 -0.296875q0.375 2.515625 1.765625 3.796875q1.40625 1.265625 3.375 1.265625q2.359375 0 4.0 -1.78125q1.640625 -1.796875 1.640625 -4.75q0 -2.8125 -1.578125 -4.421875q-1.578125 -1.625 -4.125 -1.625q-1.578125 0 -2.859375 0.71875q-1.28125 0.71875 -2.0 1.859375l-3.09375 -0.390625l2.59375 -13.734375l13.296875 0l0 3.140625l-10.671875 0l-1.4375 7.171875q2.40625 -1.671875 5.046875 -1.671875q3.5 0 5.90625 2.421875q2.40625 2.421875 2.40625 6.234375q0 3.625 -2.109375 6.28125q-2.578125 3.234375 -7.015625 3.234375q-3.65625 0 -5.96875 -2.03125q-2.296875 -2.046875 -2.625 -5.421875z" fill-rule="nonzero"/><path fill="#000000" d="m768.4554 579.0497l-3.28125 0l0 -20.90625q-1.1875 1.125 -3.109375 2.265625q-1.921875 1.125 -3.453125 1.6875l0 -3.171875q2.75 -1.296875 4.8125 -3.125q2.0625 -1.84375 2.921875 -3.578125l2.109375 0l0 26.828125zm10.244507 0l0 -3.734375l3.734375 0l0 3.734375l-3.734375 0zm8.527222 -7.0l3.453125 -0.296875q0.375 2.515625 1.765625 3.796875q1.40625 1.265625 3.375 1.265625q2.359375 0 4.0 -1.78125q1.640625 -1.796875 1.640625 -4.75q0 -2.8125 -1.578125 -4.421875q-1.578125 -1.625 -4.125 -1.625q-1.578125 0 -2.859375 0.71875q-1.28125 0.71875 -2.0 1.859375l-3.09375 -0.390625l2.59375 -13.734375l13.296875 0l0 3.140625l-10.671875 0l-1.4375 7.171875q2.40625 -1.671875 5.046875 -1.671875q3.5 0 5.90625 2.421875q2.40625 2.421875 2.40625 6.234375q0 3.625 -2.109375 6.28125q-2.578125 3.234375 -7.015625 3.234375q-3.65625 0 -5.96875 -2.03125q-2.296875 -2.046875 -2.625 -5.421875z" fill-rule="nonzero"/><path fill="#000000" d="m891.44806 579.0497l0 -6.390625l-11.59375 0l0 -3.015625l12.203125 -17.3125l2.671875 0l0 17.3125l3.609375 0l0 3.015625l-3.609375 0l0 6.390625l-3.28125 0zm0 -9.40625l0 -12.046875l-8.359375 12.046875l8.359375 0zm27.494507 6.25l0 3.15625l-17.671875 0q-0.03125 -1.1875 0.390625 -2.28125q0.671875 -1.796875 2.15625 -3.546875q1.484375 -1.75 4.296875 -4.046875q4.359375 -3.578125 5.890625 -5.65625q1.53125 -2.09375 1.53125 -3.953125q0 -1.953125 -1.40625 -3.28125q-1.390625 -1.34375 -3.625 -1.34375q-2.375 0 -3.796875 1.421875q-1.421875 1.421875 -1.4375 3.9375l-3.375 -0.34375q0.34375 -3.78125 2.59375 -5.75q2.265625 -1.984375 6.078125 -1.984375q3.84375 0 6.078125 2.140625q2.25 2.125 2.25 5.28125q0 1.59375 -0.65625 3.15625q-0.65625 1.546875 -2.171875 3.265625q-1.515625 1.703125 -5.0625 4.6875q-2.953125 2.484375 -3.796875 3.375q-0.828125 0.875 -1.375 1.765625l13.109375 0z" fill-rule="nonzero"/><path fill="#000000" d="m54.772987 674.85846l3.28125 -0.4375q0.5625 2.78125 1.921875 4.015625q1.359375 1.234375 3.3125 1.234375q2.3125 0 3.90625 -1.609375q1.59375 -1.609375 1.59375 -3.96875q0 -2.265625 -1.484375 -3.734375q-1.46875 -1.46875 -3.734375 -1.46875q-0.9375 0 -2.328125 0.359375l0.375 -2.875q0.328125 0.03125 0.53125 0.03125q2.09375 0 3.765625 -1.09375q1.671875 -1.09375 1.671875 -3.359375q0 -1.8125 -1.21875 -2.984375q-1.21875 -1.1875 -3.15625 -1.1875q-1.90625 0 -3.1875 1.203125q-1.265625 1.203125 -1.640625 3.609375l-3.28125 -0.59375q0.609375 -3.296875 2.734375 -5.109375q2.140625 -1.8125 5.3125 -1.8125q2.1875 0 4.015625 0.9375q1.84375 0.9375 2.8125 2.5625q0.984375 1.625 0.984375 3.4375q0 1.734375 -0.9375 3.15625q-0.921875 1.421875 -2.734375 2.265625q2.359375 0.546875 3.671875 2.265625q1.3125 1.71875 1.3125 4.3125q0 3.5 -2.546875 5.9375q-2.546875 2.421875 -6.453125 2.421875q-3.515625 0 -5.84375 -2.09375q-2.328125 -2.09375 -2.65625 -5.421875z" fill-rule="nonzero"/><path fill="#000000" d="m181.96458 674.85846l3.28125 -0.4375q0.5625 2.78125 1.921875 4.015625q1.359375 1.234375 3.3125 1.234375q2.3125 0 3.90625 -1.609375q1.59375 -1.609375 1.59375 -3.96875q0 -2.265625 -1.484375 -3.734375q-1.46875 -1.46875 -3.734375 -1.46875q-0.9375 0 -2.328125 0.359375l0.375 -2.875q0.328125 0.03125 0.53125 0.03125q2.09375 0 3.765625 -1.09375q1.671875 -1.09375 1.671875 -3.359375q0 -1.8125 -1.21875 -2.984375q-1.21875 -1.1875 -3.15625 -1.1875q-1.90625 0 -3.1875 1.203125q-1.265625 1.203125 -1.640625 3.609375l-3.28125 -0.59375q0.609375 -3.296875 2.734375 -5.109375q2.140625 -1.8125 5.3125 -1.8125q2.1875 0 4.015625 0.9375q1.84375 0.9375 2.8125 2.5625q0.984375 1.625 0.984375 3.4375q0 1.734375 -0.9375 3.15625q-0.921875 1.421875 -2.734375 2.265625q2.359375 0.546875 3.671875 2.265625q1.3125 1.71875 1.3125 4.3125q0 3.5 -2.546875 5.9375q-2.546875 2.421875 -6.453125 2.421875q-3.515625 0 -5.84375 -2.09375q-2.328125 -2.09375 -2.65625 -5.421875z" fill-rule="nonzero"/><path fill="#000000" d="m294.95953 689.7647q-2.71875 -3.4375 -4.59375 -8.015625q-1.875 -4.59375 -1.875 -9.515625q0 -4.34375 1.390625 -8.3125q1.640625 -4.609375 5.078125 -9.1875l2.34375 0q-2.203125 3.78125 -2.90625 5.40625q-1.125 2.515625 -1.75 5.25q-0.796875 3.40625 -0.796875 6.859375q0 8.765625 5.453125 17.515625l-2.34375 0zm17.602448 -7.859375l-3.28125 0l0 -20.90625q-1.1875 1.125 -3.109375 2.265625q-1.921875 1.125 -3.453125 1.6875l0 -3.171875q2.75 -1.296875 4.8125 -3.125q2.0625 -1.84375 2.921875 -3.578125l2.109375 0l0 26.828125zm10.244507 0l0 -3.734375l3.734375 0l0 3.734375l-3.734375 0zm8.527191 -7.0l3.453125 -0.296875q0.375 2.515625 1.765625 3.796875q1.40625 1.265625 3.375 1.265625q2.359375 0 4.0 -1.78125q1.640625 -1.796875 1.640625 -4.75q0 -2.8125 -1.578125 -4.421875q-1.578125 -1.625 -4.125 -1.625q-1.578125 0 -2.859375 0.71875q-1.28125 0.71875 -2.0 1.859375l-3.09375 -0.390625l2.59375 -13.734375l13.296875 0l0 3.140625l-10.671875 0l-1.4375 7.171875q2.40625 -1.671875 5.046875 -1.671875q3.5 0 5.90625 2.421875q2.40625 2.421875 2.40625 6.234375q0 3.625 -2.109375 6.28125q-2.578125 3.234375 -7.015625 3.234375q-3.65625 0 -5.96875 -2.03125q-2.296875 -2.046875 -2.625 -5.421875zm22.525757 7.0l0 -3.734375l3.734375 0l0 3.734375q0 2.0625 -0.734375 3.328125q-0.71875 1.265625 -2.296875 1.953125l-0.921875 -1.40625q1.046875 -0.453125 1.53125 -1.34375q0.5 -0.875 0.546875 -2.53125l-1.859375 0zm18.991913 -7.046875l3.28125 -0.4375q0.5625 2.78125 1.921875 4.015625q1.359375 1.234375 3.3125 1.234375q2.3125 0 3.90625 -1.609375q1.59375 -1.609375 1.59375 -3.96875q0 -2.265625 -1.484375 -3.734375q-1.46875 -1.46875 -3.734375 -1.46875q-0.9375 0 -2.328125 0.359375l0.375 -2.875q0.328125 0.03125 0.53125 0.03125q2.09375 0 3.765625 -1.09375q1.671875 -1.09375 1.671875 -3.359375q0 -1.8125 -1.21875 -2.984375q-1.21875 -1.1875 -3.15625 -1.1875q-1.90625 0 -3.1875 1.203125q-1.265625 1.203125 -1.640625 3.609375l-3.28125 -0.59375q0.609375 -3.296875 2.734375 -5.109375q2.140625 -1.8125 5.3125 -1.8125q2.1875 0 4.015625 0.9375q1.84375 0.9375 2.8125 2.5625q0.984375 1.625 0.984375 3.4375q0 1.734375 -0.9375 3.15625q-0.921875 1.421875 -2.734375 2.265625q2.359375 0.546875 3.671875 2.265625q1.3125 1.71875 1.3125 4.3125q0 3.5 -2.546875 5.9375q-2.546875 2.421875 -6.453125 2.421875q-3.515625 0 -5.84375 -2.09375q-2.328125 -2.09375 -2.65625 -5.421875zm27.150757 14.46875l-7.25 0l0 -2.71875l3.96875 0l0 -28.703125l-3.96875 0l0 -2.71875l7.25 0l0 34.140625z" fill-rule="nonzero"/><path fill="#000000" d="m509.74533 681.90533l-3.28125 0l0 -20.90625q-1.1875 1.125 -3.109375 2.265625q-1.921875 1.125 -3.453125 1.6875l0 -3.171875q2.75 -1.296875 4.8125 -3.125q2.0625 -1.84375 2.921875 -3.578125l2.109375 0l0 26.828125z" fill-rule="nonzero"/><path fill="#000000" d="m648.80444 681.90533l-3.28125 0l0 -20.90625q-1.1875 1.125 -3.109375 2.265625q-1.921875 1.125 -3.453125 1.6875l0 -3.171875q2.75 -1.296875 4.8125 -3.125q2.0625 -1.84375 2.921875 -3.578125l2.109375 0l0 26.828125zm10.244507 0l0 -3.734375l3.734375 0l0 3.734375l-3.734375 0zm25.777222 -3.15625l0 3.15625l-17.671875 0q-0.03125 -1.1875 0.390625 -2.28125q0.671875 -1.796875 2.15625 -3.546875q1.484375 -1.75 4.296875 -4.046875q4.359375 -3.578125 5.890625 -5.65625q1.53125 -2.09375 1.53125 -3.953125q0 -1.953125 -1.40625 -3.28125q-1.390625 -1.34375 -3.625 -1.34375q-2.375 0 -3.796875 1.421875q-1.421875 1.421875 -1.4375 3.9375l-3.375 -0.34375q0.34375 -3.78125 2.59375 -5.75q2.265625 -1.984375 6.078125 -1.984375q3.84375 0 6.078125 2.140625q2.25 2.125 2.25 5.28125q0 1.59375 -0.65625 3.15625q-0.65625 1.546875 -2.171875 3.265625q-1.515625 1.703125 -5.0625 4.6875q-2.953125 2.484375 -3.796875 3.375q-0.828125 0.875 -1.375 1.765625l13.109375 0z" fill-rule="nonzero"/><path fill="#000000" d="m771.6772 674.85846l3.28125 -0.4375q0.5625 2.78125 1.921875 4.015625q1.359375 1.234375 3.3125 1.234375q2.3125 0 3.90625 -1.609375q1.59375 -1.609375 1.59375 -3.96875q0 -2.265625 -1.484375 -3.734375q-1.46875 -1.46875 -3.734375 -1.46875q-0.9375 0 -2.328125 0.359375l0.375 -2.875q0.328125 0.03125 0.53125 0.03125q2.09375 0 3.765625 -1.09375q1.671875 -1.09375 1.671875 -3.359375q0 -1.8125 -1.21875 -2.984375q-1.21875 -1.1875 -3.15625 -1.1875q-1.90625 0 -3.1875 1.203125q-1.265625 1.203125 -1.640625 3.609375l-3.28125 -0.59375q0.609375 -3.296875 2.734375 -5.109375q2.140625 -1.8125 5.3125 -1.8125q2.1875 0 4.015625 0.9375q1.84375 0.9375 2.8125 2.5625q0.984375 1.625 0.984375 3.4375q0 1.734375 -0.9375 3.15625q-0.921875 1.421875 -2.734375 2.265625q2.359375 0.546875 3.671875 2.265625q1.3125 1.71875 1.3125 4.3125q0 3.5 -2.546875 5.9375q-2.546875 2.421875 -6.453125 2.421875q-3.515625 0 -5.84375 -2.09375q-2.328125 -2.09375 -2.65625 -5.421875z" fill-rule="nonzero"/><path fill="#000000" d="m891.44806 681.90533l0 -6.390625l-11.59375 0l0 -3.015625l12.203125 -17.3125l2.671875 0l0 17.3125l3.609375 0l0 3.015625l-3.609375 0l0 6.390625l-3.28125 0zm0 -9.40625l0 -12.046875l-8.359375 12.046875l8.359375 0zm27.494507 6.25l0 3.15625l-17.671875 0q-0.03125 -1.1875 0.390625 -2.28125q0.671875 -1.796875 2.15625 -3.546875q1.484375 -1.75 4.296875 -4.046875q4.359375 -3.578125 5.890625 -5.65625q1.53125 -2.09375 1.53125 -3.953125q0 -1.953125 -1.40625 -3.28125q-1.390625 -1.34375 -3.625 -1.34375q-2.375 0 -3.796875 1.421875q-1.421875 1.421875 -1.4375 3.9375l-3.375 -0.34375q0.34375 -3.78125 2.59375 -5.75q2.265625 -1.984375 6.078125 -1.984375q3.84375 0 6.078125 2.140625q2.25 2.125 2.25 5.28125q0 1.59375 -0.65625 3.15625q-0.65625 1.546875 -2.171875 3.265625q-1.515625 1.703125 -5.0625 4.6875q-2.953125 2.484375 -3.796875 3.375q-0.828125 0.875 -1.375 1.765625l13.109375 0z" fill-rule="nonzero"/></g></svg>