<?xml version="1.0" encoding="UTF-8"?>
<svg xmlns="http://www.w3.org/2000/svg" viewBox="0 0 500 400" width="500" height="400" font-family="Helvetica,Arial,sans-serif">

  <!-- =====  EDGES (draw first, behind nodes)  ===== -->

  <!-- 0 -> 1 -->
  <line x1="128" y1="186" x2="358" y2="103" stroke="black" stroke-width="1.5"/>
  <polygon points="358,103 348,98 351,110" fill="black"/>

  <!-- 0 -> 2 -->
  <line x1="128" y1="214" x2="357" y2="290" stroke="black" stroke-width="1.5"/>
  <polygon points="357,290 348,283 345,295" fill="black"/>

  <!-- 1 -> 2 -->
  <line x1="400" y1="132" x2="400" y2="263" stroke="black" stroke-width="1.5"/>
  <polygon points="400,263 394,253 406,253" fill="black"/>

  <!-- =====  NODES  ===== -->

  <!-- State 0 (transient) -->
  <circle cx="90"  cy="200" r="42" fill="white" stroke="black" stroke-width="1.5"/>
  <text x="90" y="208" text-anchor="middle" font-size="24">0</text>

  <!-- State 1 (transient) -->
  <circle cx="400" cy="90"  r="42" fill="white" stroke="black" stroke-width="1.5"/>
  <text x="400" y="98" text-anchor="middle" font-size="24">1</text>

  <!-- State 2 (absorbing) -->
  <rect x="358" y="263" width="84" height="84" fill="white" stroke="black" stroke-width="1.5"/>
  <text x="400" y="313" text-anchor="middle" font-size="24">2</text>

  <!-- =====  EDGE LABELS  ===== -->

  <!-- h_01(τ) -->
  <text x="225" y="126" font-size="18" font-style="italic">h</text>
  <text x="237" y="132" font-size="13">01</text>
  <text x="252" y="126" font-size="18" font-style="italic">(τ)</text>

  <!-- h_02(τ) -->
  <text x="225" y="278" font-size="18" font-style="italic">h</text>
  <text x="237" y="284" font-size="13">02</text>
  <text x="252" y="278" font-size="18" font-style="italic">(τ)</text>

  <!-- h_12(τ) -->
  <text x="412" y="200" font-size="18" font-style="italic">h</text>
  <text x="424" y="206" font-size="13">12</text>
  <text x="439" y="200" font-size="18" font-style="italic">(τ)</text>

</svg>
