<?xml version="1.0" encoding="UTF-8"?>
<svg xmlns="http://www.w3.org/2000/svg" viewBox="0 0 500 400" width="500" height="400"
     font-family="Helvetica,Arial,sans-serif">
  <line x1="129.58" y1="185.95" x2="349.11" y2="108.06" stroke="black" stroke-width="1.5"/>
  <polygon points="360.42,104.05 350.78,112.77 347.44,103.35" fill="black"/>
  <line x1="129.58" y1="214.05" x2="346.69" y2="291.08" stroke="black" stroke-width="1.5"/>
  <polygon points="358.00,295.10 345.02,295.80 348.36,286.37" fill="black"/>
  <line x1="400.00" y1="132.00" x2="400.00" y2="256.00" stroke="black" stroke-width="1.5"/>
  <polygon points="400.00,268.00 395.00,256.00 405.00,256.00" fill="black"/>
  <circle cx="90" cy="200" r="42" fill="white" stroke="black" stroke-width="1.5"/>
  <text x="90" y="208" text-anchor="middle" font-size="24">0</text>
  <circle cx="400" cy="90" r="42" fill="white" stroke="black" stroke-width="1.5"/>
  <text x="400" y="98" text-anchor="middle" font-size="24">1</text>
  <rect x="358" y="268" width="84" height="84" fill="white" stroke="black" stroke-width="1.5"/>
  <text x="400" y="318" text-anchor="middle" font-size="24">2</text>
  <text x="230.3" y="136.8" font-size="18" font-style="italic">h</text><text x="242.3" y="142.8" font-size="13">01</text><text x="258.3" y="136.8" font-size="18" font-style="italic">(τ)</text>
  <text x="229.0" y="277.0" font-size="18" font-style="italic">h</text><text x="241.0" y="283.0" font-size="13">02</text><text x="257.0" y="277.0" font-size="18" font-style="italic">(τ)</text>
  <text x="412.0" y="205.0" font-size="18" font-style="italic">h</text><text x="424.0" y="211.0" font-size="13">12</text><text x="440.0" y="205.0" font-size="18" font-style="italic">(τ)</text>
</svg>
