<?xml version="1.0" encoding="UTF-8"?>
<svg xmlns="http://www.w3.org/2000/svg" viewBox="0 0 600 400" width="600" height="400"
     font-family="Helvetica,Arial,sans-serif">
  <line x1="159.67" y1="162.10" x2="339.91" y2="103.78" stroke="black" stroke-width="1.5"/>
  <polygon points="351.33,100.09 341.45,108.54 338.37,99.03" fill="black"/>
  <line x1="360.33" y1="127.90" x2="180.09" y2="186.22" stroke="black" stroke-width="1.5"/>
  <polygon points="168.67,189.91 178.55,181.46 181.63,190.97" fill="black"/>
  <line x1="164.83" y1="222.01" x2="358.49" y2="278.97" stroke="black" stroke-width="1.5"/>
  <polygon points="370.00,282.35 357.08,283.76 359.90,274.17" fill="black"/>
  <line x1="430.00" y1="168.00" x2="430.00" y2="228.00" stroke="black" stroke-width="1.5"/>
  <polygon points="430.00,240.00 425.00,228.00 435.00,228.00" fill="black"/>
  <circle cx="90" cy="200" r="78" fill="white" stroke="black" stroke-width="1.5"/>
  <text x="90" y="188" text-anchor="middle" font-size="14">Normal</text>
  <text x="90" y="207" text-anchor="middle" font-size="14">Prothrombin</text>
  <text x="90" y="226" text-anchor="middle" font-size="14">levels (0)</text>
  <circle cx="430" cy="90" r="78" fill="white" stroke="black" stroke-width="1.5"/>
  <text x="430" y="78"  text-anchor="middle" font-size="14">Abnormal</text>
  <text x="430" y="97"  text-anchor="middle" font-size="14">Prothrombin</text>
  <text x="430" y="116" text-anchor="middle" font-size="14">levels (1)</text>
  <rect x="370" y="240" width="120" height="120" fill="white" stroke="black" stroke-width="1.5"/>
  <text x="430" y="295" text-anchor="middle" font-size="16">Death</text>
  <text x="430" y="318" text-anchor="middle" font-size="16">(2)</text>
</svg>
