<?xml version="1.0" encoding="UTF-8"?>
<svg xmlns="http://www.w3.org/2000/svg" viewBox="0 0 600 400" width="600" height="400" font-family="Helvetica,Arial,sans-serif">

  <!-- =====  EDGES (drawn first so node fills cover line endpoints)  ===== -->

  <!-- 0 -> 1 (top arrow of the bidirectional pair) -->
  <line x1="166" y1="172" x2="356" y2="105" stroke="black" stroke-width="1.5"/>
  <polygon points="356,105 346,100 349,112" fill="black"/>

  <!-- 1 -> 0 (bottom arrow of the bidirectional pair, slight offset) -->
  <line x1="356" y1="128" x2="166" y2="195" stroke="black" stroke-width="1.5"/>
  <polygon points="166,195 176,200 173,188" fill="black"/>

  <!-- 0 -> 2 -->
  <line x1="166" y1="240" x2="368" y2="290" stroke="black" stroke-width="1.5"/>
  <polygon points="368,290 358,283 355,295" fill="black"/>

  <!-- 1 -> 2 -->
  <line x1="430" y1="168" x2="430" y2="238" stroke="black" stroke-width="1.5"/>
  <polygon points="430,238 424,228 436,228" fill="black"/>

  <!-- =====  NODES  ===== -->

  <!-- State 0 (Normal Prothrombin, transient) -->
  <circle cx="90"  cy="200" r="78" fill="white" stroke="black" stroke-width="1.5"/>
  <text x="90" y="188" text-anchor="middle" font-size="14">Normal</text>
  <text x="90" y="207" text-anchor="middle" font-size="14">Prothrombin</text>
  <text x="90" y="226" text-anchor="middle" font-size="14">levels (0)</text>

  <!-- State 1 (Abnormal Prothrombin, transient) -->
  <circle cx="430" cy="90"  r="78" fill="white" stroke="black" stroke-width="1.5"/>
  <text x="430" y="78"  text-anchor="middle" font-size="14">Abnormal</text>
  <text x="430" y="97"  text-anchor="middle" font-size="14">Prothrombin</text>
  <text x="430" y="116" text-anchor="middle" font-size="14">levels (1)</text>

  <!-- State 2 (Death, absorbing) -->
  <rect x="370" y="238" width="120" height="120" fill="white" stroke="black" stroke-width="1.5"/>
  <text x="430" y="295" text-anchor="middle" font-size="16">Death</text>
  <text x="430" y="318" text-anchor="middle" font-size="16">(2)</text>

</svg>
