<svg xmlns="http://www.w3.org/2000/svg" viewBox="0 0 800 1200" width="800" height="1200"
     font-family="DejaVu Sans">
  <!-- INVERSE (photographic-negative) variant of cover-new.svg -->
  <filter id="invert" color-interpolation-filters="sRGB">
    <feColorMatrix type="matrix" values="-1 0 0 0 1  0 -1 0 0 1  0 0 -1 0 1  0 0 0 1 0"/>
  </filter>
  <g filter="url(#invert)">

  <!-- ── BACKGROUND ── -->
  <rect width="800" height="1200" fill="#2A3444"/>

  <!-- ── BACKGROUND: survival curves — two groups, upper half ── -->
  <!-- Group 1 gold=better survival, Group 2 cyan=faster decline -->
  <g fill="none" stroke-linecap="round">
    <!-- GROUP 1: gold #C8A800 -->
    <path d="M0,20 L14,20 L27,20 L41,20 L54,20 L68,21 L81,21 L95,22 L108,23 L122,24 L136,25 L149,27 L163,28 L176,30 L190,32 L203,35 L217,38 L231,40 L244,44 L258,47 L271,51 L285,55 L298,60 L312,64 L325,69 L339,75 L353,80 L366,86 L380,93 L393,99 L407,106 L420,113 L434,121 L447,128 L461,136 L475,145 L488,153 L502,162 L515,171 L529,180 L542,189 L556,198 L569,208 L583,218 L597,228 L610,238 L624,248 L637,258 L651,268 L664,279 L678,289 L692,299 L705,310 L719,320 L732,330 L746,340 L759,350 L773,360 L786,370 L800,380" stroke="#C8A800" stroke-width="1.7" opacity="0.26"/>
    <path d="M0,20 L14,20 L27,20 L41,21 L54,23 L68,25 L81,27 L95,31 L108,36 L122,42 L136,49 L149,58 L163,67 L176,78 L190,90 L203,104 L217,119 L231,135 L244,152 L258,170 L271,189 L285,209 L298,229 L312,250 L325,271 L339,293 L353,315 L366,336 L380,357 L393,378 L407,398 L420,418 L434,436 L447,454 L461,471 L475,487 L488,501 L502,515 L515,527 L529,538 L542,548 L556,557 L569,565 L583,572 L597,579 L610,584 L624,589 L637,592 L651,596 L664,599 L678,601 L692,603 L705,604 L719,606 L732,607 L746,607 L759,608 L773,608 L786,609 L800,609" stroke="#C8A800" stroke-width="1.7" opacity="0.26"/>
    <path d="M0,20 L14,21 L27,23 L41,25 L54,28 L68,31 L81,34 L95,37 L108,41 L122,45 L136,49 L149,53 L163,58 L176,62 L190,67 L203,72 L217,77 L231,82 L244,87 L258,92 L271,98 L285,103 L298,109 L312,114 L325,120 L339,126 L353,132 L366,137 L380,143 L393,149 L407,155 L420,161 L434,167 L447,173 L461,179 L475,185 L488,191 L502,197 L515,203 L529,209 L542,215 L556,221 L569,227 L583,233 L597,238 L610,244 L624,250 L637,256 L651,262 L664,267 L678,273 L692,279 L705,284 L719,290 L732,296 L746,301 L759,306 L773,312 L786,317 L800,323" stroke="#C8A800" stroke-width="1.7" opacity="0.26"/>
    <path d="M0,20 L14,20 L27,21 L41,22 L54,24 L68,26 L81,28 L95,31 L108,34 L122,37 L136,41 L149,45 L163,49 L176,54 L190,58 L203,64 L217,69 L231,75 L244,81 L258,87 L271,93 L285,100 L298,107 L312,114 L325,121 L339,128 L353,136 L366,144 L380,151 L393,159 L407,167 L420,176 L434,184 L447,192 L461,200 L475,209 L488,217 L502,226 L515,234 L529,243 L542,251 L556,260 L569,268 L583,277 L597,285 L610,294 L624,302 L637,310 L651,318 L664,327 L678,335 L692,343 L705,351 L719,358 L732,366 L746,374 L759,381 L773,388 L786,396 L800,403" stroke="#C8A800" stroke-width="1.7" opacity="0.26"/>
    <path d="M0,20 L14,20 L27,22 L41,25 L54,31 L68,40 L81,53 L95,71 L108,94 L122,121 L136,153 L149,189 L163,228 L176,270 L190,312 L203,354 L217,395 L231,433 L244,468 L258,499 L271,525 L285,547 L298,565 L312,578 L325,588 L339,596 L353,601 L366,604 L380,607 L393,608 L407,609 L420,609 L434,610 L447,610 L461,610 L475,610 L488,610 L502,610 L515,610 L529,610 L542,610 L556,610 L569,610 L583,610 L597,610 L610,610 L624,610 L637,610 L651,610 L664,610 L678,610 L692,610 L705,610 L719,610 L732,610 L746,610 L759,610 L773,610 L786,610 L800,610" stroke="#C8A800" stroke-width="1.7" opacity="0.26"/>
    <path d="M0,20 L14,20 L27,20 L41,20 L54,21 L68,22 L81,23 L95,26 L108,28 L122,32 L136,36 L149,42 L163,48 L176,56 L190,64 L203,74 L217,86 L231,98 L244,112 L258,127 L271,143 L285,160 L298,179 L312,198 L325,218 L339,239 L353,260 L366,282 L380,304 L393,326 L407,348 L420,370 L434,391 L447,412 L461,432 L475,450 L488,468 L502,485 L515,501 L529,515 L542,528 L556,540 L569,551 L583,560 L597,568 L610,575 L624,582 L637,587 L651,592 L664,595 L678,598 L692,601 L705,603 L719,605 L732,606 L746,607 L759,608 L773,608 L786,609 L800,609" stroke="#C8A800" stroke-width="1.7" opacity="0.26"/>
    <path d="M0,20 L14,20 L27,20 L41,20 L54,20 L68,20 L81,21 L95,21 L108,22 L122,23 L136,25 L149,27 L163,30 L176,33 L190,38 L203,44 L217,51 L231,59 L244,68 L258,79 L271,92 L285,107 L298,123 L312,141 L325,161 L339,182 L353,205 L366,229 L380,255 L393,281 L407,308 L420,336 L434,363 L447,390 L461,416 L475,441 L488,465 L502,487 L515,507 L529,525 L542,541 L556,555 L569,567 L583,577 L597,585 L610,591 L624,597 L637,600 L651,603 L664,606 L678,607 L692,608 L705,609 L719,609 L732,610 L746,610 L759,610 L773,610 L786,610 L800,610" stroke="#C8A800" stroke-width="1.7" opacity="0.26"/>
    <path d="M0,20 L14,20 L27,21 L41,23 L54,26 L68,30 L81,35 L95,42 L108,49 L122,58 L136,69 L149,80 L163,93 L176,108 L190,123 L203,139 L217,157 L231,175 L244,194 L258,213 L271,233 L285,253 L298,274 L312,294 L325,315 L339,335 L353,355 L366,374 L380,393 L393,411 L407,429 L420,445 L434,461 L447,476 L461,490 L475,503 L488,515 L502,526 L515,536 L529,545 L542,554 L556,561 L569,568 L583,574 L597,579 L610,584 L624,588 L637,591 L651,594 L664,597 L678,599 L692,601 L705,603 L719,604 L732,605 L746,606 L759,607 L773,608 L786,608 L800,608" stroke="#C8A800" stroke-width="1.7" opacity="0.26"/>
    <path d="M0,20 L14,21 L27,22 L41,23 L54,25 L68,28 L81,30 L95,33 L108,37 L122,40 L136,44 L149,48 L163,52 L176,57 L190,61 L203,66 L217,71 L231,76 L244,82 L258,87 L271,93 L285,99 L298,105 L312,111 L325,117 L339,123 L353,130 L366,136 L380,143 L393,149 L407,156 L420,163 L434,170 L447,176 L461,183 L475,190 L488,197 L502,204 L515,211 L529,218 L542,225 L556,232 L569,239 L583,246 L597,253 L610,259 L624,266 L637,273 L651,280 L664,287 L678,293 L692,300 L705,307 L719,313 L732,320 L746,326 L759,333 L773,339 L786,345 L800,351" stroke="#C8A800" stroke-width="1.7" opacity="0.26"/>
    <path d="M0,20 L14,21 L27,22 L41,25 L54,29 L68,35 L81,42 L95,50 L108,59 L122,70 L136,82 L149,95 L163,109 L176,124 L190,139 L203,156 L217,173 L231,191 L244,209 L258,228 L271,246 L285,265 L298,284 L312,302 L325,321 L339,339 L353,357 L366,374 L380,391 L393,407 L407,423 L420,438 L434,452 L447,466 L461,479 L475,491 L488,502 L502,513 L515,522 L529,531 L542,540 L556,547 L569,554 L583,561 L597,567 L610,572 L624,577 L637,581 L651,585 L664,588 L678,591 L692,594 L705,596 L719,598 L732,600 L746,601 L759,603 L773,604 L786,605 L800,606" stroke="#C8A800" stroke-width="1.7" opacity="0.26"/>
    <path d="M0,20 L14,20 L27,20 L41,21 L54,22 L68,23 L81,25 L95,26 L108,29 L122,31 L136,34 L149,37 L163,40 L176,44 L190,48 L203,53 L217,57 L231,62 L244,68 L258,73 L271,79 L285,86 L298,92 L312,99 L325,106 L339,113 L353,121 L366,129 L380,137 L393,145 L407,153 L420,162 L434,170 L447,179 L461,188 L475,197 L488,207 L502,216 L515,225 L529,235 L542,244 L556,254 L569,263 L583,273 L597,283 L610,292 L624,302 L637,311 L651,320 L664,330 L678,339 L692,348 L705,357 L719,366 L732,375 L746,384 L759,392 L773,400 L786,409 L800,417" stroke="#C8A800" stroke-width="1.7" opacity="0.26"/>
    <path d="M0,20 L14,20 L27,21 L41,22 L54,24 L68,26 L81,29 L95,32 L108,36 L122,41 L136,46 L149,51 L163,58 L176,65 L190,72 L203,80 L217,89 L231,98 L244,108 L258,118 L271,129 L285,140 L298,151 L312,163 L325,175 L339,187 L353,199 L366,212 L380,225 L393,238 L407,251 L420,264 L434,277 L447,290 L461,303 L475,316 L488,329 L502,342 L515,354 L529,367 L542,379 L556,391 L569,402 L583,413 L597,424 L610,435 L624,445 L637,455 L651,465 L664,474 L678,483 L692,491 L705,499 L719,507 L732,514 L746,521 L759,528 L773,534 L786,540 L800,545" stroke="#C8A800" stroke-width="1.7" opacity="0.26"/>
    <path d="M0,20 L14,20 L27,21 L41,22 L54,24 L68,28 L81,32 L95,38 L108,46 L122,55 L136,66 L149,79 L163,93 L176,109 L190,127 L203,146 L217,167 L231,189 L244,212 L258,235 L271,260 L285,285 L298,309 L312,334 L325,359 L339,382 L353,405 L366,427 L380,448 L393,468 L407,486 L420,503 L434,518 L447,531 L461,544 L475,555 L488,564 L502,572 L515,579 L529,585 L542,590 L556,594 L569,598 L583,600 L597,603 L610,604 L624,606 L637,607 L651,608 L664,608 L678,609 L692,609 L705,609 L719,610 L732,610 L746,610 L759,610 L773,610 L786,610 L800,610" stroke="#C8A800" stroke-width="1.7" opacity="0.26"/>
    <path d="M0,20 L14,20 L27,20 L41,21 L54,21 L68,22 L81,23 L95,24 L108,26 L122,27 L136,29 L149,30 L163,32 L176,35 L190,37 L203,39 L217,42 L231,45 L244,47 L258,51 L271,54 L285,57 L298,61 L312,64 L325,68 L339,72 L353,76 L366,80 L380,84 L393,89 L407,93 L420,98 L434,102 L447,107 L461,112 L475,117 L488,122 L502,128 L515,133 L529,138 L542,144 L556,149 L569,155 L583,160 L597,166 L610,172 L624,178 L637,184 L651,190 L664,196 L678,202 L692,208 L705,214 L719,220 L732,226 L746,232 L759,238 L773,244 L786,250 L800,257" stroke="#C8A800" stroke-width="1.7" opacity="0.26"/>
    <path d="M0,20 L14,22 L27,27 L41,32 L54,40 L68,48 L81,57 L95,67 L108,78 L122,90 L136,102 L149,115 L163,128 L176,142 L190,156 L203,170 L217,184 L231,198 L244,213 L258,227 L271,242 L285,256 L298,270 L312,284 L325,298 L339,312 L353,325 L366,338 L380,351 L393,364 L407,376 L420,388 L434,399 L447,410 L461,421 L475,431 L488,441 L502,451 L515,460 L529,469 L542,477 L556,485 L569,493 L583,500 L597,507 L610,514 L624,520 L637,526 L651,532 L664,537 L678,542 L692,547 L705,551 L719,555 L732,559 L746,563 L759,567 L773,570 L786,573 L800,576" stroke="#C8A800" stroke-width="1.7" opacity="0.26"/>
    <path d="M0,20 L14,20 L27,21 L41,23 L54,26 L68,29 L81,34 L95,39 L108,45 L122,52 L136,60 L149,69 L163,78 L176,88 L190,99 L203,111 L217,123 L231,136 L244,150 L258,164 L271,178 L285,193 L298,208 L312,223 L325,239 L339,254 L353,270 L366,285 L380,301 L393,316 L407,331 L420,346 L434,361 L447,376 L461,390 L475,403 L488,417 L502,429 L515,442 L529,453 L542,465 L556,476 L569,486 L583,496 L597,505 L610,513 L624,522 L637,529 L651,536 L664,543 L678,549 L692,555 L705,560 L719,565 L732,570 L746,574 L759,578 L773,581 L786,585 L800,587" stroke="#C8A800" stroke-width="1.7" opacity="0.26"/>
    <path d="M0,20 L14,20 L27,20 L41,20 L54,20 L68,20 L81,20 L95,21 L108,21 L122,22 L136,23 L149,25 L163,26 L176,29 L190,32 L203,35 L217,40 L231,45 L244,51 L258,58 L271,66 L285,75 L298,86 L312,97 L325,110 L339,124 L353,140 L366,156 L380,174 L393,193 L407,213 L420,234 L434,256 L447,278 L461,301 L475,325 L488,348 L502,371 L515,393 L529,416 L542,437 L556,457 L569,476 L583,494 L597,511 L610,526 L624,539 L637,551 L651,562 L664,571 L678,579 L692,586 L705,591 L719,595 L732,599 L746,602 L759,604 L773,606 L786,607 L800,608" stroke="#C8A800" stroke-width="1.7" opacity="0.26"/>
    <path d="M0,20 L14,20 L27,20 L41,20 L54,20 L68,20 L81,21 L95,22 L108,23 L122,24 L136,26 L149,28 L163,32 L176,36 L190,41 L203,48 L217,55 L231,64 L244,75 L258,87 L271,100 L285,115 L298,132 L312,151 L325,171 L339,193 L353,216 L366,241 L380,266 L393,292 L407,318 L420,345 L434,372 L447,397 L461,423 L475,447 L488,469 L502,490 L515,509 L529,527 L542,542 L556,555 L569,567 L583,576 L597,584 L610,591 L624,596 L637,600 L651,603 L664,605 L678,607 L692,608 L705,609 L719,609 L732,609 L746,610 L759,610 L773,610 L786,610 L800,610" stroke="#C8A800" stroke-width="1.7" opacity="0.26"/>
    <!-- GROUP 2: cyan #4ABCD8 -->
    <path d="M0,21 L14,40 L27,65 L41,94 L54,124 L68,155 L81,186 L95,216 L108,246 L122,274 L136,302 L149,328 L163,352 L176,375 L190,397 L203,417 L217,435 L231,452 L244,468 L258,482 L271,496 L285,508 L298,519 L312,528 L325,537 L339,545 L353,553 L366,559 L380,565 L393,570 L407,575 L420,579 L434,583 L447,586 L461,589 L475,592 L488,594 L502,596 L515,598 L529,599 L542,601 L556,602 L569,603 L583,604 L597,605 L610,606 L624,606 L637,607 L651,607 L664,608 L678,608 L692,608 L705,608 L719,609 L732,609 L746,609 L759,609 L773,609 L786,609 L800,609" stroke="#4ABCD8" stroke-width="1.7" opacity="0.24"/>
    <path d="M0,20 L14,30 L27,48 L41,73 L54,103 L68,136 L81,171 L95,207 L108,244 L122,280 L136,315 L149,348 L163,379 L176,408 L190,435 L203,460 L217,481 L231,501 L244,518 L258,533 L271,546 L285,557 L298,566 L312,574 L325,581 L339,587 L353,591 L366,595 L380,598 L393,601 L407,603 L420,604 L434,606 L447,607 L461,607 L475,608 L488,609 L502,609 L515,609 L529,609 L542,610 L556,610 L569,610 L583,610 L597,610 L610,610 L624,610 L637,610 L651,610 L664,610 L678,610 L692,610 L705,610 L719,610 L732,610 L746,610 L759,610 L773,610 L786,610 L800,610" stroke="#4ABCD8" stroke-width="1.7" opacity="0.24"/>
    <path d="M0,20 L14,22 L27,29 L41,41 L54,57 L68,77 L81,102 L95,131 L108,162 L122,196 L136,231 L149,267 L163,303 L176,338 L190,371 L203,403 L217,433 L231,460 L244,485 L258,506 L271,525 L285,542 L298,555 L312,567 L325,577 L339,584 L353,590 L366,595 L380,599 L393,602 L407,604 L420,606 L434,607 L447,608 L461,609 L475,609 L488,609 L502,610 L515,610 L529,610 L542,610 L556,610 L569,610 L583,610 L597,610 L610,610 L624,610 L637,610 L651,610 L664,610 L678,610 L692,610 L705,610 L719,610 L732,610 L746,610 L759,610 L773,610 L786,610 L800,610" stroke="#4ABCD8" stroke-width="1.7" opacity="0.24"/>
    <path d="M0,20 L14,27 L27,38 L41,54 L54,72 L68,93 L81,116 L95,140 L108,165 L122,190 L136,216 L149,242 L163,267 L176,292 L190,316 L203,340 L217,362 L231,383 L244,404 L258,423 L271,441 L285,457 L298,473 L312,487 L325,500 L339,512 L353,523 L366,533 L380,542 L393,550 L407,558 L420,564 L434,570 L447,575 L461,580 L475,584 L488,588 L502,591 L515,593 L529,596 L542,598 L556,600 L569,601 L583,603 L597,604 L610,605 L624,606 L637,606 L651,607 L664,607 L678,608 L692,608 L705,609 L719,609 L732,609 L746,609 L759,609 L773,609 L786,610 L800,610" stroke="#4ABCD8" stroke-width="1.7" opacity="0.24"/>
    <path d="M0,21 L14,31 L27,42 L41,53 L54,64 L68,75 L81,86 L95,97 L108,107 L122,118 L136,129 L149,139 L163,149 L176,159 L190,169 L203,179 L217,189 L231,198 L244,207 L258,216 L271,225 L285,234 L298,243 L312,251 L325,260 L339,268 L353,276 L366,283 L380,291 L393,298 L407,306 L420,313 L434,320 L447,327 L461,334 L475,340 L488,347 L502,353 L515,359 L529,365 L542,371 L556,377 L569,382 L583,388 L597,393 L610,399 L624,404 L637,409 L651,414 L664,419 L678,423 L692,428 L705,432 L719,437 L732,441 L746,445 L759,449 L773,453 L786,457 L800,461" stroke="#4ABCD8" stroke-width="1.7" opacity="0.24"/>
    <path d="M0,28 L14,76 L27,121 L41,162 L54,199 L68,234 L81,265 L95,294 L108,320 L122,345 L136,367 L149,387 L163,406 L176,423 L190,439 L203,453 L217,466 L231,478 L244,489 L258,499 L271,509 L285,517 L298,525 L312,532 L325,539 L339,545 L353,550 L366,555 L380,560 L393,564 L407,568 L420,571 L434,575 L447,578 L461,580 L475,583 L488,585 L502,587 L515,589 L529,591 L542,592 L556,594 L569,595 L583,597 L597,598 L610,599 L624,600 L637,601 L651,601 L664,602 L678,603 L692,603 L705,604 L719,604 L732,605 L746,605 L759,606 L773,606 L786,606 L800,607" stroke="#4ABCD8" stroke-width="1.7" opacity="0.24"/>
    <path d="M0,20 L14,26 L27,39 L41,57 L54,79 L68,105 L81,133 L95,163 L108,194 L122,225 L136,257 L149,288 L163,319 L176,348 L190,376 L203,402 L217,426 L231,448 L244,469 L258,488 L271,504 L285,519 L298,533 L312,544 L325,555 L339,564 L353,571 L366,578 L380,583 L393,588 L407,592 L420,596 L434,598 L447,601 L461,602 L475,604 L488,605 L502,606 L515,607 L529,608 L542,608 L556,609 L569,609 L583,609 L597,609 L610,610 L624,610 L637,610 L651,610 L664,610 L678,610 L692,610 L705,610 L719,610 L732,610 L746,610 L759,610 L773,610 L786,610 L800,610" stroke="#4ABCD8" stroke-width="1.7" opacity="0.24"/>
    <path d="M0,22 L14,48 L27,81 L41,117 L54,154 L68,190 L81,226 L95,260 L108,292 L122,323 L136,351 L149,378 L163,402 L176,424 L190,445 L203,463 L217,480 L231,495 L244,508 L258,521 L271,531 L285,541 L298,550 L312,557 L325,564 L339,570 L353,575 L366,580 L380,584 L393,587 L407,590 L420,593 L434,595 L447,598 L461,599 L475,601 L488,602 L502,603 L515,604 L529,605 L542,606 L556,606 L569,607 L583,607 L597,608 L610,608 L624,608 L637,609 L651,609 L664,609 L678,609 L692,609 L705,609 L719,610 L732,610 L746,610 L759,610 L773,610 L786,610 L800,610" stroke="#4ABCD8" stroke-width="1.7" opacity="0.24"/>
    <path d="M0,32 L14,97 L27,151 L41,199 L54,241 L68,278 L81,311 L95,341 L108,367 L122,391 L136,412 L149,431 L163,448 L176,464 L190,478 L203,490 L217,502 L231,512 L244,521 L258,529 L271,537 L285,544 L298,550 L312,555 L325,560 L339,565 L353,569 L366,573 L380,576 L393,579 L407,582 L420,585 L434,587 L447,589 L461,591 L475,593 L488,594 L502,596 L515,597 L529,598 L542,599 L556,600 L569,601 L583,602 L597,603 L610,603 L624,604 L637,604 L651,605 L664,605 L678,606 L692,606 L705,607 L719,607 L732,607 L746,607 L759,608 L773,608 L786,608 L800,608" stroke="#4ABCD8" stroke-width="1.7" opacity="0.24"/>
    <path d="M0,20 L14,23 L27,28 L41,35 L54,44 L68,54 L81,65 L95,77 L108,90 L122,104 L136,119 L149,133 L163,149 L176,165 L190,180 L203,196 L217,213 L231,229 L244,245 L258,261 L271,277 L285,292 L298,307 L312,322 L325,337 L339,351 L353,365 L366,379 L380,392 L393,404 L407,416 L420,428 L434,439 L447,450 L461,460 L475,470 L488,479 L502,488 L515,496 L529,504 L542,512 L556,519 L569,526 L583,532 L597,538 L610,543 L624,548 L637,553 L651,558 L664,562 L678,566 L692,570 L705,573 L719,576 L732,579 L746,582 L759,584 L773,586 L786,589 L800,591" stroke="#4ABCD8" stroke-width="1.7" opacity="0.24"/>
    <path d="M0,20 L14,23 L27,30 L41,40 L54,52 L68,67 L81,84 L95,103 L108,124 L122,145 L136,168 L149,191 L163,215 L176,239 L190,263 L203,287 L217,310 L231,333 L244,355 L258,376 L271,397 L285,416 L298,434 L312,451 L325,467 L339,482 L353,496 L366,509 L380,520 L393,531 L407,540 L420,549 L434,557 L447,563 L461,570 L475,575 L488,580 L502,584 L515,588 L529,591 L542,594 L556,597 L569,599 L583,600 L597,602 L610,603 L624,604 L637,605 L651,606 L664,607 L678,607 L692,608 L705,608 L719,609 L732,609 L746,609 L759,609 L773,609 L786,610 L800,610" stroke="#4ABCD8" stroke-width="1.7" opacity="0.24"/>
    <path d="M0,20 L14,29 L27,50 L41,83 L54,125 L68,174 L81,226 L95,280 L108,332 L122,382 L136,427 L149,466 L163,499 L176,527 L190,549 L203,566 L217,579 L231,589 L244,596 L258,601 L271,604 L285,606 L298,608 L312,609 L325,609 L339,610 L353,610 L366,610 L380,610 L393,610 L407,610 L420,610 L434,610 L447,610 L461,610 L475,610 L488,610 L502,610 L515,610 L529,610 L542,610 L556,610 L569,610 L583,610 L597,610 L610,610 L624,610 L637,610 L651,610 L664,610 L678,610 L692,610 L705,610 L719,610 L732,610 L746,610 L759,610 L773,610 L786,610 L800,610" stroke="#4ABCD8" stroke-width="1.7" opacity="0.24"/>
    <path d="M0,22 L14,47 L27,81 L41,120 L54,160 L68,199 L81,238 L95,276 L108,311 L122,344 L136,374 L149,402 L163,427 L176,450 L190,470 L203,489 L217,505 L231,520 L244,532 L258,543 L271,553 L285,561 L298,569 L312,575 L325,580 L339,585 L353,589 L366,592 L380,595 L393,598 L407,600 L420,601 L434,603 L447,604 L461,605 L475,606 L488,607 L502,607 L515,608 L529,608 L542,609 L556,609 L569,609 L583,609 L597,609 L610,609 L624,610 L637,610 L651,610 L664,610 L678,610 L692,610 L705,610 L719,610 L732,610 L746,610 L759,610 L773,610 L786,610 L800,610" stroke="#4ABCD8" stroke-width="1.7" opacity="0.24"/>
    <path d="M0,20 L14,21 L27,31 L41,62 L54,127 L68,228 L81,351 L95,466 L108,549 L122,591 L136,606 L149,609 L163,610 L176,610 L190,610 L203,610 L217,610 L231,610 L244,610 L258,610 L271,610 L285,610 L298,610 L312,610 L325,610 L339,610 L353,610 L366,610 L380,610 L393,610 L407,610 L420,610 L434,610 L447,610 L461,610 L475,610 L488,610 L502,610 L515,610 L529,610 L542,610 L556,610 L569,610 L583,610 L597,610 L610,610 L624,610 L637,610 L651,610 L664,610 L678,610 L692,610 L705,610 L719,610 L732,610 L746,610 L759,610 L773,610 L786,610 L800,610" stroke="#4ABCD8" stroke-width="1.7" opacity="0.24"/>
    <path d="M0,20 L14,21 L27,23 L41,27 L54,34 L68,44 L81,58 L95,75 L108,96 L122,120 L136,147 L149,177 L163,210 L176,243 L190,278 L203,313 L217,347 L231,381 L244,413 L258,442 L271,470 L285,494 L298,516 L312,534 L325,550 L339,564 L353,575 L366,584 L380,590 L393,596 L407,600 L420,603 L434,605 L447,607 L461,608 L475,609 L488,609 L502,609 L515,610 L529,610 L542,610 L556,610 L569,610 L583,610 L597,610 L610,610 L624,610 L637,610 L651,610 L664,610 L678,610 L692,610 L705,610 L719,610 L732,610 L746,610 L759,610 L773,610 L786,610 L800,610" stroke="#4ABCD8" stroke-width="1.7" opacity="0.24"/>
    <path d="M0,28 L14,68 L27,100 L41,129 L54,155 L68,178 L81,200 L95,221 L108,240 L122,257 L136,274 L149,290 L163,304 L176,318 L190,332 L203,344 L217,356 L231,367 L244,378 L258,388 L271,397 L285,406 L298,415 L312,423 L325,431 L339,439 L353,446 L366,453 L380,459 L393,465 L407,471 L420,477 L434,482 L447,487 L461,492 L475,497 L488,502 L502,506 L515,510 L529,514 L542,518 L556,521 L569,525 L583,528 L597,531 L610,534 L624,537 L637,540 L651,543 L664,545 L678,548 L692,550 L705,552 L719,555 L732,557 L746,559 L759,561 L773,563 L786,564 L800,566" stroke="#4ABCD8" stroke-width="1.7" opacity="0.24"/>
    <path d="M0,20 L14,23 L27,31 L41,42 L54,57 L68,76 L81,98 L95,122 L108,148 L122,176 L136,205 L149,235 L163,265 L176,295 L190,324 L203,352 L217,379 L231,404 L244,428 L258,450 L271,471 L285,489 L298,506 L312,521 L325,535 L339,546 L353,557 L366,566 L380,573 L393,580 L407,585 L420,590 L434,594 L447,597 L461,600 L475,602 L488,604 L502,605 L515,606 L529,607 L542,608 L556,608 L569,609 L583,609 L597,609 L610,609 L624,610 L637,610 L651,610 L664,610 L678,610 L692,610 L705,610 L719,610 L732,610 L746,610 L759,610 L773,610 L786,610 L800,610" stroke="#4ABCD8" stroke-width="1.7" opacity="0.24"/>
    <path d="M0,20 L14,25 L27,41 L41,72 L54,115 L68,170 L81,232 L95,298 L108,362 L122,421 L136,472 L149,514 L163,546 L176,570 L190,586 L203,596 L217,602 L231,606 L244,608 L258,609 L271,610 L285,610 L298,610 L312,610 L325,610 L339,610 L353,610 L366,610 L380,610 L393,610 L407,610 L420,610 L434,610 L447,610 L461,610 L475,610 L488,610 L502,610 L515,610 L529,610 L542,610 L556,610 L569,610 L583,610 L597,610 L610,610 L624,610 L637,610 L651,610 L664,610 L678,610 L692,610 L705,610 L719,610 L732,610 L746,610 L759,610 L773,610 L786,610 L800,610" stroke="#4ABCD8" stroke-width="1.7" opacity="0.24"/>
  </g>

  <!-- ── ARTWORK: clock + star-chart — IT19 layout: clock center at (210,690) ── -->
  <!-- IT19 box zone: x=267–800, y=229–629 (2/3 width × 1/3 height, upper-right, right-aligned) -->
  <g transform="translate(210,767) scale(1.5) translate(-400,-630)">

  <!-- ── DEEPEST BACKGROUND: star-chart concentric rings ── -->
  <g stroke="#CBD5E1" stroke-width="0.5" fill="none" opacity="0.10">
    <circle cx="400" cy="640" r="90"/>
    <circle cx="400" cy="640" r="150"/>
    <circle cx="400" cy="640" r="220"/>
    <circle cx="400" cy="640" r="300"/>
    <circle cx="400" cy="640" r="390"/>
    <circle cx="400" cy="640" r="490"/>
    <circle cx="400" cy="640" r="600"/>
  </g>
  <!-- Radial spokes -->
  <g stroke="#CBD5E1" stroke-width="0.4" opacity="0.07">
    <line x1="400" y1="640" x2="400" y2="0"/>
    <line x1="400" y1="640" x2="800" y2="640"/>
    <line x1="400" y1="640" x2="400" y2="1280"/>
    <line x1="400" y1="640" x2="0" y2="640"/>
    <line x1="400" y1="640" x2="745" y2="295"/>
    <line x1="400" y1="640" x2="745" y2="985"/>
    <line x1="400" y1="640" x2="55" y2="985"/>
    <line x1="400" y1="640" x2="55" y2="295"/>
    <line x1="400" y1="640" x2="660" y2="120"/>
    <line x1="400" y1="640" x2="820" y2="460"/>
    <line x1="400" y1="640" x2="820" y2="820"/>
    <line x1="400" y1="640" x2="660" y2="1060"/>
    <line x1="400" y1="640" x2="140" y2="1060"/>
    <line x1="400" y1="640" x2="-20" y2="820"/>
    <line x1="400" y1="640" x2="-20" y2="460"/>
    <line x1="400" y1="640" x2="140" y2="120"/>
  </g>


  <!-- ────────────────────────────────────── -->
  <!-- ── CLOCK MACHINERY (behind face) ── -->
  <!-- ────────────────────────────────────── -->
  <g opacity="0.82">
    <!-- Main large gear: center (400,630), 20 teeth — bright visible steel blue -->
    <g transform="translate(400,630)">
      <g fill="#5A8AB0" stroke="#9ABBD8" stroke-width="0.6">
        <rect x="138" y="-9" width="22" height="18" rx="2"/>
        <rect x="138" y="-9" width="22" height="18" rx="2" transform="rotate(18)"/>
        <rect x="138" y="-9" width="22" height="18" rx="2" transform="rotate(36)"/>
        <rect x="138" y="-9" width="22" height="18" rx="2" transform="rotate(54)"/>
        <rect x="138" y="-9" width="22" height="18" rx="2" transform="rotate(72)"/>
        <rect x="138" y="-9" width="22" height="18" rx="2" transform="rotate(90)"/>
        <rect x="138" y="-9" width="22" height="18" rx="2" transform="rotate(108)"/>
        <rect x="138" y="-9" width="22" height="18" rx="2" transform="rotate(126)"/>
        <rect x="138" y="-9" width="22" height="18" rx="2" transform="rotate(144)"/>
        <rect x="138" y="-9" width="22" height="18" rx="2" transform="rotate(162)"/>
        <rect x="138" y="-9" width="22" height="18" rx="2" transform="rotate(180)"/>
        <rect x="138" y="-9" width="22" height="18" rx="2" transform="rotate(198)"/>
        <rect x="138" y="-9" width="22" height="18" rx="2" transform="rotate(216)"/>
        <rect x="138" y="-9" width="22" height="18" rx="2" transform="rotate(234)"/>
        <rect x="138" y="-9" width="22" height="18" rx="2" transform="rotate(252)"/>
        <rect x="138" y="-9" width="22" height="18" rx="2" transform="rotate(270)"/>
        <rect x="138" y="-9" width="22" height="18" rx="2" transform="rotate(288)"/>
        <rect x="138" y="-9" width="22" height="18" rx="2" transform="rotate(306)"/>
        <rect x="138" y="-9" width="22" height="18" rx="2" transform="rotate(324)"/>
        <rect x="138" y="-9" width="22" height="18" rx="2" transform="rotate(342)"/>
      </g>
      <circle r="138" fill="#18222E" stroke="#5A8AB0" stroke-width="2"/>
      <line x1="-125" y1="0" x2="125" y2="0" stroke="#6A9AC8" stroke-width="1.5"/>
      <line x1="0" y1="-125" x2="0" y2="125" stroke="#6A9AC8" stroke-width="1.5"/>
      <line x1="-88" y1="-88" x2="88" y2="88" stroke="#5A8AB0" stroke-width="1.1"/>
      <line x1="88" y1="-88" x2="-88" y2="88" stroke="#5A8AB0" stroke-width="1.1"/>
      <circle r="32" fill="#1A2838" stroke="#8AAAC8" stroke-width="1.8"/>
      <circle r="10" fill="#243040" stroke="#AACCEE" stroke-width="1.2"/>
    </g>

    <!-- Medium inner gear A: center (340,700), 16 teeth, r=50 — visible inside bezel -->
    <g transform="translate(340,700)">
      <g fill="#4A7A9A" stroke="#8AAABF" stroke-width="0.5">
        <rect x="40" y="-5.5" width="12" height="11" rx="1.5" transform="rotate(0)"/>
        <rect x="40" y="-5.5" width="12" height="11" rx="1.5" transform="rotate(22.5)"/>
        <rect x="40" y="-5.5" width="12" height="11" rx="1.5" transform="rotate(45)"/>
        <rect x="40" y="-5.5" width="12" height="11" rx="1.5" transform="rotate(67.5)"/>
        <rect x="40" y="-5.5" width="12" height="11" rx="1.5" transform="rotate(90)"/>
        <rect x="40" y="-5.5" width="12" height="11" rx="1.5" transform="rotate(112.5)"/>
        <rect x="40" y="-5.5" width="12" height="11" rx="1.5" transform="rotate(135)"/>
        <rect x="40" y="-5.5" width="12" height="11" rx="1.5" transform="rotate(157.5)"/>
        <rect x="40" y="-5.5" width="12" height="11" rx="1.5" transform="rotate(180)"/>
        <rect x="40" y="-5.5" width="12" height="11" rx="1.5" transform="rotate(202.5)"/>
        <rect x="40" y="-5.5" width="12" height="11" rx="1.5" transform="rotate(225)"/>
        <rect x="40" y="-5.5" width="12" height="11" rx="1.5" transform="rotate(247.5)"/>
        <rect x="40" y="-5.5" width="12" height="11" rx="1.5" transform="rotate(270)"/>
        <rect x="40" y="-5.5" width="12" height="11" rx="1.5" transform="rotate(292.5)"/>
        <rect x="40" y="-5.5" width="12" height="11" rx="1.5" transform="rotate(315)"/>
        <rect x="40" y="-5.5" width="12" height="11" rx="1.5" transform="rotate(337.5)"/>
      </g>
      <circle r="40" fill="#18222E" stroke="#5A8AB0" stroke-width="1.5"/>
      <line x1="-36" y1="0" x2="36" y2="0" stroke="#6A9AC8" stroke-width="1.2"/>
      <line x1="0" y1="-36" x2="0" y2="36" stroke="#6A9AC8" stroke-width="1.2"/>
      <circle r="8" fill="#1E2A38" stroke="#9ABBD8" stroke-width="1.2"/>
    </g>

    <!-- Small inner gear B: center (462,562), 12 teeth, r=32 -->
    <g transform="translate(462,562)">
      <g fill="#4A7A9A" stroke="#8AAABF" stroke-width="0.5">
        <rect x="26" y="-4" width="8" height="8" rx="1" transform="rotate(0)"/>
        <rect x="26" y="-4" width="8" height="8" rx="1" transform="rotate(30)"/>
        <rect x="26" y="-4" width="8" height="8" rx="1" transform="rotate(60)"/>
        <rect x="26" y="-4" width="8" height="8" rx="1" transform="rotate(90)"/>
        <rect x="26" y="-4" width="8" height="8" rx="1" transform="rotate(120)"/>
        <rect x="26" y="-4" width="8" height="8" rx="1" transform="rotate(150)"/>
        <rect x="26" y="-4" width="8" height="8" rx="1" transform="rotate(180)"/>
        <rect x="26" y="-4" width="8" height="8" rx="1" transform="rotate(210)"/>
        <rect x="26" y="-4" width="8" height="8" rx="1" transform="rotate(240)"/>
        <rect x="26" y="-4" width="8" height="8" rx="1" transform="rotate(270)"/>
        <rect x="26" y="-4" width="8" height="8" rx="1" transform="rotate(300)"/>
        <rect x="26" y="-4" width="8" height="8" rx="1" transform="rotate(330)"/>
      </g>
      <circle r="26" fill="#18222E" stroke="#5A8AB0" stroke-width="1.2"/>
      <circle r="5" fill="#1E2A38" stroke="#9ABBD8" stroke-width="1"/>
    </g>

    <!-- Small gear left: center (248,558), 12 teeth — outside bezel, meshing -->
    <g transform="translate(248,558)">
      <g fill="#4A7A9A" stroke="#8AAABF" stroke-width="0.5">
        <rect x="42" y="-5" width="13" height="10" rx="1.5"/>
        <rect x="42" y="-5" width="13" height="10" rx="1.5" transform="rotate(30)"/>
        <rect x="42" y="-5" width="13" height="10" rx="1.5" transform="rotate(60)"/>
        <rect x="42" y="-5" width="13" height="10" rx="1.5" transform="rotate(90)"/>
        <rect x="42" y="-5" width="13" height="10" rx="1.5" transform="rotate(120)"/>
        <rect x="42" y="-5" width="13" height="10" rx="1.5" transform="rotate(150)"/>
        <rect x="42" y="-5" width="13" height="10" rx="1.5" transform="rotate(180)"/>
        <rect x="42" y="-5" width="13" height="10" rx="1.5" transform="rotate(210)"/>
        <rect x="42" y="-5" width="13" height="10" rx="1.5" transform="rotate(240)"/>
        <rect x="42" y="-5" width="13" height="10" rx="1.5" transform="rotate(270)"/>
        <rect x="42" y="-5" width="13" height="10" rx="1.5" transform="rotate(300)"/>
        <rect x="42" y="-5" width="13" height="10" rx="1.5" transform="rotate(330)"/>
      </g>
      <circle r="42" fill="#18222E" stroke="#5A8AB0" stroke-width="1.5"/>
      <line x1="-38" y1="0" x2="38" y2="0" stroke="#6A9AC8" stroke-width="1.1"/>
      <line x1="0" y1="-38" x2="0" y2="38" stroke="#6A9AC8" stroke-width="1.1"/>
      <circle r="7" fill="#1E2A38" stroke="#9ABBD8" stroke-width="1"/>
    </g>

    <!-- Small gear right: center (552,562), 14 teeth -->
    <g transform="translate(552,562)">
      <g fill="#4A7A9A" stroke="#8AAABF" stroke-width="0.5">
        <rect x="50" y="-5.5" width="14" height="11" rx="1.5" transform="rotate(0)"/>
        <rect x="50" y="-5.5" width="14" height="11" rx="1.5" transform="rotate(25.7)"/>
        <rect x="50" y="-5.5" width="14" height="11" rx="1.5" transform="rotate(51.4)"/>
        <rect x="50" y="-5.5" width="14" height="11" rx="1.5" transform="rotate(77.1)"/>
        <rect x="50" y="-5.5" width="14" height="11" rx="1.5" transform="rotate(102.9)"/>
        <rect x="50" y="-5.5" width="14" height="11" rx="1.5" transform="rotate(128.6)"/>
        <rect x="50" y="-5.5" width="14" height="11" rx="1.5" transform="rotate(154.3)"/>
        <rect x="50" y="-5.5" width="14" height="11" rx="1.5" transform="rotate(180)"/>
        <rect x="50" y="-5.5" width="14" height="11" rx="1.5" transform="rotate(205.7)"/>
        <rect x="50" y="-5.5" width="14" height="11" rx="1.5" transform="rotate(231.4)"/>
        <rect x="50" y="-5.5" width="14" height="11" rx="1.5" transform="rotate(257.1)"/>
        <rect x="50" y="-5.5" width="14" height="11" rx="1.5" transform="rotate(282.9)"/>
        <rect x="50" y="-5.5" width="14" height="11" rx="1.5" transform="rotate(308.6)"/>
        <rect x="50" y="-5.5" width="14" height="11" rx="1.5" transform="rotate(334.3)"/>
      </g>
      <circle r="50" fill="#18222E" stroke="#5A8AB0" stroke-width="1.5"/>
      <line x1="-45" y1="0" x2="45" y2="0" stroke="#6A9AC8" stroke-width="1.1"/>
      <line x1="0" y1="-45" x2="0" y2="45" stroke="#6A9AC8" stroke-width="1.1"/>
      <circle r="8" fill="#1E2A38" stroke="#9ABBD8" stroke-width="1"/>
    </g>

    <!-- Tiny pinion gear: center (310,555), 10 teeth -->
    <g transform="translate(310,555)">
      <g fill="#5A8AB0" stroke="#9ABBD8" stroke-width="0.5">
        <rect x="20" y="-3.5" width="7" height="7" rx="1" transform="rotate(0)"/>
        <rect x="20" y="-3.5" width="7" height="7" rx="1" transform="rotate(36)"/>
        <rect x="20" y="-3.5" width="7" height="7" rx="1" transform="rotate(72)"/>
        <rect x="20" y="-3.5" width="7" height="7" rx="1" transform="rotate(108)"/>
        <rect x="20" y="-3.5" width="7" height="7" rx="1" transform="rotate(144)"/>
        <rect x="20" y="-3.5" width="7" height="7" rx="1" transform="rotate(180)"/>
        <rect x="20" y="-3.5" width="7" height="7" rx="1" transform="rotate(216)"/>
        <rect x="20" y="-3.5" width="7" height="7" rx="1" transform="rotate(252)"/>
        <rect x="20" y="-3.5" width="7" height="7" rx="1" transform="rotate(288)"/>
        <rect x="20" y="-3.5" width="7" height="7" rx="1" transform="rotate(324)"/>
      </g>
      <circle r="20" fill="#18222E" stroke="#5A8AB0" stroke-width="1"/>
      <circle r="4" fill="#1E2A38" stroke="#9ABBD8" stroke-width="0.8"/>
    </g>

    <!-- Escapement wheel (gold): center (400,800) -->
    <g transform="translate(400,800)">
      <g stroke="#B97D4B" stroke-width="1.4" fill="none">
        <line x1="0" y1="-40" x2="5"  y2="-54" transform="rotate(0)"/>
        <line x1="0" y1="-40" x2="5"  y2="-54" transform="rotate(24)"/>
        <line x1="0" y1="-40" x2="5"  y2="-54" transform="rotate(48)"/>
        <line x1="0" y1="-40" x2="5"  y2="-54" transform="rotate(72)"/>
        <line x1="0" y1="-40" x2="5"  y2="-54" transform="rotate(96)"/>
        <line x1="0" y1="-40" x2="5"  y2="-54" transform="rotate(120)"/>
        <line x1="0" y1="-40" x2="5"  y2="-54" transform="rotate(144)"/>
        <line x1="0" y1="-40" x2="5"  y2="-54" transform="rotate(168)"/>
        <line x1="0" y1="-40" x2="5"  y2="-54" transform="rotate(192)"/>
        <line x1="0" y1="-40" x2="5"  y2="-54" transform="rotate(216)"/>
        <line x1="0" y1="-40" x2="5"  y2="-54" transform="rotate(240)"/>
        <line x1="0" y1="-40" x2="5"  y2="-54" transform="rotate(264)"/>
        <line x1="0" y1="-40" x2="5"  y2="-54" transform="rotate(288)"/>
        <line x1="0" y1="-40" x2="5"  y2="-54" transform="rotate(312)"/>
        <line x1="0" y1="-40" x2="5"  y2="-54" transform="rotate(336)"/>
      </g>
      <circle r="40" fill="none" stroke="#B97D4B" stroke-width="1" opacity="0.7"/>
      <circle r="7" fill="none" stroke="#B97D4B" stroke-width="1.2" opacity="0.85"/>
    </g>

    <!-- Balance spring spiral -->
    <g transform="translate(528,728)" fill="none" stroke="#C8A800" stroke-width="0.9" opacity="0.75">
      <path d="M0,0 Q14,-14 0,-24 Q-14,-34 -26,-20 Q-38,-6 -28,10 Q-18,26 2,28 Q22,30 34,14 Q46,-2 36,-20 Q26,-38 6,-44"/>
    </g>

    <!-- Gear shaft connecting rods -->
    <line x1="290" y1="558" x2="290" y2="630" stroke="#5A8AB0" stroke-width="1.2" opacity="0.5"/>
    <line x1="550" y1="562" x2="550" y2="630" stroke="#5A8AB0" stroke-width="1.2" opacity="0.5"/>
    <line x1="340" y1="700" x2="400" y2="768" stroke="#4A7A9A" stroke-width="1" opacity="0.45"/>
  </g>

  <!-- ── CLOCK FACE (stopwatch, semi-transparent) ── -->
  <g>
    <!-- Stopwatch push-buttons -->
    <!-- Main start/stop button (top center) -->
    <rect x="394" y="454" width="12" height="40" rx="4" fill="#4A6A8A" stroke="#8AAAC8" stroke-width="1"/>
    <rect x="388" y="448" width="24" height="10" rx="4" fill="#5A8AB0" stroke="#9ABBD8" stroke-width="1"/>
    <!-- Left button — snapped to gear tooth at -18° -->
    <g transform="translate(400,630) rotate(-18)">
      <rect x="-6" y="-166" width="12" height="30" rx="3" fill="#4A6A8A" stroke="#8AAAC8" stroke-width="1"/>
      <rect x="-12" y="-174" width="24" height="9" rx="3" fill="#5A8AB0" stroke="#9ABBD8" stroke-width="1"/>
    </g>
    <!-- Right button — snapped to gear tooth at +18° -->
    <g transform="translate(400,630) rotate(18)">
      <rect x="-6" y="-166" width="12" height="30" rx="3" fill="#4A6A8A" stroke="#8AAAC8" stroke-width="1"/>
      <rect x="-12" y="-174" width="24" height="9" rx="3" fill="#5A8AB0" stroke="#9ABBD8" stroke-width="1"/>
    </g>

    <!-- Face glass: very transparent -->
    <circle cx="400" cy="630" r="138" fill="#1A2434" fill-opacity="0.22" stroke="#B97D4B" stroke-width="2.2"/>
    <!-- Inner bezel ring -->
    <circle cx="400" cy="630" r="130" fill="none" stroke="#B97D4B" stroke-width="0.7" opacity="0.45"/>

    <!-- Tick marks — drawn relative to clock center -->
    <g transform="translate(400,630)">
      <!-- HOUR ticks: 12 bold long marks every 30° -->
      <g stroke="#CBD5E1" stroke-width="2.8">
        <line x1="0" y1="-112" x2="0" y2="-128"/>
        <line x1="0" y1="-112" x2="0" y2="-128" transform="rotate(30)"/>
        <line x1="0" y1="-112" x2="0" y2="-128" transform="rotate(60)"/>
        <line x1="0" y1="-112" x2="0" y2="-128" transform="rotate(90)"/>
        <line x1="0" y1="-112" x2="0" y2="-128" transform="rotate(120)"/>
        <line x1="0" y1="-112" x2="0" y2="-128" transform="rotate(150)"/>
        <line x1="0" y1="-112" x2="0" y2="-128" transform="rotate(180)"/>
        <line x1="0" y1="-112" x2="0" y2="-128" transform="rotate(210)"/>
        <line x1="0" y1="-112" x2="0" y2="-128" transform="rotate(240)"/>
        <line x1="0" y1="-112" x2="0" y2="-128" transform="rotate(270)"/>
        <line x1="0" y1="-112" x2="0" y2="-128" transform="rotate(300)"/>
        <line x1="0" y1="-112" x2="0" y2="-128" transform="rotate(330)"/>
      </g>
      <!-- MINUTE ticks: 48 thinner shorter marks (all 6° positions except hour marks) -->
      <g stroke="#7A8BA0" stroke-width="0.9">
        <line x1="0" y1="-122" x2="0" y2="-127" transform="rotate(6)"/>
        <line x1="0" y1="-122" x2="0" y2="-127" transform="rotate(12)"/>
        <line x1="0" y1="-122" x2="0" y2="-127" transform="rotate(18)"/>
        <line x1="0" y1="-122" x2="0" y2="-127" transform="rotate(24)"/>
        <line x1="0" y1="-122" x2="0" y2="-127" transform="rotate(36)"/>
        <line x1="0" y1="-122" x2="0" y2="-127" transform="rotate(42)"/>
        <line x1="0" y1="-122" x2="0" y2="-127" transform="rotate(48)"/>
        <line x1="0" y1="-122" x2="0" y2="-127" transform="rotate(54)"/>
        <line x1="0" y1="-122" x2="0" y2="-127" transform="rotate(66)"/>
        <line x1="0" y1="-122" x2="0" y2="-127" transform="rotate(72)"/>
        <line x1="0" y1="-122" x2="0" y2="-127" transform="rotate(78)"/>
        <line x1="0" y1="-122" x2="0" y2="-127" transform="rotate(84)"/>
        <line x1="0" y1="-122" x2="0" y2="-127" transform="rotate(96)"/>
        <line x1="0" y1="-122" x2="0" y2="-127" transform="rotate(102)"/>
        <line x1="0" y1="-122" x2="0" y2="-127" transform="rotate(108)"/>
        <line x1="0" y1="-122" x2="0" y2="-127" transform="rotate(114)"/>
        <line x1="0" y1="-122" x2="0" y2="-127" transform="rotate(126)"/>
        <line x1="0" y1="-122" x2="0" y2="-127" transform="rotate(132)"/>
        <line x1="0" y1="-122" x2="0" y2="-127" transform="rotate(138)"/>
        <line x1="0" y1="-122" x2="0" y2="-127" transform="rotate(144)"/>
        <line x1="0" y1="-122" x2="0" y2="-127" transform="rotate(156)"/>
        <line x1="0" y1="-122" x2="0" y2="-127" transform="rotate(162)"/>
        <line x1="0" y1="-122" x2="0" y2="-127" transform="rotate(168)"/>
        <line x1="0" y1="-122" x2="0" y2="-127" transform="rotate(174)"/>
        <line x1="0" y1="-122" x2="0" y2="-127" transform="rotate(186)"/>
        <line x1="0" y1="-122" x2="0" y2="-127" transform="rotate(192)"/>
        <line x1="0" y1="-122" x2="0" y2="-127" transform="rotate(198)"/>
        <line x1="0" y1="-122" x2="0" y2="-127" transform="rotate(204)"/>
        <line x1="0" y1="-122" x2="0" y2="-127" transform="rotate(216)"/>
        <line x1="0" y1="-122" x2="0" y2="-127" transform="rotate(222)"/>
        <line x1="0" y1="-122" x2="0" y2="-127" transform="rotate(228)"/>
        <line x1="0" y1="-122" x2="0" y2="-127" transform="rotate(234)"/>
        <line x1="0" y1="-122" x2="0" y2="-127" transform="rotate(246)"/>
        <line x1="0" y1="-122" x2="0" y2="-127" transform="rotate(252)"/>
        <line x1="0" y1="-122" x2="0" y2="-127" transform="rotate(258)"/>
        <line x1="0" y1="-122" x2="0" y2="-127" transform="rotate(264)"/>
        <line x1="0" y1="-122" x2="0" y2="-127" transform="rotate(276)"/>
        <line x1="0" y1="-122" x2="0" y2="-127" transform="rotate(282)"/>
        <line x1="0" y1="-122" x2="0" y2="-127" transform="rotate(288)"/>
        <line x1="0" y1="-122" x2="0" y2="-127" transform="rotate(294)"/>
        <line x1="0" y1="-122" x2="0" y2="-127" transform="rotate(306)"/>
        <line x1="0" y1="-122" x2="0" y2="-127" transform="rotate(312)"/>
        <line x1="0" y1="-122" x2="0" y2="-127" transform="rotate(318)"/>
        <line x1="0" y1="-122" x2="0" y2="-127" transform="rotate(324)"/>
        <line x1="0" y1="-122" x2="0" y2="-127" transform="rotate(336)"/>
        <line x1="0" y1="-122" x2="0" y2="-127" transform="rotate(342)"/>
        <line x1="0" y1="-122" x2="0" y2="-127" transform="rotate(348)"/>
        <line x1="0" y1="-122" x2="0" y2="-127" transform="rotate(354)"/>
      </g>
    </g>

    <!-- ── MINUTES SUB-DIAL (just under the 12 tick) — pointer angle = elapsed minutes (gold 14, white 22, blue 44) ── -->
    <g>
      <circle cx="400" cy="556" r="30" fill="#1A2434" fill-opacity="0.35" stroke="#B97D4B" stroke-width="1.6"/>
      <circle cx="400" cy="556" r="25" fill="none" stroke="#B97D4B" stroke-width="0.5" opacity="0.4"/>
      <g transform="translate(400,556)" stroke="#CBD5E1" stroke-width="0.9">
        <line x1="0" y1="-25" x2="0" y2="-30"/>
        <line x1="0" y1="-25" x2="0" y2="-30" transform="rotate(30)"/>
        <line x1="0" y1="-25" x2="0" y2="-30" transform="rotate(60)"/>
        <line x1="0" y1="-25" x2="0" y2="-30" transform="rotate(90)"/>
        <line x1="0" y1="-25" x2="0" y2="-30" transform="rotate(120)"/>
        <line x1="0" y1="-25" x2="0" y2="-30" transform="rotate(150)"/>
        <line x1="0" y1="-25" x2="0" y2="-30" transform="rotate(180)"/>
        <line x1="0" y1="-25" x2="0" y2="-30" transform="rotate(210)"/>
        <line x1="0" y1="-25" x2="0" y2="-30" transform="rotate(240)"/>
        <line x1="0" y1="-25" x2="0" y2="-30" transform="rotate(270)"/>
        <line x1="0" y1="-25" x2="0" y2="-30" transform="rotate(300)"/>
        <line x1="0" y1="-25" x2="0" y2="-30" transform="rotate(330)"/>
      </g>
      <g opacity="0.85">
        <g transform="translate(400,556) rotate(84)"><rect x="-1.6" y="-24" width="3.2" height="24" rx="1.6" fill="#C8A800"/></g>
        <g transform="translate(400,556) rotate(132)"><rect x="-1.6" y="-24" width="3.2" height="24" rx="1.6" fill="#F7F3E8"/></g>
        <g transform="translate(400,556) rotate(264)"><rect x="-1.6" y="-24" width="3.2" height="24" rx="1.6" fill="#4ABCD8"/></g>
      </g>
      <circle cx="400" cy="556" r="3" fill="#C8A800"/>
    </g>

    <!-- ── THREE STOPWATCH HANDS — equal length/width, distinct colors ── -->
    <!-- r=112, center (400,630). All @opacity 0.72.
         Gold  @105°: past 15s mark → tip (508,659)  → line→(658,659) CIRCLE (censored)
         Cyan  @192°: past 30s mark → tip (377,740)  → line→(520,740) CIRCLE (event)
         White @315°: past 45s mark → tip (321,551)  → line→(430,551) CIRCLE (event)   -->

    <!-- HAND 1: gold #C8A800, @105° — past 15s -->
    <g opacity="0.72">
      <g transform="translate(400,630) rotate(105)">
        <rect x="-2.5" y="-112" width="5" height="128" rx="2.5" fill="#C8A800"/>
      </g>
      <line x1="508" y1="659" x2="631" y2="659" stroke="#C8A800" stroke-width="2.2"/>
      <circle cx="631" cy="659" r="7" fill="#2A3444" stroke="#C8A800" stroke-width="2"/>
    </g>

    <!-- HAND 2: cyan #4ABCD8, @192° — past 30s -->
    <g opacity="0.72">
      <g transform="translate(400,630) rotate(192)">
        <rect x="-2.5" y="-112" width="5" height="128" rx="2.5" fill="#4ABCD8"/>
      </g>
      <line x1="377" y1="740" x2="760" y2="740" stroke="#4ABCD8" stroke-width="2.2"/>
      <circle cx="760" cy="740" r="8" fill="#4ABCD8"/>
    </g>

    <!-- HAND 3: parchment #F7F3E8, @66° — 11 seconds (right side of face) -->
    <g opacity="0.72">
      <g transform="translate(400,630) rotate(66)">
        <rect x="-2.5" y="-112" width="5" height="128" rx="2.5" fill="#F7F3E8"/>
      </g>
      <line x1="502" y1="584" x2="692" y2="584" stroke="#F7F3E8" stroke-width="2.2"/>
      <circle cx="692" cy="584" r="8" fill="#F7F3E8"/>
    </g>

    <!-- Center cap (on top of all hands) -->
    <circle cx="400" cy="630" r="7" fill="#C8A800"/>
    <circle cx="400" cy="630" r="3" fill="#F7F3E8"/>
  </g>

  </g><!-- end IT19 artwork translate -->
  </g>
</svg>
