<svg xmlns="http://www.w3.org/2000/svg" width="1500" height="760" viewBox="0 0 1500 760" font-family="DejaVu Sans"><circle cx="250" cy="466.0" r="40" fill="#E8EEF7" stroke="#5B7CA8" stroke-width="1.8"/><text x="246.928" y="474.16" text-anchor="middle" font-family="DejaVu Sans" font-size="24" fill="#111">x</text><text x="258.68" y="480.86" text-anchor="start" font-family="DejaVu Sans" font-size="14.9" fill="#111">1</text><circle cx="250" cy="364.0" r="40" fill="#E8EEF7" stroke="#5B7CA8" stroke-width="1.8"/><text x="246.928" y="372.16" text-anchor="middle" font-family="DejaVu Sans" font-size="24" fill="#111">x</text><text x="258.68" y="378.86" text-anchor="start" font-family="DejaVu Sans" font-size="14.9" fill="#111">2</text><circle cx="250" cy="666.0" r="36" fill="#F5F5F5" stroke="#555555" stroke-width="1.6"/><text x="250" y="671.6666666666666" text-anchor="middle" font-family="DejaVu Sans" font-size="23" fill="#111">1</text><circle cx="540" cy="568.0" r="40" fill="#FFF1D6" stroke="#C99A2C" stroke-width="1.6"/><text x="537.312" y="575.14" text-anchor="middle" font-family="DejaVu Sans" font-size="21" fill="#111">h</text><text x="547.72" y="581.00" text-anchor="start" font-family="DejaVu Sans" font-size="13.0" fill="#111">1</text><text x="547.72" y="563.59" text-anchor="start" font-family="DejaVu Sans" font-size="13.0" fill="#111">(1)</text><circle cx="540" cy="466.0" r="40" fill="#FFF1D6" stroke="#C99A2C" stroke-width="1.6"/><text x="537.312" y="473.14" text-anchor="middle" font-family="DejaVu Sans" font-size="21" fill="#111">h</text><text x="547.72" y="479.00" text-anchor="start" font-family="DejaVu Sans" font-size="13.0" fill="#111">2</text><text x="547.72" y="461.59" text-anchor="start" font-family="DejaVu Sans" font-size="13.0" fill="#111">(1)</text><circle cx="540" cy="364.0" r="40" fill="#FFF1D6" stroke="#C99A2C" stroke-width="1.6"/><text x="537.312" y="371.14" text-anchor="middle" font-family="DejaVu Sans" font-size="21" fill="#111">h</text><text x="547.72" y="377.00" text-anchor="start" font-family="DejaVu Sans" font-size="13.0" fill="#111">3</text><text x="547.72" y="359.59" text-anchor="start" font-family="DejaVu Sans" font-size="13.0" fill="#111">(1)</text><circle cx="540" cy="262.0" r="40" fill="#FFF1D6" stroke="#C99A2C" stroke-width="1.6"/><text x="537.312" y="269.14" text-anchor="middle" font-family="DejaVu Sans" font-size="21" fill="#111">h</text><text x="547.72" y="275.00" text-anchor="start" font-family="DejaVu Sans" font-size="13.0" fill="#111">4</text><text x="547.72" y="257.59" text-anchor="start" font-family="DejaVu Sans" font-size="13.0" fill="#111">(1)</text><circle cx="540" cy="666.0" r="36" fill="#F5F5F5" stroke="#555555" stroke-width="1.6"/><text x="540" y="671.6666666666666" text-anchor="middle" font-family="DejaVu Sans" font-size="23" fill="#111">1</text><circle cx="830" cy="517.0" r="40" fill="#FFF1D6" stroke="#C99A2C" stroke-width="1.6"/><text x="827.312" y="524.14" text-anchor="middle" font-family="DejaVu Sans" font-size="21" fill="#111">h</text><text x="837.72" y="530.00" text-anchor="start" font-family="DejaVu Sans" font-size="13.0" fill="#111">1</text><text x="837.72" y="512.59" text-anchor="start" font-family="DejaVu Sans" font-size="13.0" fill="#111">(2)</text><circle cx="830" cy="415.0" r="40" fill="#FFF1D6" stroke="#C99A2C" stroke-width="1.6"/><text x="827.312" y="422.14" text-anchor="middle" font-family="DejaVu Sans" font-size="21" fill="#111">h</text><text x="837.72" y="428.00" text-anchor="start" font-family="DejaVu Sans" font-size="13.0" fill="#111">2</text><text x="837.72" y="410.59" text-anchor="start" font-family="DejaVu Sans" font-size="13.0" fill="#111">(2)</text><circle cx="830" cy="313.0" r="40" fill="#FFF1D6" stroke="#C99A2C" stroke-width="1.6"/><text x="827.312" y="320.14" text-anchor="middle" font-family="DejaVu Sans" font-size="21" fill="#111">h</text><text x="837.72" y="326.00" text-anchor="start" font-family="DejaVu Sans" font-size="13.0" fill="#111">3</text><text x="837.72" y="308.59" text-anchor="start" font-family="DejaVu Sans" font-size="13.0" fill="#111">(2)</text><circle cx="830" cy="666.0" r="36" fill="#F5F5F5" stroke="#555555" stroke-width="1.6"/><text x="830" y="671.6666666666666" text-anchor="middle" font-family="DejaVu Sans" font-size="23" fill="#111">1</text><circle cx="1060" cy="415.0" r="40" fill="white" stroke="#444" stroke-width="1.8"/><text x="1060" y="421.0" text-anchor="middle" font-family="DejaVu Sans" font-size="24" fill="#111">z</text><rect x="1148" y="379.0" width="106" height="72" rx="10" ry="10" fill="#FFF7C2" stroke="#C4A000" stroke-width="1.8"/><text x="1201.0" y="423.0" text-anchor="middle" font-family="DejaVu Sans" font-size="24" font-weight="normal" fill="#222">r(·)</text><circle cx="1342" cy="415.0" r="42" fill="#E8F5E9" stroke="#3F8A52" stroke-width="2.2"/><text x="1342" y="421.0" text-anchor="middle" font-family="DejaVu Sans" font-size="24" fill="#111">y</text><line x1="287.73" y1="479.27" x2="492.83" y2="551.41" stroke="#6E7787" stroke-width="1.0" stroke-opacity="0.55"/><polygon points="502.27,554.73 491.17,556.13 494.49,546.69" fill="#6E7787" fill-opacity="0.55"/><line x1="290.00" y1="466.00" x2="490.00" y2="466.00" stroke="#6E7787" stroke-width="1.0" stroke-opacity="0.55"/><polygon points="500.00,466.00 490.00,471.00 490.00,461.00" fill="#6E7787" fill-opacity="0.55"/><line x1="287.73" y1="452.73" x2="492.83" y2="380.59" stroke="#6E7787" stroke-width="1.0" stroke-opacity="0.55"/><polygon points="502.27,377.27 494.49,385.31 491.17,375.87" fill="#6E7787" fill-opacity="0.55"/><line x1="282.72" y1="442.99" x2="499.10" y2="290.77" stroke="#6E7787" stroke-width="1.0" stroke-opacity="0.55"/><polygon points="507.28,285.01 501.98,294.86 496.23,286.68" fill="#6E7787" fill-opacity="0.55"/><line x1="282.72" y1="387.01" x2="499.10" y2="539.23" stroke="#6E7787" stroke-width="1.0" stroke-opacity="0.55"/><polygon points="507.28,544.99 496.23,543.32 501.98,535.14" fill="#6E7787" fill-opacity="0.55"/><line x1="287.73" y1="377.27" x2="492.83" y2="449.41" stroke="#6E7787" stroke-width="1.0" stroke-opacity="0.55"/><polygon points="502.27,452.73 491.17,454.13 494.49,444.69" fill="#6E7787" fill-opacity="0.55"/><line x1="290.00" y1="364.00" x2="490.00" y2="364.00" stroke="#6E7787" stroke-width="1.0" stroke-opacity="0.55"/><polygon points="500.00,364.00 490.00,369.00 490.00,359.00" fill="#6E7787" fill-opacity="0.55"/><line x1="287.73" y1="350.73" x2="492.83" y2="278.59" stroke="#6E7787" stroke-width="1.0" stroke-opacity="0.55"/><polygon points="502.27,275.27 494.49,283.31 491.17,273.87" fill="#6E7787" fill-opacity="0.55"/><line x1="284.11" y1="654.47" x2="492.63" y2="584.01" stroke="#6E7787" stroke-width="1.0" stroke-opacity="0.55"/><polygon points="502.11,580.81 494.23,588.74 491.03,579.27" fill="#6E7787" fill-opacity="0.55"/><line x1="279.64" y1="645.56" x2="498.84" y2="494.39" stroke="#6E7787" stroke-width="1.0" stroke-opacity="0.55"/><polygon points="507.07,488.71 501.68,498.50 496.00,490.27" fill="#6E7787" fill-opacity="0.55"/><line x1="274.93" y1="640.03" x2="505.37" y2="400.06" stroke="#6E7787" stroke-width="1.0" stroke-opacity="0.55"/><polygon points="512.29,392.85 508.97,403.53 501.76,396.60" fill="#6E7787" fill-opacity="0.55"/><line x1="270.99" y1="636.75" x2="510.84" y2="302.62" stroke="#6E7787" stroke-width="1.0" stroke-opacity="0.55"/><polygon points="516.67,294.49 514.90,305.53 506.78,299.70" fill="#6E7787" fill-opacity="0.55"/><line x1="579.40" y1="561.07" x2="780.76" y2="525.66" stroke="#6E7787" stroke-width="1.0" stroke-opacity="0.55"/><polygon points="790.60,523.93 781.62,530.58 779.89,520.74" fill="#6E7787" fill-opacity="0.55"/><line x1="575.38" y1="549.33" x2="785.78" y2="438.33" stroke="#6E7787" stroke-width="1.0" stroke-opacity="0.55"/><polygon points="794.62,433.67 788.11,442.75 783.44,433.91" fill="#6E7787" fill-opacity="0.55"/><line x1="570.04" y1="541.59" x2="792.45" y2="346.02" stroke="#6E7787" stroke-width="1.0" stroke-opacity="0.55"/><polygon points="799.96,339.41 795.75,349.77 789.15,342.26" fill="#6E7787" fill-opacity="0.55"/><line x1="579.40" y1="472.93" x2="780.76" y2="508.34" stroke="#6E7787" stroke-width="1.0" stroke-opacity="0.55"/><polygon points="790.60,510.07 779.89,513.26 781.62,503.42" fill="#6E7787" fill-opacity="0.55"/><line x1="579.40" y1="459.07" x2="780.76" y2="423.66" stroke="#6E7787" stroke-width="1.0" stroke-opacity="0.55"/><polygon points="790.60,421.93 781.62,428.58 779.89,418.74" fill="#6E7787" fill-opacity="0.55"/><line x1="575.38" y1="447.33" x2="785.78" y2="336.33" stroke="#6E7787" stroke-width="1.0" stroke-opacity="0.55"/><polygon points="794.62,331.67 788.11,340.75 783.44,331.91" fill="#6E7787" fill-opacity="0.55"/><line x1="575.38" y1="382.67" x2="785.78" y2="493.67" stroke="#6E7787" stroke-width="1.0" stroke-opacity="0.55"/><polygon points="794.62,498.33 783.44,498.09 788.11,489.25" fill="#6E7787" fill-opacity="0.55"/><line x1="579.40" y1="370.93" x2="780.76" y2="406.34" stroke="#6E7787" stroke-width="1.0" stroke-opacity="0.55"/><polygon points="790.60,408.07 779.89,411.26 781.62,401.42" fill="#6E7787" fill-opacity="0.55"/><line x1="579.40" y1="357.07" x2="780.76" y2="321.66" stroke="#6E7787" stroke-width="1.0" stroke-opacity="0.55"/><polygon points="790.60,319.93 781.62,326.58 779.89,316.74" fill="#6E7787" fill-opacity="0.55"/><line x1="570.04" y1="288.41" x2="792.45" y2="483.98" stroke="#6E7787" stroke-width="1.0" stroke-opacity="0.55"/><polygon points="799.96,490.59 789.15,487.74 795.75,480.23" fill="#6E7787" fill-opacity="0.55"/><line x1="575.38" y1="280.67" x2="785.78" y2="391.67" stroke="#6E7787" stroke-width="1.0" stroke-opacity="0.55"/><polygon points="794.62,396.33 783.44,396.09 788.11,387.25" fill="#6E7787" fill-opacity="0.55"/><line x1="579.40" y1="268.93" x2="780.76" y2="304.34" stroke="#6E7787" stroke-width="1.0" stroke-opacity="0.55"/><polygon points="790.60,306.07 779.89,309.26 781.62,299.42" fill="#6E7787" fill-opacity="0.55"/><line x1="572.02" y1="649.55" x2="785.53" y2="539.85" stroke="#6E7787" stroke-width="1.0" stroke-opacity="0.55"/><polygon points="794.42,535.28 787.81,544.30 783.24,535.40" fill="#6E7787" fill-opacity="0.55"/><line x1="567.22" y1="642.44" x2="792.19" y2="447.72" stroke="#6E7787" stroke-width="1.0" stroke-opacity="0.55"/><polygon points="799.76,441.18 795.47,451.50 788.92,443.94" fill="#6E7787" fill-opacity="0.55"/><line x1="562.85" y1="638.18" x2="798.26" y2="351.63" stroke="#6E7787" stroke-width="1.0" stroke-opacity="0.55"/><polygon points="804.61,343.91 802.12,354.81 794.40,348.46" fill="#6E7787" fill-opacity="0.55"/><line x1="866.57" y1="500.78" x2="1012.46" y2="436.08" stroke="#6E7787" stroke-width="1.2" stroke-opacity="0.65"/><polygon points="1023.43,431.22 1014.90,441.57 1010.03,430.60" fill="#6E7787" fill-opacity="0.65"/><line x1="870.00" y1="415.00" x2="1008.00" y2="415.00" stroke="#6E7787" stroke-width="1.2" stroke-opacity="0.65"/><polygon points="1020.00,415.00 1008.00,421.00 1008.00,409.00" fill="#6E7787" fill-opacity="0.65"/><line x1="866.57" y1="329.22" x2="1012.46" y2="393.92" stroke="#6E7787" stroke-width="1.2" stroke-opacity="0.65"/><polygon points="1023.43,398.78 1010.03,399.40 1014.90,388.43" fill="#6E7787" fill-opacity="0.65"/><line x1="854.32" y1="639.46" x2="1024.87" y2="453.34" stroke="#6E7787" stroke-width="1.2" stroke-opacity="0.65"/><polygon points="1032.98,444.49 1029.29,457.39 1020.45,449.28" fill="#6E7787" fill-opacity="0.65"/><line x1="1100.00" y1="415.00" x2="1134.00" y2="415.00" stroke="#6E7787" stroke-width="2.0" stroke-opacity="1.0"/><polygon points="1148.00,415.00 1134.00,422.00 1134.00,408.00" fill="#6E7787" fill-opacity="1.0"/><line x1="1254.00" y1="415.00" x2="1286.00" y2="415.00" stroke="#6E7787" stroke-width="2.0" stroke-opacity="1.0"/><polygon points="1300.00,415.00 1286.00,422.00 1286.00,408.00" fill="#6E7787" fill-opacity="1.0"/><text x="250" y="50" text-anchor="middle" font-family="DejaVu Sans" font-size="23" font-weight="bold" fill="#111">input layer</text><text x="250" y="80" text-anchor="middle" font-family="DejaVu Sans" font-size="23" font-weight="normal" fill="#444">x ∈ ℝ²</text><text x="540" y="50" text-anchor="middle" font-family="DejaVu Sans" font-size="23" font-weight="bold" fill="#111">hidden layer 1</text><text x="540" y="80" text-anchor="middle" font-family="DejaVu Sans" font-size="23" font-weight="normal" fill="#444">h⁽¹⁾ = a(W⁽¹⁾x + b⁽¹⁾)</text><text x="830" y="50" text-anchor="middle" font-family="DejaVu Sans" font-size="23" font-weight="bold" fill="#111">hidden layer 2</text><text x="830" y="80" text-anchor="middle" font-family="DejaVu Sans" font-size="23" font-weight="normal" fill="#444">h⁽²⁾ = a(W⁽²⁾h⁽¹⁾ + b⁽²⁾)</text><text x="1201.0" y="50" text-anchor="middle" font-family="DejaVu Sans" font-size="23" font-weight="bold" fill="#111">output layer</text><text x="1201.0" y="80" text-anchor="middle" font-family="DejaVu Sans" font-size="23" font-weight="normal" fill="#444">z = W⁽³⁾h⁽²⁾ + b⁽³⁾,   y = r(z)</text></svg>