<svg xmlns="http://www.w3.org/2000/svg" width="1500" height="820" viewBox="0 0 1500 820" font-family="DejaVu Sans"><circle cx="250" cy="547.0" r="40" fill="#E8EEF7" stroke="#5B7CA8" stroke-width="1.8"/><text x="246.928" y="555.16" text-anchor="middle" font-family="DejaVu Sans" font-size="24" fill="#111">x</text><text x="258.68" y="561.86" text-anchor="start" font-family="DejaVu Sans" font-size="14.9" fill="#111">1</text><circle cx="250" cy="445.0" r="40" fill="#E8EEF7" stroke="#5B7CA8" stroke-width="1.8"/><text x="246.928" y="453.16" text-anchor="middle" font-family="DejaVu Sans" font-size="24" fill="#111">x</text><text x="258.68" y="459.86" text-anchor="start" font-family="DejaVu Sans" font-size="14.9" fill="#111">2</text><circle cx="250" cy="343.0" r="40" fill="#E8EEF7" stroke="#5B7CA8" stroke-width="1.8"/><text x="246.928" y="351.16" text-anchor="middle" font-family="DejaVu Sans" font-size="24" fill="#111">x</text><text x="258.68" y="357.86" text-anchor="start" font-family="DejaVu Sans" font-size="14.9" fill="#111">3</text><circle cx="250" cy="747.0" r="36" fill="#F5F5F5" stroke="#555555" stroke-width="1.6"/><text x="250" y="752.6666666666666" text-anchor="middle" font-family="DejaVu Sans" font-size="23" fill="#111">1</text><circle cx="540" cy="649.0" r="40" fill="#FFF1D6" stroke="#C99A2C" stroke-width="1.6"/><text x="537.312" y="656.14" text-anchor="middle" font-family="DejaVu Sans" font-size="21" fill="#111">h</text><text x="547.72" y="662.00" text-anchor="start" font-family="DejaVu Sans" font-size="13.0" fill="#111">1</text><text x="547.72" y="644.59" text-anchor="start" font-family="DejaVu Sans" font-size="13.0" fill="#111">(1)</text><circle cx="540" cy="547.0" r="40" fill="#FFF1D6" stroke="#C99A2C" stroke-width="1.6"/><text x="537.312" y="554.14" text-anchor="middle" font-family="DejaVu Sans" font-size="21" fill="#111">h</text><text x="547.72" y="560.00" text-anchor="start" font-family="DejaVu Sans" font-size="13.0" fill="#111">2</text><text x="547.72" y="542.59" text-anchor="start" font-family="DejaVu Sans" font-size="13.0" fill="#111">(1)</text><circle cx="540" cy="445.0" r="40" fill="#FFF1D6" stroke="#C99A2C" stroke-width="1.6"/><text x="537.312" y="452.14" text-anchor="middle" font-family="DejaVu Sans" font-size="21" fill="#111">h</text><text x="547.72" y="458.00" text-anchor="start" font-family="DejaVu Sans" font-size="13.0" fill="#111">3</text><text x="547.72" y="440.59" text-anchor="start" font-family="DejaVu Sans" font-size="13.0" fill="#111">(1)</text><circle cx="540" cy="343.0" r="40" fill="#FFF1D6" stroke="#C99A2C" stroke-width="1.6"/><text x="537.312" y="350.14" text-anchor="middle" font-family="DejaVu Sans" font-size="21" fill="#111">h</text><text x="547.72" y="356.00" text-anchor="start" font-family="DejaVu Sans" font-size="13.0" fill="#111">4</text><text x="547.72" y="338.59" text-anchor="start" font-family="DejaVu Sans" font-size="13.0" fill="#111">(1)</text><circle cx="540" cy="241.0" r="40" fill="#FFF1D6" stroke="#C99A2C" stroke-width="1.6"/><text x="537.312" y="248.14" text-anchor="middle" font-family="DejaVu Sans" font-size="21" fill="#111">h</text><text x="547.72" y="254.00" text-anchor="start" font-family="DejaVu Sans" font-size="13.0" fill="#111">5</text><text x="547.72" y="236.59" text-anchor="start" font-family="DejaVu Sans" font-size="13.0" fill="#111">(1)</text><circle cx="540" cy="747.0" r="36" fill="#F5F5F5" stroke="#555555" stroke-width="1.6"/><text x="540" y="752.6666666666666" text-anchor="middle" font-family="DejaVu Sans" font-size="23" fill="#111">1</text><circle cx="830" cy="547.0" r="40" fill="#FFF1D6" stroke="#C99A2C" stroke-width="1.6"/><text x="827.312" y="554.14" text-anchor="middle" font-family="DejaVu Sans" font-size="21" fill="#111">h</text><text x="837.72" y="560.00" text-anchor="start" font-family="DejaVu Sans" font-size="13.0" fill="#111">1</text><text x="837.72" y="542.59" text-anchor="start" font-family="DejaVu Sans" font-size="13.0" fill="#111">(2)</text><circle cx="830" cy="445.0" r="40" fill="#FFF1D6" stroke="#C99A2C" stroke-width="1.6"/><text x="827.312" y="452.14" text-anchor="middle" font-family="DejaVu Sans" font-size="21" fill="#111">h</text><text x="837.72" y="458.00" text-anchor="start" font-family="DejaVu Sans" font-size="13.0" fill="#111">2</text><text x="837.72" y="440.59" text-anchor="start" font-family="DejaVu Sans" font-size="13.0" fill="#111">(2)</text><circle cx="830" cy="343.0" r="40" fill="#FFF1D6" stroke="#C99A2C" stroke-width="1.6"/><text x="827.312" y="350.14" text-anchor="middle" font-family="DejaVu Sans" font-size="21" fill="#111">h</text><text x="837.72" y="356.00" text-anchor="start" font-family="DejaVu Sans" font-size="13.0" fill="#111">3</text><text x="837.72" y="338.59" text-anchor="start" font-family="DejaVu Sans" font-size="13.0" fill="#111">(2)</text><circle cx="830" cy="747.0" r="36" fill="#F5F5F5" stroke="#555555" stroke-width="1.6"/><text x="830" y="752.6666666666666" text-anchor="middle" font-family="DejaVu Sans" font-size="23" fill="#111">1</text><circle cx="1060" cy="350.0" r="40" fill="white" stroke="#444" stroke-width="1.8"/><text x="1056.928" y="358.16" text-anchor="middle" font-family="DejaVu Sans" font-size="24" fill="#111">z</text><text x="1068.68" y="364.86" text-anchor="start" font-family="DejaVu Sans" font-size="14.9" fill="#111">μ</text><circle cx="1060" cy="540.0" r="40" fill="white" stroke="#444" stroke-width="1.8"/><text x="1056.928" y="548.16" text-anchor="middle" font-family="DejaVu Sans" font-size="24" fill="#111">z</text><text x="1068.68" y="554.86" text-anchor="start" font-family="DejaVu Sans" font-size="14.9" fill="#111">σ</text><rect x="1148" y="314.0" width="124" height="72" rx="10" ry="10" fill="#FFF7C2" stroke="#C4A000" stroke-width="1.8"/><text x="1206.928" y="358.16" text-anchor="middle" font-family="DejaVu Sans" font-size="24" fill="#111">r</text><text x="1218.68" y="364.86" text-anchor="start" font-family="DejaVu Sans" font-size="14.9" fill="#111">μ</text><rect x="1148" y="504.0" width="124" height="72" rx="10" ry="10" fill="#FFF7C2" stroke="#C4A000" stroke-width="1.8"/><text x="1206.928" y="548.16" text-anchor="middle" font-family="DejaVu Sans" font-size="24" fill="#111">r</text><text x="1218.68" y="554.86" text-anchor="start" font-family="DejaVu Sans" font-size="14.9" fill="#111">σ</text><circle cx="1360" cy="350.0" r="42" fill="#E8F5E9" stroke="#3F8A52" stroke-width="2.2"/><text x="1356.928" y="358.16" text-anchor="middle" font-family="DejaVu Sans" font-size="24" fill="#111">μ̂</text><circle cx="1360" cy="540.0" r="42" fill="#E8F5E9" stroke="#3F8A52" stroke-width="2.2"/><text x="1356.928" y="548.16" text-anchor="middle" font-family="DejaVu Sans" font-size="24" fill="#111">σ̂</text><line x1="287.73" y1="560.27" x2="492.83" y2="632.41" stroke="#6E7787" stroke-width="1.0" stroke-opacity="0.55"/><polygon points="502.27,635.73 491.17,637.13 494.49,627.69" fill="#6E7787" fill-opacity="0.55"/><line x1="290.00" y1="547.00" x2="490.00" y2="547.00" stroke="#6E7787" stroke-width="1.0" stroke-opacity="0.55"/><polygon points="500.00,547.00 490.00,552.00 490.00,542.00" fill="#6E7787" fill-opacity="0.55"/><line x1="287.73" y1="533.73" x2="492.83" y2="461.59" stroke="#6E7787" stroke-width="1.0" stroke-opacity="0.55"/><polygon points="502.27,458.27 494.49,466.31 491.17,456.87" fill="#6E7787" fill-opacity="0.55"/><line x1="282.72" y1="523.99" x2="499.10" y2="371.77" stroke="#6E7787" stroke-width="1.0" stroke-opacity="0.55"/><polygon points="507.28,366.01 501.98,375.86 496.23,367.68" fill="#6E7787" fill-opacity="0.55"/><line x1="277.52" y1="517.97" x2="505.61" y2="277.29" stroke="#6E7787" stroke-width="1.0" stroke-opacity="0.55"/><polygon points="512.48,270.03 509.24,280.73 501.98,273.85" fill="#6E7787" fill-opacity="0.55"/><line x1="282.72" y1="468.01" x2="499.10" y2="620.23" stroke="#6E7787" stroke-width="1.0" stroke-opacity="0.55"/><polygon points="507.28,625.99 496.23,624.32 501.98,616.14" fill="#6E7787" fill-opacity="0.55"/><line x1="287.73" y1="458.27" x2="492.83" y2="530.41" stroke="#6E7787" stroke-width="1.0" stroke-opacity="0.55"/><polygon points="502.27,533.73 491.17,535.13 494.49,525.69" fill="#6E7787" fill-opacity="0.55"/><line x1="290.00" y1="445.00" x2="490.00" y2="445.00" stroke="#6E7787" stroke-width="1.0" stroke-opacity="0.55"/><polygon points="500.00,445.00 490.00,450.00 490.00,440.00" fill="#6E7787" fill-opacity="0.55"/><line x1="287.73" y1="431.73" x2="492.83" y2="359.59" stroke="#6E7787" stroke-width="1.0" stroke-opacity="0.55"/><polygon points="502.27,356.27 494.49,364.31 491.17,354.87" fill="#6E7787" fill-opacity="0.55"/><line x1="282.72" y1="421.99" x2="499.10" y2="269.77" stroke="#6E7787" stroke-width="1.0" stroke-opacity="0.55"/><polygon points="507.28,264.01 501.98,273.86 496.23,265.68" fill="#6E7787" fill-opacity="0.55"/><line x1="277.52" y1="372.03" x2="505.61" y2="612.71" stroke="#6E7787" stroke-width="1.0" stroke-opacity="0.55"/><polygon points="512.48,619.97 501.98,616.15 509.24,609.27" fill="#6E7787" fill-opacity="0.55"/><line x1="282.72" y1="366.01" x2="499.10" y2="518.23" stroke="#6E7787" stroke-width="1.0" stroke-opacity="0.55"/><polygon points="507.28,523.99 496.23,522.32 501.98,514.14" fill="#6E7787" fill-opacity="0.55"/><line x1="287.73" y1="356.27" x2="492.83" y2="428.41" stroke="#6E7787" stroke-width="1.0" stroke-opacity="0.55"/><polygon points="502.27,431.73 491.17,433.13 494.49,423.69" fill="#6E7787" fill-opacity="0.55"/><line x1="290.00" y1="343.00" x2="490.00" y2="343.00" stroke="#6E7787" stroke-width="1.0" stroke-opacity="0.55"/><polygon points="500.00,343.00 490.00,348.00 490.00,338.00" fill="#6E7787" fill-opacity="0.55"/><line x1="287.73" y1="329.73" x2="492.83" y2="257.59" stroke="#6E7787" stroke-width="1.0" stroke-opacity="0.55"/><polygon points="502.27,254.27 494.49,262.31 491.17,252.87" fill="#6E7787" fill-opacity="0.55"/><line x1="284.11" y1="735.47" x2="492.63" y2="665.01" stroke="#6E7787" stroke-width="1.0" stroke-opacity="0.55"/><polygon points="502.11,661.81 494.23,669.74 491.03,660.27" fill="#6E7787" fill-opacity="0.55"/><line x1="279.64" y1="726.56" x2="498.84" y2="575.39" stroke="#6E7787" stroke-width="1.0" stroke-opacity="0.55"/><polygon points="507.07,569.71 501.68,579.50 496.00,571.27" fill="#6E7787" fill-opacity="0.55"/><line x1="274.93" y1="721.03" x2="505.37" y2="481.06" stroke="#6E7787" stroke-width="1.0" stroke-opacity="0.55"/><polygon points="512.29,473.85 508.97,484.53 501.76,477.60" fill="#6E7787" fill-opacity="0.55"/><line x1="270.99" y1="717.75" x2="510.84" y2="383.62" stroke="#6E7787" stroke-width="1.0" stroke-opacity="0.55"/><polygon points="516.67,375.49 514.90,386.53 506.78,380.70" fill="#6E7787" fill-opacity="0.55"/><line x1="267.90" y1="715.77" x2="515.14" y2="284.38" stroke="#6E7787" stroke-width="1.0" stroke-opacity="0.55"/><polygon points="520.11,275.70 519.48,286.87 510.80,281.89" fill="#6E7787" fill-opacity="0.55"/><line x1="577.73" y1="635.73" x2="782.83" y2="563.59" stroke="#6E7787" stroke-width="1.0" stroke-opacity="0.55"/><polygon points="792.27,560.27 784.49,568.31 781.17,558.87" fill="#6E7787" fill-opacity="0.55"/><line x1="572.72" y1="625.99" x2="789.10" y2="473.77" stroke="#6E7787" stroke-width="1.0" stroke-opacity="0.55"/><polygon points="797.28,468.01 791.98,477.86 786.23,469.68" fill="#6E7787" fill-opacity="0.55"/><line x1="567.52" y1="619.97" x2="795.61" y2="379.29" stroke="#6E7787" stroke-width="1.0" stroke-opacity="0.55"/><polygon points="802.48,372.03 799.24,382.73 791.98,375.85" fill="#6E7787" fill-opacity="0.55"/><line x1="580.00" y1="547.00" x2="780.00" y2="547.00" stroke="#6E7787" stroke-width="1.0" stroke-opacity="0.55"/><polygon points="790.00,547.00 780.00,552.00 780.00,542.00" fill="#6E7787" fill-opacity="0.55"/><line x1="577.73" y1="533.73" x2="782.83" y2="461.59" stroke="#6E7787" stroke-width="1.0" stroke-opacity="0.55"/><polygon points="792.27,458.27 784.49,466.31 781.17,456.87" fill="#6E7787" fill-opacity="0.55"/><line x1="572.72" y1="523.99" x2="789.10" y2="371.77" stroke="#6E7787" stroke-width="1.0" stroke-opacity="0.55"/><polygon points="797.28,366.01 791.98,375.86 786.23,367.68" fill="#6E7787" fill-opacity="0.55"/><line x1="577.73" y1="458.27" x2="782.83" y2="530.41" stroke="#6E7787" stroke-width="1.0" stroke-opacity="0.55"/><polygon points="792.27,533.73 781.17,535.13 784.49,525.69" fill="#6E7787" fill-opacity="0.55"/><line x1="580.00" y1="445.00" x2="780.00" y2="445.00" stroke="#6E7787" stroke-width="1.0" stroke-opacity="0.55"/><polygon points="790.00,445.00 780.00,450.00 780.00,440.00" fill="#6E7787" fill-opacity="0.55"/><line x1="577.73" y1="431.73" x2="782.83" y2="359.59" stroke="#6E7787" stroke-width="1.0" stroke-opacity="0.55"/><polygon points="792.27,356.27 784.49,364.31 781.17,354.87" fill="#6E7787" fill-opacity="0.55"/><line x1="572.72" y1="366.01" x2="789.10" y2="518.23" stroke="#6E7787" stroke-width="1.0" stroke-opacity="0.55"/><polygon points="797.28,523.99 786.23,522.32 791.98,514.14" fill="#6E7787" fill-opacity="0.55"/><line x1="577.73" y1="356.27" x2="782.83" y2="428.41" stroke="#6E7787" stroke-width="1.0" stroke-opacity="0.55"/><polygon points="792.27,431.73 781.17,433.13 784.49,423.69" fill="#6E7787" fill-opacity="0.55"/><line x1="580.00" y1="343.00" x2="780.00" y2="343.00" stroke="#6E7787" stroke-width="1.0" stroke-opacity="0.55"/><polygon points="790.00,343.00 780.00,348.00 780.00,338.00" fill="#6E7787" fill-opacity="0.55"/><line x1="567.52" y1="270.03" x2="795.61" y2="510.71" stroke="#6E7787" stroke-width="1.0" stroke-opacity="0.55"/><polygon points="802.48,517.97 791.98,514.15 799.24,507.27" fill="#6E7787" fill-opacity="0.55"/><line x1="572.72" y1="264.01" x2="789.10" y2="416.23" stroke="#6E7787" stroke-width="1.0" stroke-opacity="0.55"/><polygon points="797.28,421.99 786.23,420.32 791.98,412.14" fill="#6E7787" fill-opacity="0.55"/><line x1="577.73" y1="254.27" x2="782.83" y2="326.41" stroke="#6E7787" stroke-width="1.0" stroke-opacity="0.55"/><polygon points="792.27,329.73 781.17,331.13 784.49,321.69" fill="#6E7787" fill-opacity="0.55"/><line x1="569.64" y1="726.56" x2="788.84" y2="575.39" stroke="#6E7787" stroke-width="1.0" stroke-opacity="0.55"/><polygon points="797.07,569.71 791.68,579.50 786.00,571.27" fill="#6E7787" fill-opacity="0.55"/><line x1="564.93" y1="721.03" x2="795.37" y2="481.06" stroke="#6E7787" stroke-width="1.0" stroke-opacity="0.55"/><polygon points="802.29,473.85 798.97,484.53 791.76,477.60" fill="#6E7787" fill-opacity="0.55"/><line x1="560.99" y1="717.75" x2="800.84" y2="383.62" stroke="#6E7787" stroke-width="1.0" stroke-opacity="0.55"/><polygon points="806.67,375.49 804.90,386.53 796.78,380.70" fill="#6E7787" fill-opacity="0.55"/><line x1="860.38" y1="520.98" x2="1022.03" y2="382.53" stroke="#6E7787" stroke-width="1.0" stroke-opacity="0.55"/><polygon points="1029.62,376.02 1025.28,386.32 1018.77,378.73" fill="#6E7787" fill-opacity="0.55"/><line x1="869.98" y1="545.78" x2="1010.02" y2="541.52" stroke="#6E7787" stroke-width="1.0" stroke-opacity="0.55"/><polygon points="1020.02,541.22 1010.18,546.52 1009.87,536.52" fill="#6E7787" fill-opacity="0.55"/><line x1="866.97" y1="429.73" x2="1013.79" y2="369.09" stroke="#6E7787" stroke-width="1.0" stroke-opacity="0.55"/><polygon points="1023.03,365.27 1015.70,373.71 1011.88,364.47" fill="#6E7787" fill-opacity="0.55"/><line x1="866.97" y1="460.27" x2="1013.79" y2="520.91" stroke="#6E7787" stroke-width="1.0" stroke-opacity="0.55"/><polygon points="1023.03,524.73 1011.88,525.53 1015.70,516.29" fill="#6E7787" fill-opacity="0.55"/><line x1="869.98" y1="344.22" x2="1010.02" y2="348.48" stroke="#6E7787" stroke-width="1.0" stroke-opacity="0.55"/><polygon points="1020.02,348.78 1009.87,353.48 1010.18,343.48" fill="#6E7787" fill-opacity="0.55"/><line x1="860.38" y1="369.02" x2="1022.03" y2="507.47" stroke="#6E7787" stroke-width="1.0" stroke-opacity="0.55"/><polygon points="1029.62,513.98 1018.77,511.27 1025.28,503.68" fill="#6E7787" fill-opacity="0.55"/><line x1="848.05" y1="715.85" x2="1034.94" y2="393.26" stroke="#6E7787" stroke-width="1.0" stroke-opacity="0.55"/><polygon points="1039.95,384.61 1039.26,395.77 1030.61,390.76" fill="#6E7787" fill-opacity="0.55"/><line x1="856.76" y1="722.92" x2="1022.84" y2="573.45" stroke="#6E7787" stroke-width="1.0" stroke-opacity="0.55"/><polygon points="1030.27,566.76 1026.18,577.16 1019.49,569.73" fill="#6E7787" fill-opacity="0.55"/><line x1="1100.00" y1="350.00" x2="1134.00" y2="350.00" stroke="#6E7787" stroke-width="2.0" stroke-opacity="1.0"/><polygon points="1148.00,350.00 1134.00,357.00 1134.00,343.00" fill="#6E7787" fill-opacity="1.0"/><line x1="1272.00" y1="350.00" x2="1304.00" y2="350.00" stroke="#6E7787" stroke-width="2.0" stroke-opacity="1.0"/><polygon points="1318.00,350.00 1304.00,357.00 1304.00,343.00" fill="#6E7787" fill-opacity="1.0"/><line x1="1100.00" y1="540.00" x2="1134.00" y2="540.00" stroke="#6E7787" stroke-width="2.0" stroke-opacity="1.0"/><polygon points="1148.00,540.00 1134.00,547.00 1134.00,533.00" fill="#6E7787" fill-opacity="1.0"/><line x1="1272.00" y1="540.00" x2="1304.00" y2="540.00" stroke="#6E7787" stroke-width="2.0" stroke-opacity="1.0"/><polygon points="1318.00,540.00 1304.00,547.00 1304.00,533.00" fill="#6E7787" fill-opacity="1.0"/><text x="250" y="50" text-anchor="middle" font-family="DejaVu Sans" font-size="23" font-weight="bold" fill="#111">input layer</text><text x="250" y="80" text-anchor="middle" font-family="DejaVu Sans" font-size="23" font-weight="normal" fill="#444">x ∈ ℝ³</text><text x="540" y="50" text-anchor="middle" font-family="DejaVu Sans" font-size="23" font-weight="bold" fill="#111">hidden layer 1</text><text x="540" y="80" text-anchor="middle" font-family="DejaVu Sans" font-size="23" font-weight="normal" fill="#444">h⁽¹⁾ = a(W⁽¹⁾x + b⁽¹⁾)</text><text x="830" y="50" text-anchor="middle" font-family="DejaVu Sans" font-size="23" font-weight="bold" fill="#111">hidden layer 2</text><text x="830" y="80" text-anchor="middle" font-family="DejaVu Sans" font-size="23" font-weight="normal" fill="#444">h⁽²⁾ = a(W⁽²⁾h⁽¹⁾ + b⁽²⁾)</text><text x="1210.0" y="50" text-anchor="middle" font-family="DejaVu Sans" font-size="23" font-weight="bold" fill="#111">output layer (μ, σ)</text><text x="1210.0" y="80" text-anchor="middle" font-family="DejaVu Sans" font-size="23" font-weight="normal" fill="#444">μ̂ = r_μ(z_μ),   σ̂ = r_σ(z_σ)</text></svg>