<svg xmlns="http://www.w3.org/2000/svg" width="1500" height="760" viewBox="0 0 1500 760" font-family="DejaVu Sans"><circle cx="250" cy="517.0" r="40" fill="#E8EEF7" stroke="#5B7CA8" stroke-width="1.8"/><text x="246.928" y="525.16" text-anchor="middle" font-family="DejaVu Sans" font-size="24" fill="#111">x</text><text x="258.68" y="531.86" text-anchor="start" font-family="DejaVu Sans" font-size="14.9" fill="#111">1</text><circle cx="250" cy="415.0" r="40" fill="#E8EEF7" stroke="#5B7CA8" stroke-width="1.8"/><text x="246.928" y="423.16" text-anchor="middle" font-family="DejaVu Sans" font-size="24" fill="#111">x</text><text x="258.68" y="429.86" text-anchor="start" font-family="DejaVu Sans" font-size="14.9" fill="#111">2</text><circle cx="250" cy="313.0" r="40" fill="#E8EEF7" stroke="#5B7CA8" stroke-width="1.8"/><text x="246.928" y="321.16" text-anchor="middle" font-family="DejaVu Sans" font-size="24" fill="#111">x</text><text x="258.68" y="327.86" text-anchor="start" font-family="DejaVu Sans" font-size="14.9" fill="#111">3</text><circle cx="250" cy="717.0" r="36" fill="#F5F5F5" stroke="#555555" stroke-width="1.6"/><text x="250" y="722.6666666666666" text-anchor="middle" font-family="DejaVu Sans" font-size="23" fill="#111">1</text><circle cx="540" cy="619.0" r="40" fill="#FFF1D6" stroke="#C99A2C" stroke-width="1.6"/><text x="537.312" y="626.14" text-anchor="middle" font-family="DejaVu Sans" font-size="21" fill="#111">h</text><text x="547.72" y="632.00" text-anchor="start" font-family="DejaVu Sans" font-size="13.0" fill="#111">1</text><text x="547.72" y="614.59" text-anchor="start" font-family="DejaVu Sans" font-size="13.0" fill="#111">(1)</text><circle cx="540" cy="517.0" r="40" fill="#FFF1D6" stroke="#C99A2C" stroke-width="1.6"/><text x="537.312" y="524.14" text-anchor="middle" font-family="DejaVu Sans" font-size="21" fill="#111">h</text><text x="547.72" y="530.00" text-anchor="start" font-family="DejaVu Sans" font-size="13.0" fill="#111">2</text><text x="547.72" y="512.59" text-anchor="start" font-family="DejaVu Sans" font-size="13.0" fill="#111">(1)</text><circle cx="540" cy="415.0" r="40" fill="#FFF1D6" stroke="#C99A2C" stroke-width="1.6"/><text x="537.312" y="422.14" text-anchor="middle" font-family="DejaVu Sans" font-size="21" fill="#111">h</text><text x="547.72" y="428.00" text-anchor="start" font-family="DejaVu Sans" font-size="13.0" fill="#111">3</text><text x="547.72" y="410.59" text-anchor="start" font-family="DejaVu Sans" font-size="13.0" fill="#111">(1)</text><circle cx="540" cy="313.0" r="40" fill="#FFF1D6" stroke="#C99A2C" stroke-width="1.6"/><text x="537.312" y="320.14" text-anchor="middle" font-family="DejaVu Sans" font-size="21" fill="#111">h</text><text x="547.72" y="326.00" text-anchor="start" font-family="DejaVu Sans" font-size="13.0" fill="#111">4</text><text x="547.72" y="308.59" text-anchor="start" font-family="DejaVu Sans" font-size="13.0" fill="#111">(1)</text><circle cx="540" cy="211.0" r="40" fill="#FFF1D6" stroke="#C99A2C" stroke-width="1.6"/><text x="537.312" y="218.14" text-anchor="middle" font-family="DejaVu Sans" font-size="21" fill="#111">h</text><text x="547.72" y="224.00" text-anchor="start" font-family="DejaVu Sans" font-size="13.0" fill="#111">5</text><text x="547.72" y="206.59" text-anchor="start" font-family="DejaVu Sans" font-size="13.0" fill="#111">(1)</text><circle cx="540" cy="717.0" r="36" fill="#F5F5F5" stroke="#555555" stroke-width="1.6"/><text x="540" y="722.6666666666666" text-anchor="middle" font-family="DejaVu Sans" font-size="23" fill="#111">1</text><circle cx="830" cy="517.0" r="40" fill="#FFF1D6" stroke="#C99A2C" stroke-width="1.6"/><text x="827.312" y="524.14" text-anchor="middle" font-family="DejaVu Sans" font-size="21" fill="#111">h</text><text x="837.72" y="530.00" text-anchor="start" font-family="DejaVu Sans" font-size="13.0" fill="#111">1</text><text x="837.72" y="512.59" text-anchor="start" font-family="DejaVu Sans" font-size="13.0" fill="#111">(2)</text><circle cx="830" cy="415.0" r="40" fill="#FFF1D6" stroke="#C99A2C" stroke-width="1.6"/><text x="827.312" y="422.14" text-anchor="middle" font-family="DejaVu Sans" font-size="21" fill="#111">h</text><text x="837.72" y="428.00" text-anchor="start" font-family="DejaVu Sans" font-size="13.0" fill="#111">2</text><text x="837.72" y="410.59" text-anchor="start" font-family="DejaVu Sans" font-size="13.0" fill="#111">(2)</text><circle cx="830" cy="313.0" r="40" fill="#FFF1D6" stroke="#C99A2C" stroke-width="1.6"/><text x="827.312" y="320.14" text-anchor="middle" font-family="DejaVu Sans" font-size="21" fill="#111">h</text><text x="837.72" y="326.00" text-anchor="start" font-family="DejaVu Sans" font-size="13.0" fill="#111">3</text><text x="837.72" y="308.59" text-anchor="start" font-family="DejaVu Sans" font-size="13.0" fill="#111">(2)</text><circle cx="830" cy="717.0" r="36" fill="#F5F5F5" stroke="#555555" stroke-width="1.6"/><text x="830" y="722.6666666666666" text-anchor="middle" font-family="DejaVu Sans" font-size="23" fill="#111">1</text><circle cx="1060" cy="415.0" r="40" fill="white" stroke="#444" stroke-width="1.8"/><text x="1060" y="421.0" text-anchor="middle" font-family="DejaVu Sans" font-size="24" fill="#111">z</text><rect x="1148" y="379.0" width="106" height="72" rx="10" ry="10" fill="#FFF7C2" stroke="#C4A000" stroke-width="1.8"/><text x="1201.0" y="423.0" text-anchor="middle" font-family="DejaVu Sans" font-size="24" font-weight="normal" fill="#222">r(·)</text><circle cx="1342" cy="415.0" r="42" fill="#E8F5E9" stroke="#3F8A52" stroke-width="2.2"/><text x="1342" y="421.0" text-anchor="middle" font-family="DejaVu Sans" font-size="24" fill="#111">y</text><line x1="287.73" y1="530.27" x2="492.83" y2="602.41" stroke="#6E7787" stroke-width="1.0" stroke-opacity="0.55"/><polygon points="502.27,605.73 491.17,607.13 494.49,597.69" fill="#6E7787" fill-opacity="0.55"/><line x1="290.00" y1="517.00" x2="490.00" y2="517.00" stroke="#6E7787" stroke-width="1.0" stroke-opacity="0.55"/><polygon points="500.00,517.00 490.00,522.00 490.00,512.00" fill="#6E7787" fill-opacity="0.55"/><line x1="287.73" y1="503.73" x2="492.83" y2="431.59" stroke="#6E7787" stroke-width="1.0" stroke-opacity="0.55"/><polygon points="502.27,428.27 494.49,436.31 491.17,426.87" fill="#6E7787" fill-opacity="0.55"/><line x1="282.72" y1="493.99" x2="499.10" y2="341.77" stroke="#6E7787" stroke-width="1.0" stroke-opacity="0.55"/><polygon points="507.28,336.01 501.98,345.86 496.23,337.68" fill="#6E7787" fill-opacity="0.55"/><line x1="277.52" y1="487.97" x2="505.61" y2="247.29" stroke="#6E7787" stroke-width="1.0" stroke-opacity="0.55"/><polygon points="512.48,240.03 509.24,250.73 501.98,243.85" fill="#6E7787" fill-opacity="0.55"/><line x1="282.72" y1="438.01" x2="499.10" y2="590.23" stroke="#6E7787" stroke-width="1.0" stroke-opacity="0.55"/><polygon points="507.28,595.99 496.23,594.32 501.98,586.14" fill="#6E7787" fill-opacity="0.55"/><line x1="287.73" y1="428.27" x2="492.83" y2="500.41" stroke="#6E7787" stroke-width="1.0" stroke-opacity="0.55"/><polygon points="502.27,503.73 491.17,505.13 494.49,495.69" fill="#6E7787" fill-opacity="0.55"/><line x1="290.00" y1="415.00" x2="490.00" y2="415.00" stroke="#6E7787" stroke-width="1.0" stroke-opacity="0.55"/><polygon points="500.00,415.00 490.00,420.00 490.00,410.00" fill="#6E7787" fill-opacity="0.55"/><line x1="287.73" y1="401.73" x2="492.83" y2="329.59" stroke="#6E7787" stroke-width="1.0" stroke-opacity="0.55"/><polygon points="502.27,326.27 494.49,334.31 491.17,324.87" fill="#6E7787" fill-opacity="0.55"/><line x1="282.72" y1="391.99" x2="499.10" y2="239.77" stroke="#6E7787" stroke-width="1.0" stroke-opacity="0.55"/><polygon points="507.28,234.01 501.98,243.86 496.23,235.68" fill="#6E7787" fill-opacity="0.55"/><line x1="277.52" y1="342.03" x2="505.61" y2="582.71" stroke="#6E7787" stroke-width="1.0" stroke-opacity="0.55"/><polygon points="512.48,589.97 501.98,586.15 509.24,579.27" fill="#6E7787" fill-opacity="0.55"/><line x1="282.72" y1="336.01" x2="499.10" y2="488.23" stroke="#6E7787" stroke-width="1.0" stroke-opacity="0.55"/><polygon points="507.28,493.99 496.23,492.32 501.98,484.14" fill="#6E7787" fill-opacity="0.55"/><line x1="287.73" y1="326.27" x2="492.83" y2="398.41" stroke="#6E7787" stroke-width="1.0" stroke-opacity="0.55"/><polygon points="502.27,401.73 491.17,403.13 494.49,393.69" fill="#6E7787" fill-opacity="0.55"/><line x1="290.00" y1="313.00" x2="490.00" y2="313.00" stroke="#6E7787" stroke-width="1.0" stroke-opacity="0.55"/><polygon points="500.00,313.00 490.00,318.00 490.00,308.00" fill="#6E7787" fill-opacity="0.55"/><line x1="287.73" y1="299.73" x2="492.83" y2="227.59" stroke="#6E7787" stroke-width="1.0" stroke-opacity="0.55"/><polygon points="502.27,224.27 494.49,232.31 491.17,222.87" fill="#6E7787" fill-opacity="0.55"/><line x1="284.11" y1="705.47" x2="492.63" y2="635.01" stroke="#6E7787" stroke-width="1.0" stroke-opacity="0.55"/><polygon points="502.11,631.81 494.23,639.74 491.03,630.27" fill="#6E7787" fill-opacity="0.55"/><line x1="279.64" y1="696.56" x2="498.84" y2="545.39" stroke="#6E7787" stroke-width="1.0" stroke-opacity="0.55"/><polygon points="507.07,539.71 501.68,549.50 496.00,541.27" fill="#6E7787" fill-opacity="0.55"/><line x1="274.93" y1="691.03" x2="505.37" y2="451.06" stroke="#6E7787" stroke-width="1.0" stroke-opacity="0.55"/><polygon points="512.29,443.85 508.97,454.53 501.76,447.60" fill="#6E7787" fill-opacity="0.55"/><line x1="270.99" y1="687.75" x2="510.84" y2="353.62" stroke="#6E7787" stroke-width="1.0" stroke-opacity="0.55"/><polygon points="516.67,345.49 514.90,356.53 506.78,350.70" fill="#6E7787" fill-opacity="0.55"/><line x1="267.90" y1="685.77" x2="515.14" y2="254.38" stroke="#6E7787" stroke-width="1.0" stroke-opacity="0.55"/><polygon points="520.11,245.70 519.48,256.87 510.80,251.89" fill="#6E7787" fill-opacity="0.55"/><line x1="577.73" y1="605.73" x2="782.83" y2="533.59" stroke="#6E7787" stroke-width="1.0" stroke-opacity="0.55"/><polygon points="792.27,530.27 784.49,538.31 781.17,528.87" fill="#6E7787" fill-opacity="0.55"/><line x1="572.72" y1="595.99" x2="789.10" y2="443.77" stroke="#6E7787" stroke-width="1.0" stroke-opacity="0.55"/><polygon points="797.28,438.01 791.98,447.86 786.23,439.68" fill="#6E7787" fill-opacity="0.55"/><line x1="567.52" y1="589.97" x2="795.61" y2="349.29" stroke="#6E7787" stroke-width="1.0" stroke-opacity="0.55"/><polygon points="802.48,342.03 799.24,352.73 791.98,345.85" fill="#6E7787" fill-opacity="0.55"/><line x1="580.00" y1="517.00" x2="780.00" y2="517.00" stroke="#6E7787" stroke-width="1.0" stroke-opacity="0.55"/><polygon points="790.00,517.00 780.00,522.00 780.00,512.00" fill="#6E7787" fill-opacity="0.55"/><line x1="577.73" y1="503.73" x2="782.83" y2="431.59" stroke="#6E7787" stroke-width="1.0" stroke-opacity="0.55"/><polygon points="792.27,428.27 784.49,436.31 781.17,426.87" fill="#6E7787" fill-opacity="0.55"/><line x1="572.72" y1="493.99" x2="789.10" y2="341.77" stroke="#6E7787" stroke-width="1.0" stroke-opacity="0.55"/><polygon points="797.28,336.01 791.98,345.86 786.23,337.68" fill="#6E7787" fill-opacity="0.55"/><line x1="577.73" y1="428.27" x2="782.83" y2="500.41" stroke="#6E7787" stroke-width="1.0" stroke-opacity="0.55"/><polygon points="792.27,503.73 781.17,505.13 784.49,495.69" fill="#6E7787" fill-opacity="0.55"/><line x1="580.00" y1="415.00" x2="780.00" y2="415.00" stroke="#6E7787" stroke-width="1.0" stroke-opacity="0.55"/><polygon points="790.00,415.00 780.00,420.00 780.00,410.00" fill="#6E7787" fill-opacity="0.55"/><line x1="577.73" y1="401.73" x2="782.83" y2="329.59" stroke="#6E7787" stroke-width="1.0" stroke-opacity="0.55"/><polygon points="792.27,326.27 784.49,334.31 781.17,324.87" fill="#6E7787" fill-opacity="0.55"/><line x1="572.72" y1="336.01" x2="789.10" y2="488.23" stroke="#6E7787" stroke-width="1.0" stroke-opacity="0.55"/><polygon points="797.28,493.99 786.23,492.32 791.98,484.14" fill="#6E7787" fill-opacity="0.55"/><line x1="577.73" y1="326.27" x2="782.83" y2="398.41" stroke="#6E7787" stroke-width="1.0" stroke-opacity="0.55"/><polygon points="792.27,401.73 781.17,403.13 784.49,393.69" fill="#6E7787" fill-opacity="0.55"/><line x1="580.00" y1="313.00" x2="780.00" y2="313.00" stroke="#6E7787" stroke-width="1.0" stroke-opacity="0.55"/><polygon points="790.00,313.00 780.00,318.00 780.00,308.00" fill="#6E7787" fill-opacity="0.55"/><line x1="567.52" y1="240.03" x2="795.61" y2="480.71" stroke="#6E7787" stroke-width="1.0" stroke-opacity="0.55"/><polygon points="802.48,487.97 791.98,484.15 799.24,477.27" fill="#6E7787" fill-opacity="0.55"/><line x1="572.72" y1="234.01" x2="789.10" y2="386.23" stroke="#6E7787" stroke-width="1.0" stroke-opacity="0.55"/><polygon points="797.28,391.99 786.23,390.32 791.98,382.14" fill="#6E7787" fill-opacity="0.55"/><line x1="577.73" y1="224.27" x2="782.83" y2="296.41" stroke="#6E7787" stroke-width="1.0" stroke-opacity="0.55"/><polygon points="792.27,299.73 781.17,301.13 784.49,291.69" fill="#6E7787" fill-opacity="0.55"/><line x1="569.64" y1="696.56" x2="788.84" y2="545.39" stroke="#6E7787" stroke-width="1.0" stroke-opacity="0.55"/><polygon points="797.07,539.71 791.68,549.50 786.00,541.27" fill="#6E7787" fill-opacity="0.55"/><line x1="564.93" y1="691.03" x2="795.37" y2="451.06" stroke="#6E7787" stroke-width="1.0" stroke-opacity="0.55"/><polygon points="802.29,443.85 798.97,454.53 791.76,447.60" fill="#6E7787" fill-opacity="0.55"/><line x1="560.99" y1="687.75" x2="800.84" y2="353.62" stroke="#6E7787" stroke-width="1.0" stroke-opacity="0.55"/><polygon points="806.67,345.49 804.90,356.53 796.78,350.70" fill="#6E7787" fill-opacity="0.55"/><line x1="866.57" y1="500.78" x2="1012.46" y2="436.08" stroke="#6E7787" stroke-width="1.2" stroke-opacity="0.65"/><polygon points="1023.43,431.22 1014.90,441.57 1010.03,430.60" fill="#6E7787" fill-opacity="0.65"/><line x1="870.00" y1="415.00" x2="1008.00" y2="415.00" stroke="#6E7787" stroke-width="1.2" stroke-opacity="0.65"/><polygon points="1020.00,415.00 1008.00,421.00 1008.00,409.00" fill="#6E7787" fill-opacity="0.65"/><line x1="866.57" y1="329.22" x2="1012.46" y2="393.92" stroke="#6E7787" stroke-width="1.2" stroke-opacity="0.65"/><polygon points="1023.43,398.78 1010.03,399.40 1014.90,388.43" fill="#6E7787" fill-opacity="0.65"/><line x1="851.81" y1="688.36" x2="1028.49" y2="456.37" stroke="#6E7787" stroke-width="1.2" stroke-opacity="0.65"/><polygon points="1035.76,446.82 1033.27,460.00 1023.72,452.73" fill="#6E7787" fill-opacity="0.65"/><line x1="1100.00" y1="415.00" x2="1134.00" y2="415.00" stroke="#6E7787" stroke-width="2.0" stroke-opacity="1.0"/><polygon points="1148.00,415.00 1134.00,422.00 1134.00,408.00" fill="#6E7787" fill-opacity="1.0"/><line x1="1254.00" y1="415.00" x2="1286.00" y2="415.00" stroke="#6E7787" stroke-width="2.0" stroke-opacity="1.0"/><polygon points="1300.00,415.00 1286.00,422.00 1286.00,408.00" fill="#6E7787" fill-opacity="1.0"/><text x="250" y="50" text-anchor="middle" font-family="DejaVu Sans" font-size="23" font-weight="bold" fill="#111">input layer</text><text x="250" y="80" text-anchor="middle" font-family="DejaVu Sans" font-size="23" font-weight="normal" fill="#444">x ∈ ℝ³</text><text x="540" y="50" text-anchor="middle" font-family="DejaVu Sans" font-size="23" font-weight="bold" fill="#111">hidden layer 1</text><text x="540" y="80" text-anchor="middle" font-family="DejaVu Sans" font-size="23" font-weight="normal" fill="#444">h⁽¹⁾ = a(W⁽¹⁾x + b⁽¹⁾)</text><text x="830" y="50" text-anchor="middle" font-family="DejaVu Sans" font-size="23" font-weight="bold" fill="#111">hidden layer 2</text><text x="830" y="80" text-anchor="middle" font-family="DejaVu Sans" font-size="23" font-weight="normal" fill="#444">h⁽²⁾ = a(W⁽²⁾h⁽¹⁾ + b⁽²⁾)</text><text x="1201.0" y="50" text-anchor="middle" font-family="DejaVu Sans" font-size="23" font-weight="bold" fill="#111">output layer</text><text x="1201.0" y="80" text-anchor="middle" font-family="DejaVu Sans" font-size="23" font-weight="normal" fill="#444">z = W⁽³⁾h⁽²⁾ + b⁽³⁾,   y = r(z)</text></svg>