<svg xmlns="http://www.w3.org/2000/svg" viewBox="0 0 1140 775" font-family="DejaVu Sans">
<defs><filter id="sh" x="-6%" y="-6%" width="112%" height="118%"><feDropShadow dx="0" dy="1.5" stdDeviation="1.5" flood-color="#000" flood-opacity="0.12"/></filter></defs>
<text x="40" y="40" font-size="22" font-weight="bold" fill="#333">(a) shared hidden layers</text>
<circle cx="52" cy="130" r="24" fill="#dceefb" stroke="#6aa3d5" stroke-width="2"/>
<text x="52" y="138" text-anchor="middle" font-size="24" font-style="italic" fill="#234">x</text>
<rect x="110" y="66" width="140" height="128" rx="8" fill="#fdebc8" stroke="#e0b057" stroke-width="2" filter="url(#sh)"/>
<text x="180" y="126" text-anchor="middle" font-size="20" font-weight="bold" fill="#5a4a22">shared</text>
<text x="180" y="148" text-anchor="middle" font-size="17" fill="#5a4a22">hidden layers</text>
<circle cx="495" cy="90" r="21" fill="#fff" stroke="#9aa4ad" stroke-width="2"/>
<text x="491" y="98" text-anchor="middle" font-size="23" fill="#333">z</text>
<text x="503" y="103" text-anchor="middle" font-size="13" fill="#333">μ</text>
<circle cx="495" cy="170" r="21" fill="#fff" stroke="#9aa4ad" stroke-width="2"/>
<text x="491" y="178" text-anchor="middle" font-size="23" fill="#333">z</text>
<text x="503" y="183" text-anchor="middle" font-size="13" fill="#333">σ</text>
<rect x="556" y="69" width="64" height="42" rx="6" fill="#fbf3c5" stroke="#d4c24a" stroke-width="2"/>
<text x="580" y="98" text-anchor="middle" font-size="23" fill="#5a5223">r</text>
<text x="594" y="103" text-anchor="middle" font-size="13" fill="#5a5223">μ</text>
<rect x="556" y="149" width="64" height="42" rx="6" fill="#fbf3c5" stroke="#d4c24a" stroke-width="2"/>
<text x="580" y="178" text-anchor="middle" font-size="23" fill="#5a5223">r</text>
<text x="594" y="183" text-anchor="middle" font-size="13" fill="#5a5223">σ</text>
<circle cx="688" cy="90" r="24" fill="#d4eedd" stroke="#6cbf8c" stroke-width="2"/>
<text x="688" y="97" text-anchor="middle" font-size="19" fill="#235">μ(x)</text>
<circle cx="688" cy="170" r="24" fill="#d4eedd" stroke="#6cbf8c" stroke-width="2"/>
<text x="688" y="177" text-anchor="middle" font-size="19" fill="#235">σ(x)</text>
<rect x="770" y="88" width="320" height="84" rx="10" fill="#efdaf4" stroke="#bd8fd2" stroke-width="2" filter="url(#sh)"/>
<text x="930" y="138" text-anchor="middle" font-size="24" fill="#43285a">N(μ(x), σ(x)²)</text>
<g><line x1="76.0" y1="130.0" x2="91.0" y2="130.0" stroke="#444" stroke-width="2.4"/><polygon points="105.0,130.0 91.0,137.0 91.0,123.0" fill="#444"/><line x1="250.0" y1="90.0" x2="455.0" y2="90.0" stroke="#444" stroke-width="2.4"/><polygon points="469.0,90.0 455.0,97.0 455.0,83.0" fill="#444"/><line x1="250.0" y1="170.0" x2="455.0" y2="170.0" stroke="#444" stroke-width="2.4"/><polygon points="469.0,170.0 455.0,177.0 455.0,163.0" fill="#444"/><line x1="516.0" y1="90.0" x2="537.0" y2="90.0" stroke="#444" stroke-width="2.4"/><polygon points="551.0,90.0 537.0,97.0 537.0,83.0" fill="#444"/><line x1="516.0" y1="170.0" x2="537.0" y2="170.0" stroke="#444" stroke-width="2.4"/><polygon points="551.0,170.0 537.0,177.0 537.0,163.0" fill="#444"/><line x1="620.0" y1="90.0" x2="645.0" y2="90.0" stroke="#444" stroke-width="2.4"/><polygon points="659.0,90.0 645.0,97.0 645.0,83.0" fill="#444"/><line x1="620.0" y1="170.0" x2="645.0" y2="170.0" stroke="#444" stroke-width="2.4"/><polygon points="659.0,170.0 645.0,177.0 645.0,163.0" fill="#444"/><line x1="710.7" y1="97.8" x2="751.9" y2="113.1" stroke="#444" stroke-width="2.4"/><polygon points="765.0,118.0 749.4,119.7 754.3,106.5" fill="#444"/><line x1="710.7" y1="162.2" x2="751.9" y2="146.9" stroke="#444" stroke-width="2.4"/><polygon points="765.0,142.0 754.3,153.5 749.4,140.3" fill="#444"/></g>
<line x1="40" y1="250" x2="1100" y2="250" stroke="#ccc" stroke-width="1" stroke-dasharray="6,5"/>
<text x="40" y="310" font-size="22" font-weight="bold" fill="#333">(b) shared hidden layers + per-parameter sub-networks</text>
<circle cx="52" cy="400" r="24" fill="#dceefb" stroke="#6aa3d5" stroke-width="2"/>
<text x="52" y="408" text-anchor="middle" font-size="24" font-style="italic" fill="#234">x</text>
<rect x="100" y="336" width="120" height="128" rx="8" fill="#fdebc8" stroke="#e0b057" stroke-width="2" filter="url(#sh)"/>
<text x="160" y="396" text-anchor="middle" font-size="20" font-weight="bold" fill="#5a4a22">shared</text>
<text x="160" y="418" text-anchor="middle" font-size="17" fill="#5a4a22">hidden</text>
<rect x="262" y="342" width="150" height="36" rx="6" fill="#f8d4d7" stroke="#d28a90" stroke-width="2"/>
<text x="337" y="365" text-anchor="middle" font-size="16" fill="#6a2a30">sub-net for μ</text>
<rect x="262" y="422" width="150" height="36" rx="6" fill="#d6e4f2" stroke="#88abd0" stroke-width="2"/>
<text x="337" y="445" text-anchor="middle" font-size="16" fill="#274a6a">sub-net for σ</text>
<circle cx="495" cy="360" r="21" fill="#fff" stroke="#9aa4ad" stroke-width="2"/>
<text x="491" y="368" text-anchor="middle" font-size="23" fill="#333">z</text>
<text x="503" y="373" text-anchor="middle" font-size="13" fill="#333">μ</text>
<circle cx="495" cy="440" r="21" fill="#fff" stroke="#9aa4ad" stroke-width="2"/>
<text x="491" y="448" text-anchor="middle" font-size="23" fill="#333">z</text>
<text x="503" y="453" text-anchor="middle" font-size="13" fill="#333">σ</text>
<rect x="556" y="339" width="64" height="42" rx="6" fill="#fbf3c5" stroke="#d4c24a" stroke-width="2"/>
<text x="580" y="368" text-anchor="middle" font-size="23" fill="#5a5223">r</text>
<text x="594" y="373" text-anchor="middle" font-size="13" fill="#5a5223">μ</text>
<rect x="556" y="419" width="64" height="42" rx="6" fill="#fbf3c5" stroke="#d4c24a" stroke-width="2"/>
<text x="580" y="448" text-anchor="middle" font-size="23" fill="#5a5223">r</text>
<text x="594" y="453" text-anchor="middle" font-size="13" fill="#5a5223">σ</text>
<circle cx="688" cy="360" r="24" fill="#d4eedd" stroke="#6cbf8c" stroke-width="2"/>
<text x="688" y="367" text-anchor="middle" font-size="19" fill="#235">μ(x)</text>
<circle cx="688" cy="440" r="24" fill="#d4eedd" stroke="#6cbf8c" stroke-width="2"/>
<text x="688" y="447" text-anchor="middle" font-size="19" fill="#235">σ(x)</text>
<rect x="770" y="358" width="320" height="84" rx="10" fill="#efdaf4" stroke="#bd8fd2" stroke-width="2" filter="url(#sh)"/>
<text x="930" y="408" text-anchor="middle" font-size="24" fill="#43285a">N(μ(x), σ(x)²)</text>
<g><line x1="76.0" y1="400.0" x2="81.0" y2="400.0" stroke="#444" stroke-width="2.4"/><polygon points="95.0,400.0 81.0,407.0 81.0,393.0" fill="#444"/><line x1="220.0" y1="360.0" x2="243.0" y2="360.0" stroke="#444" stroke-width="2.4"/><polygon points="257.0,360.0 243.0,367.0 243.0,353.0" fill="#444"/><line x1="220.0" y1="440.0" x2="243.0" y2="440.0" stroke="#444" stroke-width="2.4"/><polygon points="257.0,440.0 243.0,447.0 243.0,433.0" fill="#444"/><line x1="412.0" y1="360.0" x2="455.0" y2="360.0" stroke="#444" stroke-width="2.4"/><polygon points="469.0,360.0 455.0,367.0 455.0,353.0" fill="#444"/><line x1="412.0" y1="440.0" x2="455.0" y2="440.0" stroke="#444" stroke-width="2.4"/><polygon points="469.0,440.0 455.0,447.0 455.0,433.0" fill="#444"/><line x1="516.0" y1="360.0" x2="537.0" y2="360.0" stroke="#444" stroke-width="2.4"/><polygon points="551.0,360.0 537.0,367.0 537.0,353.0" fill="#444"/><line x1="516.0" y1="440.0" x2="537.0" y2="440.0" stroke="#444" stroke-width="2.4"/><polygon points="551.0,440.0 537.0,447.0 537.0,433.0" fill="#444"/><line x1="620.0" y1="360.0" x2="645.0" y2="360.0" stroke="#444" stroke-width="2.4"/><polygon points="659.0,360.0 645.0,367.0 645.0,353.0" fill="#444"/><line x1="620.0" y1="440.0" x2="645.0" y2="440.0" stroke="#444" stroke-width="2.4"/><polygon points="659.0,440.0 645.0,447.0 645.0,433.0" fill="#444"/><line x1="710.7" y1="367.8" x2="751.9" y2="383.1" stroke="#444" stroke-width="2.4"/><polygon points="765.0,388.0 749.4,389.7 754.3,376.5" fill="#444"/><line x1="710.7" y1="432.2" x2="751.9" y2="416.9" stroke="#444" stroke-width="2.4"/><polygon points="765.0,412.0 754.3,423.5 749.4,410.3" fill="#444"/></g>
<line x1="40" y1="520" x2="1100" y2="520" stroke="#ccc" stroke-width="1" stroke-dasharray="6,5"/>
<text x="40" y="580" font-size="22" font-weight="bold" fill="#333">(c) separate networks</text>
<circle cx="52" cy="670" r="24" fill="#dceefb" stroke="#6aa3d5" stroke-width="2"/>
<text x="52" y="678" text-anchor="middle" font-size="24" font-style="italic" fill="#234">x</text>
<rect x="210" y="610" width="200" height="40" rx="8" fill="#f8d4d7" stroke="#d28a90" stroke-width="2" filter="url(#sh)"/>
<text x="310" y="636" text-anchor="middle" font-size="18" fill="#6a2a30">network for μ</text>
<rect x="210" y="690" width="200" height="40" rx="8" fill="#d6e4f2" stroke="#88abd0" stroke-width="2" filter="url(#sh)"/>
<text x="310" y="716" text-anchor="middle" font-size="18" fill="#274a6a">network for σ</text>
<circle cx="495" cy="630" r="21" fill="#fff" stroke="#9aa4ad" stroke-width="2"/>
<text x="491" y="638" text-anchor="middle" font-size="23" fill="#333">z</text>
<text x="503" y="643" text-anchor="middle" font-size="13" fill="#333">μ</text>
<circle cx="495" cy="710" r="21" fill="#fff" stroke="#9aa4ad" stroke-width="2"/>
<text x="491" y="718" text-anchor="middle" font-size="23" fill="#333">z</text>
<text x="503" y="723" text-anchor="middle" font-size="13" fill="#333">σ</text>
<rect x="556" y="609" width="64" height="42" rx="6" fill="#fbf3c5" stroke="#d4c24a" stroke-width="2"/>
<text x="580" y="638" text-anchor="middle" font-size="23" fill="#5a5223">r</text>
<text x="594" y="643" text-anchor="middle" font-size="13" fill="#5a5223">μ</text>
<rect x="556" y="689" width="64" height="42" rx="6" fill="#fbf3c5" stroke="#d4c24a" stroke-width="2"/>
<text x="580" y="718" text-anchor="middle" font-size="23" fill="#5a5223">r</text>
<text x="594" y="723" text-anchor="middle" font-size="13" fill="#5a5223">σ</text>
<circle cx="688" cy="630" r="24" fill="#d4eedd" stroke="#6cbf8c" stroke-width="2"/>
<text x="688" y="637" text-anchor="middle" font-size="19" fill="#235">μ(x)</text>
<circle cx="688" cy="710" r="24" fill="#d4eedd" stroke="#6cbf8c" stroke-width="2"/>
<text x="688" y="717" text-anchor="middle" font-size="19" fill="#235">σ(x)</text>
<rect x="770" y="628" width="320" height="84" rx="10" fill="#efdaf4" stroke="#bd8fd2" stroke-width="2" filter="url(#sh)"/>
<text x="930" y="678" text-anchor="middle" font-size="24" fill="#43285a">N(μ(x), σ(x)²)</text>
<g><line x1="75.3" y1="664.1" x2="191.5" y2="633.6" stroke="#444" stroke-width="2.4"/><polygon points="205.0,630.0 193.2,640.3 189.7,626.8" fill="#444"/><line x1="75.3" y1="675.9" x2="191.5" y2="706.4" stroke="#444" stroke-width="2.4"/><polygon points="205.0,710.0 189.7,713.2 193.2,699.7" fill="#444"/><line x1="410.0" y1="630.0" x2="455.0" y2="630.0" stroke="#444" stroke-width="2.4"/><polygon points="469.0,630.0 455.0,637.0 455.0,623.0" fill="#444"/><line x1="410.0" y1="710.0" x2="455.0" y2="710.0" stroke="#444" stroke-width="2.4"/><polygon points="469.0,710.0 455.0,717.0 455.0,703.0" fill="#444"/><line x1="516.0" y1="630.0" x2="537.0" y2="630.0" stroke="#444" stroke-width="2.4"/><polygon points="551.0,630.0 537.0,637.0 537.0,623.0" fill="#444"/><line x1="516.0" y1="710.0" x2="537.0" y2="710.0" stroke="#444" stroke-width="2.4"/><polygon points="551.0,710.0 537.0,717.0 537.0,703.0" fill="#444"/><line x1="620.0" y1="630.0" x2="645.0" y2="630.0" stroke="#444" stroke-width="2.4"/><polygon points="659.0,630.0 645.0,637.0 645.0,623.0" fill="#444"/><line x1="620.0" y1="710.0" x2="645.0" y2="710.0" stroke="#444" stroke-width="2.4"/><polygon points="659.0,710.0 645.0,717.0 645.0,703.0" fill="#444"/><line x1="710.7" y1="637.8" x2="751.9" y2="653.1" stroke="#444" stroke-width="2.4"/><polygon points="765.0,658.0 749.4,659.7 754.3,646.5" fill="#444"/><line x1="710.7" y1="702.2" x2="751.9" y2="686.9" stroke="#444" stroke-width="2.4"/><polygon points="765.0,682.0 754.3,693.5 749.4,680.3" fill="#444"/></g>
</svg>