<svg xmlns="http://www.w3.org/2000/svg" width="920" height="480" viewBox="0 0 920 480" font-family="DejaVu Sans"><circle cx="200" cy="345.0" r="24" fill="#E8EEF7" stroke="#5B7CA8" stroke-width="1.6"/><text x="200" y="347.6666666666667" text-anchor="middle" font-family="DejaVu Sans" font-size="14" fill="#111">x₁</text><circle cx="200" cy="280.0" r="24" fill="#E8EEF7" stroke="#5B7CA8" stroke-width="1.6"/><text x="200" y="282.6666666666667" text-anchor="middle" font-family="DejaVu Sans" font-size="14" fill="#111">x₂</text><circle cx="200" cy="215.0" r="24" fill="#E8EEF7" stroke="#5B7CA8" stroke-width="1.6"/><text x="200" y="217.66666666666666" text-anchor="middle" font-family="DejaVu Sans" font-size="14" fill="#111">x₃</text><circle cx="410" cy="410.0" r="24" fill="#FFF1D6" stroke="#C99A2C" stroke-width="1.4"/><text x="410" y="412.0" text-anchor="middle" font-family="DejaVu Sans" font-size="12" fill="#111">h₁⁽¹⁾</text><circle cx="410" cy="345.0" r="24" fill="#FFF1D6" stroke="#C99A2C" stroke-width="1.4"/><text x="410" y="347.0" text-anchor="middle" font-family="DejaVu Sans" font-size="12" fill="#111">h₂⁽¹⁾</text><circle cx="410" cy="280.0" r="24" fill="#FFF1D6" stroke="#C99A2C" stroke-width="1.4"/><text x="410" y="282.0" text-anchor="middle" font-family="DejaVu Sans" font-size="12" fill="#111">h₃⁽¹⁾</text><circle cx="410" cy="215.0" r="24" fill="#FFF1D6" stroke="#C99A2C" stroke-width="1.4"/><text x="410" y="217.0" text-anchor="middle" font-family="DejaVu Sans" font-size="12" fill="#111">h₄⁽¹⁾</text><circle cx="410" cy="150.0" r="24" fill="#FFF1D6" stroke="#C99A2C" stroke-width="1.4"/><text x="410" y="152.0" text-anchor="middle" font-family="DejaVu Sans" font-size="12" fill="#111">h₅⁽¹⁾</text><circle cx="620" cy="345.0" r="24" fill="#FFF1D6" stroke="#C99A2C" stroke-width="1.4"/><text x="620" y="347.0" text-anchor="middle" font-family="DejaVu Sans" font-size="12" fill="#111">h₁⁽²⁾</text><circle cx="620" cy="280.0" r="24" fill="#FFF1D6" stroke="#C99A2C" stroke-width="1.4"/><text x="620" y="282.0" text-anchor="middle" font-family="DejaVu Sans" font-size="12" fill="#111">h₂⁽²⁾</text><circle cx="620" cy="215.0" r="24" fill="#FFF1D6" stroke="#C99A2C" stroke-width="1.4"/><text x="620" y="217.0" text-anchor="middle" font-family="DejaVu Sans" font-size="12" fill="#111">h₃⁽²⁾</text><circle cx="800" cy="280.0" r="26" fill="#E8F5E9" stroke="#3F8A52" stroke-width="2"/><text x="800" y="283.0" text-anchor="middle" font-family="DejaVu Sans" font-size="15" fill="#111">y</text><line x1="222.93" y1="352.10" x2="381.34" y2="401.13" stroke="#6E7787" stroke-width="0.6" stroke-opacity="0.5"/><polygon points="387.07,402.90 380.45,404.00 382.23,398.26" fill="#6E7787" fill-opacity="0.5"/><line x1="224.00" y1="345.00" x2="380.00" y2="345.00" stroke="#6E7787" stroke-width="0.6" stroke-opacity="0.5"/><polygon points="386.00,345.00 380.00,348.00 380.00,342.00" fill="#6E7787" fill-opacity="0.5"/><line x1="222.93" y1="337.90" x2="381.34" y2="288.87" stroke="#6E7787" stroke-width="0.6" stroke-opacity="0.5"/><polygon points="387.07,287.10 382.23,291.74 380.45,286.00" fill="#6E7787" fill-opacity="0.5"/><line x1="220.41" y1="332.37" x2="384.49" y2="230.79" stroke="#6E7787" stroke-width="0.6" stroke-opacity="0.5"/><polygon points="389.59,227.63 386.07,233.34 382.91,228.24" fill="#6E7787" fill-opacity="0.5"/><line x1="217.59" y1="328.67" x2="388.02" y2="170.41" stroke="#6E7787" stroke-width="0.6" stroke-opacity="0.5"/><polygon points="392.41,166.33 390.06,172.61 385.97,168.22" fill="#6E7787" fill-opacity="0.5"/><line x1="220.41" y1="292.63" x2="384.49" y2="394.21" stroke="#6E7787" stroke-width="0.6" stroke-opacity="0.5"/><polygon points="389.59,397.37 382.91,396.76 386.07,391.66" fill="#6E7787" fill-opacity="0.5"/><line x1="222.93" y1="287.10" x2="381.34" y2="336.13" stroke="#6E7787" stroke-width="0.6" stroke-opacity="0.5"/><polygon points="387.07,337.90 380.45,339.00 382.23,333.26" fill="#6E7787" fill-opacity="0.5"/><line x1="224.00" y1="280.00" x2="380.00" y2="280.00" stroke="#6E7787" stroke-width="0.6" stroke-opacity="0.5"/><polygon points="386.00,280.00 380.00,283.00 380.00,277.00" fill="#6E7787" fill-opacity="0.5"/><line x1="222.93" y1="272.90" x2="381.34" y2="223.87" stroke="#6E7787" stroke-width="0.6" stroke-opacity="0.5"/><polygon points="387.07,222.10 382.23,226.74 380.45,221.00" fill="#6E7787" fill-opacity="0.5"/><line x1="220.41" y1="267.37" x2="384.49" y2="165.79" stroke="#6E7787" stroke-width="0.6" stroke-opacity="0.5"/><polygon points="389.59,162.63 386.07,168.34 382.91,163.24" fill="#6E7787" fill-opacity="0.5"/><line x1="217.59" y1="231.33" x2="388.02" y2="389.59" stroke="#6E7787" stroke-width="0.6" stroke-opacity="0.5"/><polygon points="392.41,393.67 385.97,391.78 390.06,387.39" fill="#6E7787" fill-opacity="0.5"/><line x1="220.41" y1="227.63" x2="384.49" y2="329.21" stroke="#6E7787" stroke-width="0.6" stroke-opacity="0.5"/><polygon points="389.59,332.37 382.91,331.76 386.07,326.66" fill="#6E7787" fill-opacity="0.5"/><line x1="222.93" y1="222.10" x2="381.34" y2="271.13" stroke="#6E7787" stroke-width="0.6" stroke-opacity="0.5"/><polygon points="387.07,272.90 380.45,274.00 382.23,268.26" fill="#6E7787" fill-opacity="0.5"/><line x1="224.00" y1="215.00" x2="380.00" y2="215.00" stroke="#6E7787" stroke-width="0.6" stroke-opacity="0.5"/><polygon points="386.00,215.00 380.00,218.00 380.00,212.00" fill="#6E7787" fill-opacity="0.5"/><line x1="222.93" y1="207.90" x2="381.34" y2="158.87" stroke="#6E7787" stroke-width="0.6" stroke-opacity="0.5"/><polygon points="387.07,157.10 382.23,161.74 380.45,156.00" fill="#6E7787" fill-opacity="0.5"/><line x1="432.93" y1="402.90" x2="591.34" y2="353.87" stroke="#6E7787" stroke-width="0.6" stroke-opacity="0.5"/><polygon points="597.07,352.10 592.23,356.74 590.45,351.00" fill="#6E7787" fill-opacity="0.5"/><line x1="430.41" y1="397.37" x2="594.49" y2="295.79" stroke="#6E7787" stroke-width="0.6" stroke-opacity="0.5"/><polygon points="599.59,292.63 596.07,298.34 592.91,293.24" fill="#6E7787" fill-opacity="0.5"/><line x1="427.59" y1="393.67" x2="598.02" y2="235.41" stroke="#6E7787" stroke-width="0.6" stroke-opacity="0.5"/><polygon points="602.41,231.33 600.06,237.61 595.97,233.22" fill="#6E7787" fill-opacity="0.5"/><line x1="434.00" y1="345.00" x2="590.00" y2="345.00" stroke="#6E7787" stroke-width="0.6" stroke-opacity="0.5"/><polygon points="596.00,345.00 590.00,348.00 590.00,342.00" fill="#6E7787" fill-opacity="0.5"/><line x1="432.93" y1="337.90" x2="591.34" y2="288.87" stroke="#6E7787" stroke-width="0.6" stroke-opacity="0.5"/><polygon points="597.07,287.10 592.23,291.74 590.45,286.00" fill="#6E7787" fill-opacity="0.5"/><line x1="430.41" y1="332.37" x2="594.49" y2="230.79" stroke="#6E7787" stroke-width="0.6" stroke-opacity="0.5"/><polygon points="599.59,227.63 596.07,233.34 592.91,228.24" fill="#6E7787" fill-opacity="0.5"/><line x1="432.93" y1="287.10" x2="591.34" y2="336.13" stroke="#6E7787" stroke-width="0.6" stroke-opacity="0.5"/><polygon points="597.07,337.90 590.45,339.00 592.23,333.26" fill="#6E7787" fill-opacity="0.5"/><line x1="434.00" y1="280.00" x2="590.00" y2="280.00" stroke="#6E7787" stroke-width="0.6" stroke-opacity="0.5"/><polygon points="596.00,280.00 590.00,283.00 590.00,277.00" fill="#6E7787" fill-opacity="0.5"/><line x1="432.93" y1="272.90" x2="591.34" y2="223.87" stroke="#6E7787" stroke-width="0.6" stroke-opacity="0.5"/><polygon points="597.07,222.10 592.23,226.74 590.45,221.00" fill="#6E7787" fill-opacity="0.5"/><line x1="430.41" y1="227.63" x2="594.49" y2="329.21" stroke="#6E7787" stroke-width="0.6" stroke-opacity="0.5"/><polygon points="599.59,332.37 592.91,331.76 596.07,326.66" fill="#6E7787" fill-opacity="0.5"/><line x1="432.93" y1="222.10" x2="591.34" y2="271.13" stroke="#6E7787" stroke-width="0.6" stroke-opacity="0.5"/><polygon points="597.07,272.90 590.45,274.00 592.23,268.26" fill="#6E7787" fill-opacity="0.5"/><line x1="434.00" y1="215.00" x2="590.00" y2="215.00" stroke="#6E7787" stroke-width="0.6" stroke-opacity="0.5"/><polygon points="596.00,215.00 590.00,218.00 590.00,212.00" fill="#6E7787" fill-opacity="0.5"/><line x1="427.59" y1="166.33" x2="598.02" y2="324.59" stroke="#6E7787" stroke-width="0.6" stroke-opacity="0.5"/><polygon points="602.41,328.67 595.97,326.78 600.06,322.39" fill="#6E7787" fill-opacity="0.5"/><line x1="430.41" y1="162.63" x2="594.49" y2="264.21" stroke="#6E7787" stroke-width="0.6" stroke-opacity="0.5"/><polygon points="599.59,267.37 592.91,266.76 596.07,261.66" fill="#6E7787" fill-opacity="0.5"/><line x1="432.93" y1="157.10" x2="591.34" y2="206.13" stroke="#6E7787" stroke-width="0.6" stroke-opacity="0.5"/><polygon points="597.07,207.90 590.45,209.00 592.23,203.26" fill="#6E7787" fill-opacity="0.5"/><line x1="642.57" y1="336.85" x2="768.02" y2="291.55" stroke="#6E7787" stroke-width="0.8" stroke-opacity="0.65"/><polygon points="775.55,288.83 769.38,295.31 766.66,287.79" fill="#6E7787" fill-opacity="0.65"/><line x1="644.00" y1="280.00" x2="766.00" y2="280.00" stroke="#6E7787" stroke-width="0.8" stroke-opacity="0.65"/><polygon points="774.00,280.00 766.00,284.00 766.00,276.00" fill="#6E7787" fill-opacity="0.65"/><line x1="642.57" y1="223.15" x2="768.02" y2="268.45" stroke="#6E7787" stroke-width="0.8" stroke-opacity="0.65"/><polygon points="775.55,271.17 766.66,272.21 769.38,264.69" fill="#6E7787" fill-opacity="0.65"/><text x="200" y="30" text-anchor="middle" font-family="DejaVu Sans" font-size="13" font-weight="bold" fill="#111">input layer</text><text x="200" y="48" text-anchor="middle" font-family="DejaVu Sans" font-size="12" font-weight="normal" fill="#444">x ∈ ℝ³</text><text x="410" y="30" text-anchor="middle" font-family="DejaVu Sans" font-size="13" font-weight="bold" fill="#111">hidden layer 1</text><text x="410" y="48" text-anchor="middle" font-family="DejaVu Sans" font-size="12" font-weight="normal" fill="#444">h⁽¹⁾ = σ(W⁽¹⁾x + b⁽¹⁾)</text><text x="620" y="30" text-anchor="middle" font-family="DejaVu Sans" font-size="13" font-weight="bold" fill="#111">hidden layer 2</text><text x="620" y="48" text-anchor="middle" font-family="DejaVu Sans" font-size="12" font-weight="normal" fill="#444">h⁽²⁾ = σ(W⁽²⁾h⁽¹⁾ + b⁽²⁾)</text><text x="800" y="30" text-anchor="middle" font-family="DejaVu Sans" font-size="13" font-weight="bold" fill="#111">output layer</text><text x="800" y="48" text-anchor="middle" font-family="DejaVu Sans" font-size="12" font-weight="normal" fill="#444">y = W⁽³⁾h⁽²⁾ + b⁽³⁾</text></svg>