<svg xmlns="http://www.w3.org/2000/svg" width="1140" height="780" viewBox="0 0 1140 780" font-family="DejaVu Sans"><defs><filter id="nnshadow" x="-20%" y="-20%" width="140%" height="140%"><feDropShadow dx="2.5" dy="2.5" stdDeviation="2.5" flood-color="#000000" flood-opacity="0.22"/></filter></defs><text x="40" y="44" text-anchor="start" font-size="18" font-weight="bold" fill="#111">(a) shared hidden layers</text><circle cx="70" cy="140" r="22" fill="#E8EEF7" stroke="#5B7CA8" stroke-width="1.6"/><text x="70" y="146" text-anchor="middle" font-size="22" font-weight="normal" fill="#111">x</text><rect x="130" y="90" width="150" height="100" rx="10" ry="10" fill="#FFF1D6" stroke="none" filter="url(#nnshadow)"/><text x="205.0" y="134" text-anchor="middle" font-size="17" font-weight="bold" fill="#111">shared</text><text x="205.0" y="154" text-anchor="middle" font-size="16" font-weight="normal" fill="#111">hidden layers</text><line x1="92.0" y1="140.0" x2="120.0" y2="140.0" stroke="#444" stroke-width="1.4"/><polygon points="130.0,140.0 120.0,145.0 120.0,135.0" fill="#444"/><circle cx="470" cy="108" r="18" fill="#FFFFFF" stroke="#555555" stroke-width="1.6"/><text x="470" y="113" text-anchor="middle" font-size="17" font-weight="normal" fill="#111">z<tspan dy="4" font-size="0.72em">μ</tspan></text><circle cx="470" cy="172" r="18" fill="#FFFFFF" stroke="#555555" stroke-width="1.6"/><text x="470" y="177" text-anchor="middle" font-size="17" font-weight="normal" fill="#111">z<tspan dy="4" font-size="0.72em">σ</tspan></text><line x1="280.0" y1="120.0" x2="442.0" y2="108.7" stroke="#444" stroke-width="1.4"/><polygon points="452.0,108.0 442.4,113.7 441.7,103.7" fill="#444"/><line x1="280.0" y1="160.0" x2="442.0" y2="171.3" stroke="#444" stroke-width="1.4"/><polygon points="452.0,172.0 441.7,176.3 442.4,166.3" fill="#444"/><rect x="510" y="92" width="45" height="32" rx="8" ry="8" fill="#FFF7C2" stroke="none" filter="url(#nnshadow)"/><text x="532.5" y="113" text-anchor="middle" font-size="17" font-weight="normal" fill="#111">r<tspan dy="4" font-size="0.72em">μ</tspan></text><rect x="510" y="156" width="45" height="32" rx="8" ry="8" fill="#FFF7C2" stroke="none" filter="url(#nnshadow)"/><text x="532.5" y="177" text-anchor="middle" font-size="17" font-weight="normal" fill="#111">r<tspan dy="4" font-size="0.72em">σ</tspan></text><line x1="488.0" y1="108.0" x2="500.0" y2="108.0" stroke="#444" stroke-width="1.4"/><polygon points="510.0,108.0 500.0,113.0 500.0,103.0" fill="#444"/><line x1="488.0" y1="172.0" x2="500.0" y2="172.0" stroke="#444" stroke-width="1.4"/><polygon points="510.0,172.0 500.0,177.0 500.0,167.0" fill="#444"/><circle cx="600" cy="108" r="22" fill="#E8F5E9" stroke="#3F8A52" stroke-width="1.6"/><text x="600" y="113" text-anchor="middle" font-size="16" font-weight="normal" fill="#111">μ(x)</text><circle cx="600" cy="172" r="22" fill="#E8F5E9" stroke="#3F8A52" stroke-width="1.6"/><text x="600" y="177" text-anchor="middle" font-size="16" font-weight="normal" fill="#111">σ(x)</text><line x1="555.0" y1="108.0" x2="568.0" y2="108.0" stroke="#444" stroke-width="1.4"/><polygon points="578.0,108.0 568.0,113.0 568.0,103.0" fill="#444"/><line x1="555.0" y1="172.0" x2="568.0" y2="172.0" stroke="#444" stroke-width="1.4"/><polygon points="578.0,172.0 568.0,177.0 568.0,167.0" fill="#444"/><rect x="700" y="108" width="220" height="64" rx="10" ry="10" fill="#F3E5F5" stroke="none" filter="url(#nnshadow)"/><text x="810.0" y="146" text-anchor="middle" font-size="19" font-weight="normal" fill="#111">N(μ(x), σ(x)²)</text><line x1="622.0" y1="108.0" x2="690.3" y2="123.8" stroke="#444" stroke-width="1.4"/><polygon points="700.0,126.0 689.1,128.6 691.4,118.9" fill="#444"/><line x1="622.0" y1="172.0" x2="690.3" y2="156.2" stroke="#444" stroke-width="1.4"/><polygon points="700.0,154.0 691.4,161.1 689.1,151.4" fill="#444"/><text x="40" y="314" text-anchor="start" font-size="18" font-weight="bold" fill="#111">(b) shared hidden layers + per-parameter sub-networks</text><circle cx="70" cy="410" r="22" fill="#E8EEF7" stroke="#5B7CA8" stroke-width="1.6"/><text x="70" y="416" text-anchor="middle" font-size="22" font-weight="normal" fill="#111">x</text><rect x="130" y="360" width="120" height="100" rx="10" ry="10" fill="#FFF1D6" stroke="none" filter="url(#nnshadow)"/><text x="190.0" y="404" text-anchor="middle" font-size="17" font-weight="bold" fill="#111">shared</text><text x="190.0" y="424" text-anchor="middle" font-size="16" font-weight="normal" fill="#111">hidden</text><line x1="92.0" y1="410.0" x2="120.0" y2="410.0" stroke="#444" stroke-width="1.4"/><polygon points="130.0,410.0 120.0,415.0 120.0,405.0" fill="#444"/><rect x="295" y="353" width="120" height="50" rx="10" ry="10" fill="#FADBD8" stroke="none" filter="url(#nnshadow)"/><text x="355.0" y="383" text-anchor="middle" font-size="15" font-weight="normal" fill="#111">sub-net for μ</text><rect x="295" y="417" width="120" height="50" rx="10" ry="10" fill="#D6E4F0" stroke="none" filter="url(#nnshadow)"/><text x="355.0" y="447" text-anchor="middle" font-size="15" font-weight="normal" fill="#111">sub-net for σ</text><line x1="250.0" y1="400.0" x2="286.0" y2="382.4" stroke="#444" stroke-width="1.4"/><polygon points="295.0,378.0 288.2,386.9 283.8,377.9" fill="#444"/><line x1="250.0" y1="420.0" x2="286.0" y2="437.6" stroke="#444" stroke-width="1.4"/><polygon points="295.0,442.0 283.8,442.1 288.2,433.1" fill="#444"/><circle cx="470" cy="378" r="18" fill="#FFFFFF" stroke="#555555" stroke-width="1.6"/><text x="470" y="383" text-anchor="middle" font-size="17" font-weight="normal" fill="#111">z<tspan dy="4" font-size="0.72em">μ</tspan></text><circle cx="470" cy="442" r="18" fill="#FFFFFF" stroke="#555555" stroke-width="1.6"/><text x="470" y="447" text-anchor="middle" font-size="17" font-weight="normal" fill="#111">z<tspan dy="4" font-size="0.72em">σ</tspan></text><line x1="415.0" y1="378.0" x2="442.0" y2="378.0" stroke="#444" stroke-width="1.4"/><polygon points="452.0,378.0 442.0,383.0 442.0,373.0" fill="#444"/><line x1="415.0" y1="442.0" x2="442.0" y2="442.0" stroke="#444" stroke-width="1.4"/><polygon points="452.0,442.0 442.0,447.0 442.0,437.0" fill="#444"/><rect x="510" y="362" width="45" height="32" rx="8" ry="8" fill="#FFF7C2" stroke="none" filter="url(#nnshadow)"/><text x="532.5" y="383" text-anchor="middle" font-size="17" font-weight="normal" fill="#111">r<tspan dy="4" font-size="0.72em">μ</tspan></text><rect x="510" y="426" width="45" height="32" rx="8" ry="8" fill="#FFF7C2" stroke="none" filter="url(#nnshadow)"/><text x="532.5" y="447" text-anchor="middle" font-size="17" font-weight="normal" fill="#111">r<tspan dy="4" font-size="0.72em">σ</tspan></text><line x1="488.0" y1="378.0" x2="500.0" y2="378.0" stroke="#444" stroke-width="1.4"/><polygon points="510.0,378.0 500.0,383.0 500.0,373.0" fill="#444"/><line x1="488.0" y1="442.0" x2="500.0" y2="442.0" stroke="#444" stroke-width="1.4"/><polygon points="510.0,442.0 500.0,447.0 500.0,437.0" fill="#444"/><circle cx="600" cy="378" r="22" fill="#E8F5E9" stroke="#3F8A52" stroke-width="1.6"/><text x="600" y="383" text-anchor="middle" font-size="16" font-weight="normal" fill="#111">μ(x)</text><circle cx="600" cy="442" r="22" fill="#E8F5E9" stroke="#3F8A52" stroke-width="1.6"/><text x="600" y="447" text-anchor="middle" font-size="16" font-weight="normal" fill="#111">σ(x)</text><line x1="555.0" y1="378.0" x2="568.0" y2="378.0" stroke="#444" stroke-width="1.4"/><polygon points="578.0,378.0 568.0,383.0 568.0,373.0" fill="#444"/><line x1="555.0" y1="442.0" x2="568.0" y2="442.0" stroke="#444" stroke-width="1.4"/><polygon points="578.0,442.0 568.0,447.0 568.0,437.0" fill="#444"/><rect x="700" y="378" width="220" height="64" rx="10" ry="10" fill="#F3E5F5" stroke="none" filter="url(#nnshadow)"/><text x="810.0" y="416" text-anchor="middle" font-size="19" font-weight="normal" fill="#111">N(μ(x), σ(x)²)</text><line x1="622.0" y1="378.0" x2="690.3" y2="393.8" stroke="#444" stroke-width="1.4"/><polygon points="700.0,396.0 689.1,398.6 691.4,388.9" fill="#444"/><line x1="622.0" y1="442.0" x2="690.3" y2="426.2" stroke="#444" stroke-width="1.4"/><polygon points="700.0,424.0 691.4,431.1 689.1,421.4" fill="#444"/><text x="40" y="584" text-anchor="start" font-size="18" font-weight="bold" fill="#111">(c) separate networks</text><circle cx="70" cy="680" r="22" fill="#E8EEF7" stroke="#5B7CA8" stroke-width="1.6"/><text x="70" y="686" text-anchor="middle" font-size="22" font-weight="normal" fill="#111">x</text><rect x="130" y="610" width="190" height="56" rx="10" ry="10" fill="#FADBD8" stroke="none" filter="url(#nnshadow)"/><text x="225.0" y="643" text-anchor="middle" font-size="16" font-weight="bold" fill="#111">network for μ</text><rect x="130" y="694" width="190" height="56" rx="10" ry="10" fill="#D6E4F0" stroke="none" filter="url(#nnshadow)"/><text x="225.0" y="727" text-anchor="middle" font-size="16" font-weight="bold" fill="#111">network for σ</text><line x1="92.0" y1="672.0" x2="122.5" y2="644.7" stroke="#444" stroke-width="1.4"/><polygon points="130.0,638.0 125.9,648.4 119.2,640.9" fill="#444"/><line x1="92.0" y1="688.0" x2="122.5" y2="715.3" stroke="#444" stroke-width="1.4"/><polygon points="130.0,722.0 119.2,719.1 125.9,711.6" fill="#444"/><circle cx="470" cy="638" r="18" fill="#FFFFFF" stroke="#555555" stroke-width="1.6"/><text x="470" y="643" text-anchor="middle" font-size="17" font-weight="normal" fill="#111">z<tspan dy="4" font-size="0.72em">μ</tspan></text><circle cx="470" cy="722" r="18" fill="#FFFFFF" stroke="#555555" stroke-width="1.6"/><text x="470" y="727" text-anchor="middle" font-size="17" font-weight="normal" fill="#111">z<tspan dy="4" font-size="0.72em">σ</tspan></text><line x1="320.0" y1="638.0" x2="442.0" y2="638.0" stroke="#444" stroke-width="1.4"/><polygon points="452.0,638.0 442.0,643.0 442.0,633.0" fill="#444"/><line x1="320.0" y1="722.0" x2="442.0" y2="722.0" stroke="#444" stroke-width="1.4"/><polygon points="452.0,722.0 442.0,727.0 442.0,717.0" fill="#444"/><rect x="510" y="622" width="45" height="32" rx="8" ry="8" fill="#FFF7C2" stroke="none" filter="url(#nnshadow)"/><text x="532.5" y="643" text-anchor="middle" font-size="17" font-weight="normal" fill="#111">r<tspan dy="4" font-size="0.72em">μ</tspan></text><rect x="510" y="706" width="45" height="32" rx="8" ry="8" fill="#FFF7C2" stroke="none" filter="url(#nnshadow)"/><text x="532.5" y="727" text-anchor="middle" font-size="17" font-weight="normal" fill="#111">r<tspan dy="4" font-size="0.72em">σ</tspan></text><line x1="488.0" y1="638.0" x2="500.0" y2="638.0" stroke="#444" stroke-width="1.4"/><polygon points="510.0,638.0 500.0,643.0 500.0,633.0" fill="#444"/><line x1="488.0" y1="722.0" x2="500.0" y2="722.0" stroke="#444" stroke-width="1.4"/><polygon points="510.0,722.0 500.0,727.0 500.0,717.0" fill="#444"/><circle cx="600" cy="638" r="22" fill="#E8F5E9" stroke="#3F8A52" stroke-width="1.6"/><text x="600" y="643" text-anchor="middle" font-size="16" font-weight="normal" fill="#111">μ(x)</text><circle cx="600" cy="722" r="22" fill="#E8F5E9" stroke="#3F8A52" stroke-width="1.6"/><text x="600" y="727" text-anchor="middle" font-size="16" font-weight="normal" fill="#111">σ(x)</text><line x1="555.0" y1="638.0" x2="568.0" y2="638.0" stroke="#444" stroke-width="1.4"/><polygon points="578.0,638.0 568.0,643.0 568.0,633.0" fill="#444"/><line x1="555.0" y1="722.0" x2="568.0" y2="722.0" stroke="#444" stroke-width="1.4"/><polygon points="578.0,722.0 568.0,727.0 568.0,717.0" fill="#444"/><rect x="700" y="648" width="220" height="64" rx="10" ry="10" fill="#F3E5F5" stroke="none" filter="url(#nnshadow)"/><text x="810.0" y="686" text-anchor="middle" font-size="19" font-weight="normal" fill="#111">N(μ(x), σ(x)²)</text><line x1="622.0" y1="638.0" x2="690.6" y2="662.6" stroke="#444" stroke-width="1.4"/><polygon points="700.0,666.0 688.9,667.3 692.3,657.9" fill="#444"/><line x1="622.0" y1="722.0" x2="690.6" y2="697.4" stroke="#444" stroke-width="1.4"/><polygon points="700.0,694.0 692.3,702.1 688.9,692.7" fill="#444"/><line x1="40" y1="275" x2="1100" y2="275" stroke="#bbb" stroke-width="1.2" stroke-dasharray="6,6"/><line x1="40" y1="545" x2="1100" y2="545" stroke="#bbb" stroke-width="1.2" stroke-dasharray="6,6"/></svg>