<svg xmlns="http://www.w3.org/2000/svg" width="920" height="980" viewBox="0 0 920 980" font-family="DejaVu Sans"><text x="460.0" y="28" text-anchor="middle" font-family="DejaVu Sans" font-size="14" font-weight="bold" fill="#222">Tabular data</text><rect x="428.0" y="46.0" width="16" height="16" fill="white" stroke="#444" stroke-width="1"/><rect x="444.0" y="46.0" width="16" height="16" fill="white" stroke="#444" stroke-width="1"/><rect x="460.0" y="46.0" width="16" height="16" fill="white" stroke="#444" stroke-width="1"/><rect x="476.0" y="46.0" width="16" height="16" fill="white" stroke="#444" stroke-width="1"/><rect x="428.0" y="62.0" width="16" height="16" fill="white" stroke="#444" stroke-width="1"/><rect x="444.0" y="62.0" width="16" height="16" fill="white" stroke="#444" stroke-width="1"/><rect x="460.0" y="62.0" width="16" height="16" fill="white" stroke="#444" stroke-width="1"/><rect x="476.0" y="62.0" width="16" height="16" fill="white" stroke="#444" stroke-width="1"/><rect x="428.0" y="78.0" width="16" height="16" fill="white" stroke="#444" stroke-width="1"/><rect x="444.0" y="78.0" width="16" height="16" fill="white" stroke="#444" stroke-width="1"/><rect x="460.0" y="78.0" width="16" height="16" fill="white" stroke="#444" stroke-width="1"/><rect x="476.0" y="78.0" width="16" height="16" fill="white" stroke="#444" stroke-width="1"/><line x1="460.00" y1="104.00" x2="460.00" y2="124.00" stroke="#6E7787" stroke-width="1.2" stroke-opacity="1.0"/><polygon points="460.00,132.00 456.00,124.00 464.00,124.00" fill="#6E7787" fill-opacity="1.0"/><rect x="340.0" y="138" width="240" height="152" rx="4" ry="4" fill="white" stroke="#5B7CA8" stroke-width="1.2" stroke-dasharray="5,3"/><rect x="340.0" y="138" width="240" height="22" rx="4" ry="4" fill="#D9E5F4" stroke="#5B7CA8" stroke-width="1.2"/><text x="460.0" y="153" text-anchor="middle" font-family="DejaVu Sans" font-size="12" font-weight="bold" fill="#222">Joint subnetwork</text><rect x="390.0" y="176" width="140" height="30" rx="3" ry="3" fill="#FFFFFF" stroke="#666666" stroke-width="1.0"/><text x="460.0" y="195.0" text-anchor="middle" font-family="DejaVu Sans" font-size="11" font-weight="normal" fill="#222">Dense Layer</text><text x="460.0" y="230" text-anchor="middle" font-family="DejaVu Sans" font-size="18" font-weight="normal" fill="#111">⋮</text><rect x="390.0" y="243" width="140" height="30" rx="3" ry="3" fill="#FFFFFF" stroke="#666666" stroke-width="1.0"/><text x="460.0" y="262.0" text-anchor="middle" font-family="DejaVu Sans" font-size="11" font-weight="normal" fill="#222">Dense Layer</text><line x1="460.00" y1="290.00" x2="460.00" y2="326.00" stroke="#6E7787" stroke-width="1.2" stroke-opacity="1.0"/><polygon points="460.00,334.00 456.00,326.00 464.00,326.00" fill="#6E7787" fill-opacity="1.0"/><line x1="180.0" y1="322" x2="740.0" y2="322" stroke="#6E7787" stroke-width="1.2"/><line x1="180.00" y1="322.00" x2="180.00" y2="332.00" stroke="#6E7787" stroke-width="1.2" stroke-opacity="1.0"/><polygon points="180.00,339.00 177.00,332.00 183.00,332.00" fill="#6E7787" fill-opacity="1.0"/><line x1="460.00" y1="322.00" x2="460.00" y2="332.00" stroke="#6E7787" stroke-width="1.2" stroke-opacity="1.0"/><polygon points="460.00,339.00 457.00,332.00 463.00,332.00" fill="#6E7787" fill-opacity="1.0"/><line x1="740.00" y1="322.00" x2="740.00" y2="332.00" stroke="#6E7787" stroke-width="1.2" stroke-opacity="1.0"/><polygon points="740.00,339.00 737.00,332.00 743.00,332.00" fill="#6E7787" fill-opacity="1.0"/><rect x="80" y="340" width="200" height="130" rx="4" ry="4" fill="white" stroke="#C99A2C" stroke-width="1.2" stroke-dasharray="5,3"/><rect x="80" y="340" width="200" height="22" rx="4" ry="4" fill="#FCE9D6" stroke="#C99A2C" stroke-width="1.2"/><text x="180.0" y="355" text-anchor="middle" font-family="DejaVu Sans" font-size="12" font-weight="bold" fill="#222">Subnetwork (cause 1)</text><rect x="115" y="376" width="130" height="28" rx="3" ry="3" fill="#FFFFFF" stroke="#666666" stroke-width="1.0"/><text x="180.0" y="394.0" text-anchor="middle" font-family="DejaVu Sans" font-size="11" font-weight="normal" fill="#222">Dense Layer</text><text x="180.0" y="422" text-anchor="middle" font-family="DejaVu Sans" font-size="16" font-weight="normal" fill="#111">⋮</text><rect x="115" y="434" width="130" height="28" rx="3" ry="3" fill="#FFFFFF" stroke="#666666" stroke-width="1.0"/><text x="180.0" y="452.0" text-anchor="middle" font-family="DejaVu Sans" font-size="11" font-weight="normal" fill="#222">Dense Layer</text><rect x="360" y="340" width="200" height="130" rx="4" ry="4" fill="white" stroke="#C99A2C" stroke-width="1.2" stroke-dasharray="5,3"/><rect x="360" y="340" width="200" height="22" rx="4" ry="4" fill="#FCE9D6" stroke="#C99A2C" stroke-width="1.2"/><text x="460.0" y="355" text-anchor="middle" font-family="DejaVu Sans" font-size="12" font-weight="bold" fill="#222">Subnetwork (cause 2)</text><rect x="395" y="376" width="130" height="28" rx="3" ry="3" fill="#FFFFFF" stroke="#666666" stroke-width="1.0"/><text x="460.0" y="394.0" text-anchor="middle" font-family="DejaVu Sans" font-size="11" font-weight="normal" fill="#222">Dense Layer</text><text x="460.0" y="422" text-anchor="middle" font-family="DejaVu Sans" font-size="16" font-weight="normal" fill="#111">⋮</text><rect x="395" y="434" width="130" height="28" rx="3" ry="3" fill="#FFFFFF" stroke="#666666" stroke-width="1.0"/><text x="460.0" y="452.0" text-anchor="middle" font-family="DejaVu Sans" font-size="11" font-weight="normal" fill="#222">Dense Layer</text><rect x="640" y="340" width="200" height="130" rx="4" ry="4" fill="white" stroke="#C99A2C" stroke-width="1.2" stroke-dasharray="5,3"/><rect x="640" y="340" width="200" height="22" rx="4" ry="4" fill="#FCE9D6" stroke="#C99A2C" stroke-width="1.2"/><text x="740.0" y="355" text-anchor="middle" font-family="DejaVu Sans" font-size="12" font-weight="bold" fill="#222">Subnetwork (cause Q)</text><rect x="675" y="376" width="130" height="28" rx="3" ry="3" fill="#FFFFFF" stroke="#666666" stroke-width="1.0"/><text x="740.0" y="394.0" text-anchor="middle" font-family="DejaVu Sans" font-size="11" font-weight="normal" fill="#222">Dense Layer</text><text x="740.0" y="422" text-anchor="middle" font-family="DejaVu Sans" font-size="16" font-weight="normal" fill="#111">⋮</text><rect x="675" y="434" width="130" height="28" rx="3" ry="3" fill="#FFFFFF" stroke="#666666" stroke-width="1.0"/><text x="740.0" y="452.0" text-anchor="middle" font-family="DejaVu Sans" font-size="11" font-weight="normal" fill="#222">Dense Layer</text><text x="600.0" y="405.0" text-anchor="middle" font-family="DejaVu Sans" font-size="22" font-weight="normal" fill="#555">⋯</text><line x1="180.00" y1="470.00" x2="180.00" y2="511.00" stroke="#6E7787" stroke-width="1.2" stroke-opacity="1.0"/><polygon points="180.00,519.00 176.00,511.00 184.00,511.00" fill="#6E7787" fill-opacity="1.0"/><rect x="80" y="520" width="200" height="130" rx="4" ry="4" fill="white" stroke="#C99A2C" stroke-width="1.2" stroke-dasharray="5,3"/><rect x="80" y="520" width="200" height="22" rx="4" ry="4" fill="#FCE9D6" stroke="#C99A2C" stroke-width="1.2"/><text x="180.0" y="535" text-anchor="middle" font-family="DejaVu Sans" font-size="12" font-weight="bold" fill="#222">Output Layer 1</text><rect x="115" y="556" width="130" height="28" rx="3" ry="3" fill="#FFFFFF" stroke="#666666" stroke-width="1.0"/><text x="180.0" y="574.0" text-anchor="middle" font-family="DejaVu Sans" font-size="11" font-weight="normal" fill="#222">Dense Layer</text><rect x="115" y="596" width="130" height="28" rx="3" ry="3" fill="#FFFFFF" stroke="#666666" stroke-width="1.0"/><text x="180.0" y="614.0" text-anchor="middle" font-family="DejaVu Sans" font-size="11" font-weight="normal" fill="#222">Activation</text><line x1="460.00" y1="470.00" x2="460.00" y2="511.00" stroke="#6E7787" stroke-width="1.2" stroke-opacity="1.0"/><polygon points="460.00,519.00 456.00,511.00 464.00,511.00" fill="#6E7787" fill-opacity="1.0"/><rect x="360" y="520" width="200" height="130" rx="4" ry="4" fill="white" stroke="#C99A2C" stroke-width="1.2" stroke-dasharray="5,3"/><rect x="360" y="520" width="200" height="22" rx="4" ry="4" fill="#FCE9D6" stroke="#C99A2C" stroke-width="1.2"/><text x="460.0" y="535" text-anchor="middle" font-family="DejaVu Sans" font-size="12" font-weight="bold" fill="#222">Output Layer 2</text><rect x="395" y="556" width="130" height="28" rx="3" ry="3" fill="#FFFFFF" stroke="#666666" stroke-width="1.0"/><text x="460.0" y="574.0" text-anchor="middle" font-family="DejaVu Sans" font-size="11" font-weight="normal" fill="#222">Dense Layer</text><rect x="395" y="596" width="130" height="28" rx="3" ry="3" fill="#FFFFFF" stroke="#666666" stroke-width="1.0"/><text x="460.0" y="614.0" text-anchor="middle" font-family="DejaVu Sans" font-size="11" font-weight="normal" fill="#222">Activation</text><line x1="740.00" y1="470.00" x2="740.00" y2="511.00" stroke="#6E7787" stroke-width="1.2" stroke-opacity="1.0"/><polygon points="740.00,519.00 736.00,511.00 744.00,511.00" fill="#6E7787" fill-opacity="1.0"/><rect x="640" y="520" width="200" height="130" rx="4" ry="4" fill="white" stroke="#C99A2C" stroke-width="1.2" stroke-dasharray="5,3"/><rect x="640" y="520" width="200" height="22" rx="4" ry="4" fill="#FCE9D6" stroke="#C99A2C" stroke-width="1.2"/><text x="740.0" y="535" text-anchor="middle" font-family="DejaVu Sans" font-size="12" font-weight="bold" fill="#222">Output Layer Q</text><rect x="675" y="556" width="130" height="28" rx="3" ry="3" fill="#FFFFFF" stroke="#666666" stroke-width="1.0"/><text x="740.0" y="574.0" text-anchor="middle" font-family="DejaVu Sans" font-size="11" font-weight="normal" fill="#222">Dense Layer</text><rect x="675" y="596" width="130" height="28" rx="3" ry="3" fill="#FFFFFF" stroke="#666666" stroke-width="1.0"/><text x="740.0" y="614.0" text-anchor="middle" font-family="DejaVu Sans" font-size="11" font-weight="normal" fill="#222">Activation</text><circle cx="460.0" cy="720" r="18" fill="white" stroke="#444" stroke-width="1.4"/><text x="460.0" y="722.6666666666666" text-anchor="middle" font-family="DejaVu Sans" font-size="14" fill="#111">C</text><line x1="180.00" y1="650.00" x2="452.13" y2="700.54" stroke="#6E7787" stroke-width="1.2" stroke-opacity="1.0"/><polygon points="460.00,702.00 451.40,704.47 452.86,696.61" fill="#6E7787" fill-opacity="1.0"/><line x1="460.00" y1="650.00" x2="460.00" y2="694.00" stroke="#6E7787" stroke-width="1.2" stroke-opacity="1.0"/><polygon points="460.00,702.00 456.00,694.00 464.00,694.00" fill="#6E7787" fill-opacity="1.0"/><line x1="740.00" y1="650.00" x2="467.87" y2="700.54" stroke="#6E7787" stroke-width="1.2" stroke-opacity="1.0"/><polygon points="460.00,702.00 467.14,696.61 468.60,704.47" fill="#6E7787" fill-opacity="1.0"/><line x1="460.00" y1="738.00" x2="460.00" y2="761.00" stroke="#6E7787" stroke-width="1.2" stroke-opacity="1.0"/><polygon points="460.00,769.00 456.00,761.00 464.00,761.00" fill="#6E7787" fill-opacity="1.0"/><rect x="385.0" y="770" width="150" height="95" rx="4" ry="4" fill="white" stroke="#666" stroke-width="1.2" stroke-dasharray="5,3"/><text x="460.0" y="788" text-anchor="middle" font-family="DejaVu Sans" font-size="12" font-weight="bold" fill="#222">Transformation*</text><circle cx="460.0" cy="828" r="20" fill="white" stroke="#444" stroke-width="1.2"/><text x="460.0" y="830.3333333333334" text-anchor="middle" font-family="DejaVu Sans" font-size="13" fill="#111">ψ(·)</text><rect x="585.0" y="790.0" width="130" height="55" rx="4" ry="4" fill="#D7EBC5" stroke="#3F8A52" stroke-width="1.4"/><text x="650.0" y="821.5" text-anchor="middle" font-family="DejaVu Sans" font-size="13" font-weight="bold" fill="#222">CIFs</text><line x1="535.00" y1="817.50" x2="576.00" y2="817.50" stroke="#6E7787" stroke-width="1.4" stroke-opacity="1.0"/><polygon points="585.00,817.50 576.00,821.50 576.00,813.50" fill="#6E7787" fill-opacity="1.0"/></svg>