<svg xmlns="http://www.w3.org/2000/svg" viewBox="0 0 720 535" width="720" height="535"
     font-family="DejaVu Sans, sans-serif">
  <defs>
    <filter id="shadow-sm">
      <feDropShadow dx="1" dy="2" stdDeviation="2.5" flood-color="#00000020"/>
    </filter>
    <filter id="shadow-node">
      <feDropShadow dx="1" dy="2" stdDeviation="3.5" flood-color="#2a9d8f28"/>
    </filter>
    <marker id="arr" markerWidth="11" markerHeight="9"
            refX="0" refY="4.5" orient="auto" markerUnits="userSpaceOnUse">
      <path d="M0,0 L0,9 L11,4.5 z" fill="#2a9d8f"/>
    </marker>
  </defs>
  <rect width="720" height="535" fill="none"/>
  <line x1="350" y1="91" x2="194.6" y2="176.7" stroke="#2a9d8f" stroke-width="2" marker-end="url(#arr)"/>
  <line x1="350" y1="91" x2="589.7" y2="330.2" stroke="#2a9d8f" stroke-width="2" marker-end="url(#arr)"/>
  <line x1="185" y1="234" x2="114.1" y2="329.2" stroke="#2a9d8f" stroke-width="2" marker-end="url(#arr)"/>
  <line x1="185" y1="234" x2="299.1" y2="330.9" stroke="#2a9d8f" stroke-width="2" marker-end="url(#arr)"/>
  <rect x="238" y="126" width="60" height="22" rx="5" fill="#e0f4f2" stroke="#2a9d8f" stroke-width="1"/>
  <text x="268" y="140" text-anchor="middle" font-size="11" fill="#1a7a6e" font-weight="600">≤ 1</text>
  <rect x="372" y="126" width="48" height="22" rx="5" fill="#e0f4f2" stroke="#2a9d8f" stroke-width="1"/>
  <text x="396" y="140" text-anchor="middle" font-size="11" fill="#1a7a6e" font-weight="600">&gt; 1</text>
  <rect x="120" y="275" width="52" height="22" rx="5" fill="#e0f4f2" stroke="#2a9d8f" stroke-width="1"/>
  <text x="146" y="290" text-anchor="middle" font-size="11" fill="#1a7a6e" font-weight="600">male</text>
  <rect x="216" y="275" width="60" height="22" rx="5" fill="#e0f4f2" stroke="#2a9d8f" stroke-width="1"/>
  <text x="246" y="290" text-anchor="middle" font-size="11" fill="#1a7a6e" font-weight="600">female</text>
  <rect x="260" y="39" width="180" height="52" rx="11"
        fill="#e0f4f2" stroke="#2a9d8f" stroke-width="2.5" filter="url(#shadow-node)"/>
  <text x="350" y="60" text-anchor="middle" font-size="12.5" fill="#333" font-weight="700">ph.ecog?</text>
  <text x="350" y="78" text-anchor="middle" font-size="10.5" fill="#2a9d8f">≤ 1  |  &gt; 1</text>
  <rect x="100" y="182" width="170" height="52" rx="11"
        fill="#e0f4f2" stroke="#2a9d8f" stroke-width="2" filter="url(#shadow-node)"/>
  <text x="185" y="203" text-anchor="middle" font-size="12.5" fill="#333" font-weight="700">sex?</text>
  <text x="185" y="221" text-anchor="middle" font-size="10.5" fill="#2a9d8f">male  |  female</text>

  <!-- Terminal Node 3 -->
  <rect x="15" y="338" width="185" height="178" rx="11"
        fill="white" stroke="#2a9d8f" stroke-width="2" filter="url(#shadow-sm)"/>
  <text x="108" y="358" text-anchor="middle" font-size="11" fill="#1a5f58" font-weight="700">Node 3  (n = 107)</text>
  <line x1="23" y1="366" x2="192" y2="366" stroke="#d0ece9" stroke-width="1"/>
  <rect x="47" y="376" width="142" height="105"
        fill="#f8fdfc" stroke="#cde8e5" stroke-width="0.8" rx="2"/>
  <line x1="47" y1="428.5" x2="189" y2="428.5" stroke="#e0f0ee" stroke-width="0.7" stroke-dasharray="3,2"/>
  <line x1="43" y1="376" x2="47" y2="376" stroke="#555" stroke-width="1"/>
  <text x="41" y="380" text-anchor="end" font-size="9" fill="#333" font-weight="600">1</text>
  <line x1="43" y1="428.5" x2="47" y2="428.5" stroke="#555" stroke-width="1"/>
  <text x="41" y="432.5" text-anchor="end" font-size="9" fill="#333" font-weight="600">.5</text>
  <line x1="43" y1="481" x2="47" y2="481" stroke="#555" stroke-width="1"/>
  <text x="41" y="485" text-anchor="end" font-size="9" fill="#333" font-weight="600">0</text>
  <line x1="47" y1="481" x2="47" y2="485" stroke="#555" stroke-width="1"/>
  <text x="47" y="495" text-anchor="middle" font-size="9" fill="#333" font-weight="600">0</text>
  <line x1="189" y1="481" x2="189" y2="485" stroke="#555" stroke-width="1"/>
  <text x="189" y="495" text-anchor="end" font-size="9" fill="#333" font-weight="600">1022</text>
  <text transform="rotate(-90,25,428)" x="25" y="428"
        text-anchor="middle" font-size="9.5" fill="#333" font-weight="600">S(t)</text>
  <text x="118" y="506" text-anchor="middle" font-size="9.5" fill="#333" font-weight="600">t</text>
  <polyline points="47.0,376.0 48.5,376.0 48.5,378.0 48.8,378.0 48.8,378.9 49.1,378.9 49.1,379.9 51.3,379.9 51.3,380.9 54.4,380.9 54.4,381.9 55.2,381.9 55.2,382.9 55.3,382.9 55.3,383.9 56.0,383.9 56.0,384.8 59.2,384.8 59.2,386.8 59.8,386.8 59.8,387.8 60.2,387.8 60.2,388.8 61.9,388.8 61.9,389.7 62.3,389.7 62.3,390.7 63.1,390.7 63.1,391.7 65.2,391.7 65.2,392.7 65.3,392.7 65.3,393.7 65.8,393.7 65.8,394.6 66.7,394.6 66.7,395.6 67.0,395.6 67.0,396.6 67.4,396.6 67.4,397.6 68.7,397.6 68.7,398.6 69.6,398.6 69.6,400.5 70.6,400.5 70.6,401.5 71.3,401.5 71.3,402.5 71.5,402.5 71.5,403.5 71.9,403.5 71.9,405.5 72.1,405.5 72.1,407.5 73.3,407.5 73.3,408.5 74.4,408.5 74.4,409.5 75.1,409.5 75.1,410.6 75.8,410.6 75.8,411.7 76.2,411.7 76.2,412.8 77.3,412.8 77.3,413.8 78.0,413.8 78.0,414.9 78.8,414.9 78.8,416.1 79.0,416.1 79.0,417.2 80.2,417.2 80.2,418.4 81.2,418.4 81.2,419.5 84.1,419.5 84.1,420.7 84.4,420.7 84.4,421.9 84.5,421.9 84.5,423.1 86.3,423.1 86.3,424.3 86.5,424.3 86.5,425.5 86.6,425.5 86.6,426.7 86.7,426.7 86.7,427.9 88.8,427.9 88.8,429.2 89.1,429.2 89.1,430.5 89.5,430.5 89.5,431.8 90.1,431.8 90.1,433.2 91.5,433.2 91.5,434.5 93.8,434.5 93.8,435.8 96.0,435.8 96.0,438.5 97.4,438.5 97.4,439.8 97.6,439.8 97.6,441.1 98.5,441.1 98.5,442.5 101.2,442.5 101.2,443.8 101.7,443.8 101.7,445.1 106.5,445.1 106.5,446.5 106.6,446.5 106.6,448.0 108.4,448.0 108.4,449.4 110.2,449.4 110.2,450.9 110.5,450.9 110.5,452.4 110.9,452.4 110.9,454.0 113.3,454.0 113.3,455.6 119.1,455.6 119.1,457.2 124.5,457.2 124.5,458.8 125.8,458.8 125.8,460.4 126.8,460.4 126.8,462.0 128.0,462.0 128.0,463.5 132.2,463.5 132.2,465.1 133.7,465.1 133.7,466.7 136.3,466.7 136.3,468.3 138.0,468.3 138.0,469.9 142.7,469.9 142.7,471.5 156.9,471.5 156.9,473.1 169.7,473.1 169.7,475.7 189.0,475.7" fill="none" stroke="#2a9d8f" stroke-width="1.5" stroke-linejoin="miter"/>

  <!-- Terminal Node 4 -->
  <rect x="215" y="338" width="185" height="178" rx="11"
        fill="white" stroke="#2a9d8f" stroke-width="2" filter="url(#shadow-sm)"/>
  <text x="308" y="358" text-anchor="middle" font-size="11" fill="#1a5f58" font-weight="700">Node 4  (n = 69)</text>
  <line x1="223" y1="366" x2="392" y2="366" stroke="#d0ece9" stroke-width="1"/>
  <rect x="247" y="376" width="142" height="105"
        fill="#f8fdfc" stroke="#cde8e5" stroke-width="0.8" rx="2"/>
  <line x1="247" y1="428.5" x2="389" y2="428.5" stroke="#e0f0ee" stroke-width="0.7" stroke-dasharray="3,2"/>
  <line x1="243" y1="376" x2="247" y2="376" stroke="#555" stroke-width="1"/>
  <text x="241" y="380" text-anchor="end" font-size="9" fill="#333" font-weight="600">1</text>
  <line x1="243" y1="428.5" x2="247" y2="428.5" stroke="#555" stroke-width="1"/>
  <text x="241" y="432.5" text-anchor="end" font-size="9" fill="#333" font-weight="600">.5</text>
  <line x1="243" y1="481" x2="247" y2="481" stroke="#555" stroke-width="1"/>
  <text x="241" y="485" text-anchor="end" font-size="9" fill="#333" font-weight="600">0</text>
  <line x1="247" y1="481" x2="247" y2="485" stroke="#555" stroke-width="1"/>
  <text x="247" y="495" text-anchor="middle" font-size="9" fill="#333" font-weight="600">0</text>
  <line x1="389" y1="481" x2="389" y2="485" stroke="#555" stroke-width="1"/>
  <text x="389" y="495" text-anchor="end" font-size="9" fill="#333" font-weight="600">1022</text>
  <text transform="rotate(-90,225,428)" x="225" y="428"
        text-anchor="middle" font-size="9.5" fill="#333" font-weight="600">S(t)</text>
  <text x="318" y="506" text-anchor="middle" font-size="9.5" fill="#333" font-weight="600">t</text>
  <polyline points="247.0,376.0 247.7,376.0 247.7,377.5 255.3,377.5 255.3,379.0 255.6,379.0 255.6,380.6 258.0,380.6 258.0,382.1 258.3,382.1 258.3,383.6 267.1,383.6 267.1,385.1 270.1,385.1 270.1,386.6 270.2,386.6 270.2,388.2 272.3,388.2 272.3,389.8 272.8,389.8 272.8,391.4 274.0,391.4 274.0,393.0 274.9,393.0 274.9,394.6 278.4,394.6 278.4,396.4 281.0,396.4 281.0,398.2 284.2,398.2 284.2,400.1 287.7,400.1 287.7,402.2 289.4,402.2 289.4,404.4 294.2,404.4 294.2,406.8 294.9,406.8 294.9,409.1 295.4,409.1 295.4,411.4 295.6,411.4 295.6,413.7 297.4,413.7 297.4,416.1 298.5,416.1 298.5,418.6 306.2,418.6 306.2,421.5 307.2,421.5 307.2,424.3 309.5,424.3 309.5,427.1 312.7,427.1 312.7,430.0 319.3,430.0 319.3,433.0 319.8,433.0 319.8,436.0 323.4,436.0 323.4,439.4 336.1,439.4 336.1,443.6 342.5,443.6 342.5,447.7 345.0,447.7 345.0,451.9 348.2,451.9 348.2,456.1 348.6,456.1 348.6,460.2 349.1,460.2 349.1,464.4 353.3,464.4 353.3,469.9 381.1,469.9" fill="none" stroke="#2a9d8f" stroke-width="1.5" stroke-linejoin="miter"/>

  <!-- Terminal Node 5 -->
  <rect x="505" y="338" width="185" height="178" rx="11"
        fill="white" stroke="#2a9d8f" stroke-width="2" filter="url(#shadow-sm)"/>
  <text x="598" y="358" text-anchor="middle" font-size="11" fill="#1a5f58" font-weight="700">Node 5  (n = 51)</text>
  <line x1="513" y1="366" x2="682" y2="366" stroke="#d0ece9" stroke-width="1"/>
  <rect x="537" y="376" width="142" height="105"
        fill="#f8fdfc" stroke="#cde8e5" stroke-width="0.8" rx="2"/>
  <line x1="537" y1="428.5" x2="679" y2="428.5" stroke="#e0f0ee" stroke-width="0.7" stroke-dasharray="3,2"/>
  <line x1="533" y1="376" x2="537" y2="376" stroke="#555" stroke-width="1"/>
  <text x="531" y="380" text-anchor="end" font-size="9" fill="#333" font-weight="600">1</text>
  <line x1="533" y1="428.5" x2="537" y2="428.5" stroke="#555" stroke-width="1"/>
  <text x="531" y="432.5" text-anchor="end" font-size="9" fill="#333" font-weight="600">.5</text>
  <line x1="533" y1="481" x2="537" y2="481" stroke="#555" stroke-width="1"/>
  <text x="531" y="485" text-anchor="end" font-size="9" fill="#333" font-weight="600">0</text>
  <line x1="537" y1="481" x2="537" y2="485" stroke="#555" stroke-width="1"/>
  <text x="537" y="495" text-anchor="middle" font-size="9" fill="#333" font-weight="600">0</text>
  <line x1="679" y1="481" x2="679" y2="485" stroke="#555" stroke-width="1"/>
  <text x="679" y="495" text-anchor="end" font-size="9" fill="#333" font-weight="600">1022</text>
  <text transform="rotate(-90,515,428)" x="515" y="428"
        text-anchor="middle" font-size="9.5" fill="#333" font-weight="600">S(t)</text>
  <text x="608" y="506" text-anchor="middle" font-size="9.5" fill="#333" font-weight="600">t</text>
  <polyline points="537.0,376.0 538.5,376.0 538.5,378.1 538.7,378.1 538.7,380.1 538.8,380.1 538.8,382.2 540.6,382.2 540.6,384.2 541.2,384.2 541.2,386.3 544.4,386.3 544.4,388.3 544.5,388.3 544.5,390.4 545.5,390.4 545.5,392.5 546.0,392.5 546.0,394.5 548.3,394.5 548.3,396.6 549.9,396.6 549.9,398.7 550.2,398.7 550.2,400.8 551.6,400.8 551.6,402.9 551.9,402.9 551.9,405.1 553.4,405.1 553.4,407.3 554.0,407.3 554.0,409.4 555.3,409.4 555.3,411.6 557.1,411.6 557.1,413.8 558.3,413.8 558.3,415.9 558.7,415.9 558.7,418.1 559.6,418.1 559.6,420.3 560.1,420.3 560.1,422.4 561.6,422.4 561.6,424.6 562.0,424.6 562.0,426.8 562.4,426.8 562.4,428.9 564.6,428.9 564.6,431.1 564.9,431.1 564.9,433.3 565.9,433.3 565.9,435.5 566.5,435.5 566.5,437.7 567.8,437.7 567.8,440.0 570.2,440.0 570.2,442.3 576.6,442.3 576.6,444.6 577.0,444.6 577.0,446.8 577.4,446.8 577.4,449.1 580.1,449.1 580.1,451.6 582.7,451.6 582.7,454.0 585.8,454.0 585.8,456.5 587.2,456.5 587.2,458.9 590.8,458.9 590.8,461.4 598.7,461.4 598.7,463.8 609.8,463.8 609.8,466.7 611.1,466.7 611.1,469.6 627.9,469.6 627.9,473.4 635.2,473.4 635.2,477.2 650.1,477.2 650.1,481 650.1,481" fill="none" stroke="#2a9d8f" stroke-width="1.5" stroke-linejoin="miter"/>
</svg>